<?xml version="1.0" encoding="utf-8" standalone="no"?>
<!DOCTYPE svg PUBLIC "-//W3C//DTD SVG 1.1//EN"
  "http://www.w3.org/Graphics/SVG/1.1/DTD/svg11.dtd">
<svg xmlns:xlink="http://www.w3.org/1999/xlink" width="460.8pt" height="345.6pt" viewBox="0 0 460.8 345.6" xmlns="http://www.w3.org/2000/svg" version="1.1">
 <metadata>
  <rdf:RDF xmlns:dc="http://purl.org/dc/elements/1.1/" xmlns:cc="http://creativecommons.org/ns#" xmlns:rdf="http://www.w3.org/1999/02/22-rdf-syntax-ns#">
   <cc:Work>
    <dc:type rdf:resource="http://purl.org/dc/dcmitype/StillImage"/>
    <dc:date>2026-10-07T23:45:21.671052</dc:date>
    <dc:format>image/svg+xml</dc:format>
    <dc:creator>
     <cc:Agent>
      <dc:title>Matplotlib v3.11.2, https://matplotlib.org/</dc:title>
     </cc:Agent>
    </dc:creator>
   </cc:Work>
  </rdf:RDF>
 </metadata>
 <defs>
  <style type="text/css">*{stroke-linejoin: round; stroke-linecap: butt}</style>
 </defs>
 <g id="figure_1">
  <g id="patch_1">
   <path d="M 0 345.6 
L 460.8 345.6 
L 460.8 0 
L 0 0 
z
" style="fill: #ffffff"/>
  </g>
  <g id="axes_1">
   <g id="patch_2">
    <path d="M 57.6 307.584 
L 414.72 307.584 
L 414.72 41.472 
L 57.6 41.472 
z
" style="fill: #ffffff"/>
   </g>
   <g id="PathCollection_1">
    <defs>
     <path id="mcb39cf7b9c" d="M 0 1.581139 
C 0.419323 1.581139 0.821528 1.41454 1.118034 1.118034 
C 1.41454 0.821528 1.581139 0.419323 1.581139 0 
C 1.581139 -0.419323 1.41454 -0.821528 1.118034 -1.118034 
C 0.821528 -1.41454 0.419323 -1.581139 0 -1.581139 
C -0.419323 -1.581139 -0.821528 -1.41454 -1.118034 -1.118034 
C -1.41454 -0.821528 -1.581139 -0.419323 -1.581139 0 
C -1.581139 0.419323 -1.41454 0.821528 -1.118034 1.118034 
C -0.821528 1.41454 -0.419323 1.581139 0 1.581139 
z
" style="stroke: #000000; stroke-opacity: 0.7"/>
    </defs>
    <g clip-path="url(#p817bf75b51)">
     <use xlink:href="#mcb39cf7b9c" x="75.269252" y="138.447095" style="fill-opacity: 0.7; stroke: #000000; stroke-opacity: 0.7"/>
     <use xlink:href="#mcb39cf7b9c" x="76.705776" y="126.163083" style="fill-opacity: 0.7; stroke: #000000; stroke-opacity: 0.7"/>
     <use xlink:href="#mcb39cf7b9c" x="75.987514" y="130.544719" style="fill-opacity: 0.7; stroke: #000000; stroke-opacity: 0.7"/>
     <use xlink:href="#mcb39cf7b9c" x="76.705776" y="137.509043" style="fill-opacity: 0.7; stroke: #000000; stroke-opacity: 0.7"/>
     <use xlink:href="#mcb39cf7b9c" x="76.705776" y="136.258307" style="fill-opacity: 0.7; stroke: #000000; stroke-opacity: 0.7"/>
     <use xlink:href="#mcb39cf7b9c" x="77.424039" y="141.26125" style="fill-opacity: 0.7; stroke: #000000; stroke-opacity: 0.7"/>
     <use xlink:href="#mcb39cf7b9c" x="76.705776" y="132.392397" style="fill-opacity: 0.7; stroke: #000000; stroke-opacity: 0.7"/>
     <use xlink:href="#mcb39cf7b9c" x="76.705776" y="128.753893" style="fill-opacity: 0.7; stroke: #000000; stroke-opacity: 0.7"/>
     <use xlink:href="#mcb39cf7b9c" x="75.987514" y="146.804284" style="fill-opacity: 0.7; stroke: #000000; stroke-opacity: 0.7"/>
     <use xlink:href="#mcb39cf7b9c" x="73.832727" y="127.503157" style="fill-opacity: 0.7; stroke: #000000; stroke-opacity: 0.7"/>
     <use xlink:href="#mcb39cf7b9c" x="78.860563" y="77.397295" style="fill-opacity: 0.7; stroke: #000000; stroke-opacity: 0.7"/>
     <use xlink:href="#mcb39cf7b9c" x="78.860563" y="68.388839" style="fill-opacity: 0.7; stroke: #000000; stroke-opacity: 0.7"/>
     <use xlink:href="#mcb39cf7b9c" x="82.451874" y="75.284941" style="fill-opacity: 0.7; stroke: #000000; stroke-opacity: 0.7"/>
     <use xlink:href="#mcb39cf7b9c" x="82.451874" y="66.964074" style="fill-opacity: 0.7; stroke: #000000; stroke-opacity: 0.7"/>
     <use xlink:href="#mcb39cf7b9c" x="81.01535" y="76.6418" style="fill-opacity: 0.7; stroke: #000000; stroke-opacity: 0.7"/>
     <use xlink:href="#mcb39cf7b9c" x="79.578825" y="88.383792" style="fill-opacity: 0.7; stroke: #000000; stroke-opacity: 0.7"/>
     <use xlink:href="#mcb39cf7b9c" x="81.733612" y="73.471374" style="fill-opacity: 0.7; stroke: #000000; stroke-opacity: 0.7"/>
     <use xlink:href="#mcb39cf7b9c" x="82.451874" y="84.290238" style="fill-opacity: 0.7; stroke: #000000; stroke-opacity: 0.7"/>
     <use xlink:href="#mcb39cf7b9c" x="82.451874" y="91.154693" style="fill-opacity: 0.7; stroke: #000000; stroke-opacity: 0.7"/>
     <use xlink:href="#mcb39cf7b9c" x="82.451874" y="93.527815" style="fill-opacity: 0.7; stroke: #000000; stroke-opacity: 0.7"/>
     <use xlink:href="#mcb39cf7b9c" x="82.451874" y="84.149531" style="fill-opacity: 0.7; stroke: #000000; stroke-opacity: 0.7"/>
     <use xlink:href="#mcb39cf7b9c" x="81.01535" y="53.568" style="fill-opacity: 0.7; stroke: #000000; stroke-opacity: 0.7"/>
     <use xlink:href="#mcb39cf7b9c" x="85.324924" y="60.338649" style="fill-opacity: 0.7; stroke: #000000; stroke-opacity: 0.7"/>
     <use xlink:href="#mcb39cf7b9c" x="85.324924" y="62.063622" style="fill-opacity: 0.7; stroke: #000000; stroke-opacity: 0.7"/>
     <use xlink:href="#mcb39cf7b9c" x="86.761448" y="67.53038" style="fill-opacity: 0.7; stroke: #000000; stroke-opacity: 0.7"/>
     <use xlink:href="#mcb39cf7b9c" x="88.916235" y="69.781704" style="fill-opacity: 0.7; stroke: #000000; stroke-opacity: 0.7"/>
     <use xlink:href="#mcb39cf7b9c" x="90.352759" y="64.99764" style="fill-opacity: 0.7; stroke: #000000; stroke-opacity: 0.7"/>
     <use xlink:href="#mcb39cf7b9c" x="91.789284" y="77.736036" style="fill-opacity: 0.7; stroke: #000000; stroke-opacity: 0.7"/>
     <use xlink:href="#mcb39cf7b9c" x="91.789284" y="76.663356" style="fill-opacity: 0.7; stroke: #000000; stroke-opacity: 0.7"/>
     <use xlink:href="#mcb39cf7b9c" x="92.507546" y="86.452969" style="fill-opacity: 0.7; stroke: #000000; stroke-opacity: 0.7"/>
     <use xlink:href="#mcb39cf7b9c" x="93.225809" y="94.108514" style="fill-opacity: 0.7; stroke: #000000; stroke-opacity: 0.7"/>
     <use xlink:href="#mcb39cf7b9c" x="91.789284" y="107.20997" style="fill-opacity: 0.7; stroke: #000000; stroke-opacity: 0.7"/>
     <use xlink:href="#mcb39cf7b9c" x="92.507546" y="115.319854" style="fill-opacity: 0.7; stroke: #000000; stroke-opacity: 0.7"/>
     <use xlink:href="#mcb39cf7b9c" x="91.789284" y="135.348681" style="fill-opacity: 0.7; stroke: #000000; stroke-opacity: 0.7"/>
     <use xlink:href="#mcb39cf7b9c" x="98.253644" y="141.017357" style="fill-opacity: 0.7; stroke: #000000; stroke-opacity: 0.7"/>
     <use xlink:href="#mcb39cf7b9c" x="93.944071" y="137.975463" style="fill-opacity: 0.7; stroke: #000000; stroke-opacity: 0.7"/>
     <use xlink:href="#mcb39cf7b9c" x="96.098858" y="149.415668" style="fill-opacity: 0.7; stroke: #000000; stroke-opacity: 0.7"/>
     <use xlink:href="#mcb39cf7b9c" x="98.971907" y="136.302083" style="fill-opacity: 0.7; stroke: #000000; stroke-opacity: 0.7"/>
     <use xlink:href="#mcb39cf7b9c" x="96.81712" y="100.242804" style="fill-opacity: 0.7; stroke: #000000; stroke-opacity: 0.7"/>
     <use xlink:href="#mcb39cf7b9c" x="98.253644" y="93.221628" style="fill-opacity: 0.7; stroke: #000000; stroke-opacity: 0.7"/>
     <use xlink:href="#mcb39cf7b9c" x="98.971907" y="87.215136" style="fill-opacity: 0.7; stroke: #000000; stroke-opacity: 0.7"/>
     <use xlink:href="#mcb39cf7b9c" x="101.844956" y="78.574823" style="fill-opacity: 0.7; stroke: #000000; stroke-opacity: 0.7"/>
     <use xlink:href="#mcb39cf7b9c" x="102.563218" y="104.321553" style="fill-opacity: 0.7; stroke: #000000; stroke-opacity: 0.7"/>
     <use xlink:href="#mcb39cf7b9c" x="103.28148" y="113.071231" style="fill-opacity: 0.7; stroke: #000000; stroke-opacity: 0.7"/>
     <use xlink:href="#mcb39cf7b9c" x="103.28148" y="131.708756" style="fill-opacity: 0.7; stroke: #000000; stroke-opacity: 0.7"/>
     <use xlink:href="#mcb39cf7b9c" x="101.844956" y="162.050265" style="fill-opacity: 0.7; stroke: #000000; stroke-opacity: 0.7"/>
     <use xlink:href="#mcb39cf7b9c" x="106.154529" y="175.21664" style="fill-opacity: 0.7; stroke: #000000; stroke-opacity: 0.7"/>
     <use xlink:href="#mcb39cf7b9c" x="103.999743" y="166.695854" style="fill-opacity: 0.7; stroke: #000000; stroke-opacity: 0.7"/>
     <use xlink:href="#mcb39cf7b9c" x="106.872792" y="143.090451" style="fill-opacity: 0.7; stroke: #000000; stroke-opacity: 0.7"/>
     <use xlink:href="#mcb39cf7b9c" x="106.872792" y="132.064434" style="fill-opacity: 0.7; stroke: #000000; stroke-opacity: 0.7"/>
     <use xlink:href="#mcb39cf7b9c" x="109.027578" y="135.539134" style="fill-opacity: 0.7; stroke: #000000; stroke-opacity: 0.7"/>
     <use xlink:href="#mcb39cf7b9c" x="109.027578" y="143.801807" style="fill-opacity: 0.7; stroke: #000000; stroke-opacity: 0.7"/>
     <use xlink:href="#mcb39cf7b9c" x="110.464103" y="153.625294" style="fill-opacity: 0.7; stroke: #000000; stroke-opacity: 0.7"/>
     <use xlink:href="#mcb39cf7b9c" x="112.61889" y="172.033981" style="fill-opacity: 0.7; stroke: #000000; stroke-opacity: 0.7"/>
     <use xlink:href="#mcb39cf7b9c" x="111.182365" y="178.495653" style="fill-opacity: 0.7; stroke: #000000; stroke-opacity: 0.7"/>
     <use xlink:href="#mcb39cf7b9c" x="109.027578" y="187.736505" style="fill-opacity: 0.7; stroke: #000000; stroke-opacity: 0.7"/>
     <use xlink:href="#mcb39cf7b9c" x="109.745841" y="203.228256" style="fill-opacity: 0.7; stroke: #000000; stroke-opacity: 0.7"/>
     <use xlink:href="#mcb39cf7b9c" x="109.745841" y="208.941687" style="fill-opacity: 0.7; stroke: #000000; stroke-opacity: 0.7"/>
     <use xlink:href="#mcb39cf7b9c" x="114.773677" y="200.134423" style="fill-opacity: 0.7; stroke: #000000; stroke-opacity: 0.7"/>
     <use xlink:href="#mcb39cf7b9c" x="114.773677" y="181.428396" style="fill-opacity: 0.7; stroke: #000000; stroke-opacity: 0.7"/>
     <use xlink:href="#mcb39cf7b9c" x="116.928463" y="177.664608" style="fill-opacity: 0.7; stroke: #000000; stroke-opacity: 0.7"/>
     <use xlink:href="#mcb39cf7b9c" x="118.364988" y="179.516392" style="fill-opacity: 0.7; stroke: #000000; stroke-opacity: 0.7"/>
     <use xlink:href="#mcb39cf7b9c" x="121.238037" y="167.366884" style="fill-opacity: 0.7; stroke: #000000; stroke-opacity: 0.7"/>
     <use xlink:href="#mcb39cf7b9c" x="121.238037" y="164.786807" style="fill-opacity: 0.7; stroke: #000000; stroke-opacity: 0.7"/>
     <use xlink:href="#mcb39cf7b9c" x="121.956299" y="165.133247" style="fill-opacity: 0.7; stroke: #000000; stroke-opacity: 0.7"/>
     <use xlink:href="#mcb39cf7b9c" x="124.829348" y="161.585706" style="fill-opacity: 0.7; stroke: #000000; stroke-opacity: 0.7"/>
     <use xlink:href="#mcb39cf7b9c" x="124.111086" y="154.268902" style="fill-opacity: 0.7; stroke: #000000; stroke-opacity: 0.7"/>
     <use xlink:href="#mcb39cf7b9c" x="124.829348" y="156.707836" style="fill-opacity: 0.7; stroke: #000000; stroke-opacity: 0.7"/>
     <use xlink:href="#mcb39cf7b9c" x="126.265873" y="149.391032" style="fill-opacity: 0.7; stroke: #000000; stroke-opacity: 0.7"/>
     <use xlink:href="#mcb39cf7b9c" x="129.857184" y="135.976892" style="fill-opacity: 0.7; stroke: #000000; stroke-opacity: 0.7"/>
     <use xlink:href="#mcb39cf7b9c" x="133.448496" y="147.866698" style="fill-opacity: 0.7; stroke: #000000; stroke-opacity: 0.7"/>
     <use xlink:href="#mcb39cf7b9c" x="131.293709" y="145.393889" style="fill-opacity: 0.7; stroke: #000000; stroke-opacity: 0.7"/>
     <use xlink:href="#mcb39cf7b9c" x="134.166758" y="147.420176" style="fill-opacity: 0.7; stroke: #000000; stroke-opacity: 0.7"/>
     <use xlink:href="#mcb39cf7b9c" x="137.039807" y="159.647065" style="fill-opacity: 0.7; stroke: #000000; stroke-opacity: 0.7"/>
     <use xlink:href="#mcb39cf7b9c" x="135.603282" y="150.869175" style="fill-opacity: 0.7; stroke: #000000; stroke-opacity: 0.7"/>
     <use xlink:href="#mcb39cf7b9c" x="139.194594" y="154.143828" style="fill-opacity: 0.7; stroke: #000000; stroke-opacity: 0.7"/>
     <use xlink:href="#mcb39cf7b9c" x="141.349381" y="164.098547" style="fill-opacity: 0.7; stroke: #000000; stroke-opacity: 0.7"/>
     <use xlink:href="#mcb39cf7b9c" x="144.940692" y="170.167142" style="fill-opacity: 0.7; stroke: #000000; stroke-opacity: 0.7"/>
     <use xlink:href="#mcb39cf7b9c" x="142.785905" y="165.000214" style="fill-opacity: 0.7; stroke: #000000; stroke-opacity: 0.7"/>
     <use xlink:href="#mcb39cf7b9c" x="142.785905" y="157.430484" style="fill-opacity: 0.7; stroke: #000000; stroke-opacity: 0.7"/>
     <use xlink:href="#mcb39cf7b9c" x="141.349381" y="161.201799" style="fill-opacity: 0.7; stroke: #000000; stroke-opacity: 0.7"/>
     <use xlink:href="#mcb39cf7b9c" x="138.476331" y="170.223599" style="fill-opacity: 0.7; stroke: #000000; stroke-opacity: 0.7"/>
     <use xlink:href="#mcb39cf7b9c" x="139.912856" y="160.953389" style="fill-opacity: 0.7; stroke: #000000; stroke-opacity: 0.7"/>
     <use xlink:href="#mcb39cf7b9c" x="137.039807" y="160.393338" style="fill-opacity: 0.7; stroke: #000000; stroke-opacity: 0.7"/>
     <use xlink:href="#mcb39cf7b9c" x="140.631118" y="161.992195" style="fill-opacity: 0.7; stroke: #000000; stroke-opacity: 0.7"/>
     <use xlink:href="#mcb39cf7b9c" x="139.912856" y="178.170461" style="fill-opacity: 0.7; stroke: #000000; stroke-opacity: 0.7"/>
     <use xlink:href="#mcb39cf7b9c" x="139.912856" y="183.710327" style="fill-opacity: 0.7; stroke: #000000; stroke-opacity: 0.7"/>
     <use xlink:href="#mcb39cf7b9c" x="139.912856" y="172.357667" style="fill-opacity: 0.7; stroke: #000000; stroke-opacity: 0.7"/>
     <use xlink:href="#mcb39cf7b9c" x="142.067643" y="171.239822" style="fill-opacity: 0.7; stroke: #000000; stroke-opacity: 0.7"/>
     <use xlink:href="#mcb39cf7b9c" x="142.067643" y="168.464752" style="fill-opacity: 0.7; stroke: #000000; stroke-opacity: 0.7"/>
     <use xlink:href="#mcb39cf7b9c" x="143.504167" y="164.02464" style="fill-opacity: 0.7; stroke: #000000; stroke-opacity: 0.7"/>
     <use xlink:href="#mcb39cf7b9c" x="140.631118" y="163.774493" style="fill-opacity: 0.7; stroke: #000000; stroke-opacity: 0.7"/>
     <use xlink:href="#mcb39cf7b9c" x="141.349381" y="171.278907" style="fill-opacity: 0.7; stroke: #000000; stroke-opacity: 0.7"/>
     <use xlink:href="#mcb39cf7b9c" x="140.631118" y="177.167788" style="fill-opacity: 0.7; stroke: #000000; stroke-opacity: 0.7"/>
     <use xlink:href="#mcb39cf7b9c" x="145.658954" y="173.780379" style="fill-opacity: 0.7; stroke: #000000; stroke-opacity: 0.7"/>
     <use xlink:href="#mcb39cf7b9c" x="142.067643" y="174.627231" style="fill-opacity: 0.7; stroke: #000000; stroke-opacity: 0.7"/>
     <use xlink:href="#mcb39cf7b9c" x="144.22243" y="169.564936" style="fill-opacity: 0.7; stroke: #000000; stroke-opacity: 0.7"/>
     <use xlink:href="#mcb39cf7b9c" x="147.813741" y="170.618797" style="fill-opacity: 0.7; stroke: #000000; stroke-opacity: 0.7"/>
     <use xlink:href="#mcb39cf7b9c" x="147.813741" y="174.642628" style="fill-opacity: 0.7; stroke: #000000; stroke-opacity: 0.7"/>
     <use xlink:href="#mcb39cf7b9c" x="147.813741" y="169.038006" style="fill-opacity: 0.7; stroke: #000000; stroke-opacity: 0.7"/>
     <use xlink:href="#mcb39cf7b9c" x="147.813741" y="189.904447" style="fill-opacity: 0.7; stroke: #000000; stroke-opacity: 0.7"/>
     <use xlink:href="#mcb39cf7b9c" x="148.532003" y="197.430654" style="fill-opacity: 0.7; stroke: #000000; stroke-opacity: 0.7"/>
     <use xlink:href="#mcb39cf7b9c" x="149.250265" y="201.266785" style="fill-opacity: 0.7; stroke: #000000; stroke-opacity: 0.7"/>
     <use xlink:href="#mcb39cf7b9c" x="148.532003" y="206.299507" style="fill-opacity: 0.7; stroke: #000000; stroke-opacity: 0.7"/>
     <use xlink:href="#mcb39cf7b9c" x="149.250265" y="204.267062" style="fill-opacity: 0.7; stroke: #000000; stroke-opacity: 0.7"/>
     <use xlink:href="#mcb39cf7b9c" x="149.968528" y="206.299507" style="fill-opacity: 0.7; stroke: #000000; stroke-opacity: 0.7"/>
     <use xlink:href="#mcb39cf7b9c" x="154.278101" y="196.691583" style="fill-opacity: 0.7; stroke: #000000; stroke-opacity: 0.7"/>
     <use xlink:href="#mcb39cf7b9c" x="152.123315" y="182.248902" style="fill-opacity: 0.7; stroke: #000000; stroke-opacity: 0.7"/>
     <use xlink:href="#mcb39cf7b9c" x="156.432888" y="172.328632" style="fill-opacity: 0.7; stroke: #000000; stroke-opacity: 0.7"/>
     <use xlink:href="#mcb39cf7b9c" x="160.0242" y="170.005837" style="fill-opacity: 0.7; stroke: #000000; stroke-opacity: 0.7"/>
     <use xlink:href="#mcb39cf7b9c" x="160.0242" y="178.679094" style="fill-opacity: 0.7; stroke: #000000; stroke-opacity: 0.7"/>
     <use xlink:href="#mcb39cf7b9c" x="160.0242" y="196.322048" style="fill-opacity: 0.7; stroke: #000000; stroke-opacity: 0.7"/>
     <use xlink:href="#mcb39cf7b9c" x="160.742462" y="191.201341" style="fill-opacity: 0.7; stroke: #000000; stroke-opacity: 0.7"/>
     <use xlink:href="#mcb39cf7b9c" x="162.178986" y="192.749871" style="fill-opacity: 0.7; stroke: #000000; stroke-opacity: 0.7"/>
     <use xlink:href="#mcb39cf7b9c" x="162.897249" y="192.541415" style="fill-opacity: 0.7; stroke: #000000; stroke-opacity: 0.7"/>
     <use xlink:href="#mcb39cf7b9c" x="163.615511" y="191.6659" style="fill-opacity: 0.7; stroke: #000000; stroke-opacity: 0.7"/>
     <use xlink:href="#mcb39cf7b9c" x="164.333773" y="192.749871" style="fill-opacity: 0.7; stroke: #000000; stroke-opacity: 0.7"/>
     <use xlink:href="#mcb39cf7b9c" x="165.052035" y="199.185948" style="fill-opacity: 0.7; stroke: #000000; stroke-opacity: 0.7"/>
     <use xlink:href="#mcb39cf7b9c" x="166.48856" y="183.652257" style="fill-opacity: 0.7; stroke: #000000; stroke-opacity: 0.7"/>
     <use xlink:href="#mcb39cf7b9c" x="165.770298" y="175.997592" style="fill-opacity: 0.7; stroke: #000000; stroke-opacity: 0.7"/>
     <use xlink:href="#mcb39cf7b9c" x="170.079871" y="170.586536" style="fill-opacity: 0.7; stroke: #000000; stroke-opacity: 0.7"/>
     <use xlink:href="#mcb39cf7b9c" x="173.671183" y="161.005007" style="fill-opacity: 0.7; stroke: #000000; stroke-opacity: 0.7"/>
     <use xlink:href="#mcb39cf7b9c" x="172.95292" y="166.231295" style="fill-opacity: 0.7; stroke: #000000; stroke-opacity: 0.7"/>
     <use xlink:href="#mcb39cf7b9c" x="172.234658" y="171.747933" style="fill-opacity: 0.7; stroke: #000000; stroke-opacity: 0.7"/>
     <use xlink:href="#mcb39cf7b9c" x="171.516396" y="184.03939" style="fill-opacity: 0.7; stroke: #000000; stroke-opacity: 0.7"/>
     <use xlink:href="#mcb39cf7b9c" x="173.671183" y="184.529757" style="fill-opacity: 0.7; stroke: #000000; stroke-opacity: 0.7"/>
     <use xlink:href="#mcb39cf7b9c" x="176.544232" y="170.731711" style="fill-opacity: 0.7; stroke: #000000; stroke-opacity: 0.7"/>
     <use xlink:href="#mcb39cf7b9c" x="177.262494" y="165.379604" style="fill-opacity: 0.7; stroke: #000000; stroke-opacity: 0.7"/>
     <use xlink:href="#mcb39cf7b9c" x="177.262494" y="157.281703" style="fill-opacity: 0.7; stroke: #000000; stroke-opacity: 0.7"/>
     <use xlink:href="#mcb39cf7b9c" x="177.262494" y="155.307707" style="fill-opacity: 0.7; stroke: #000000; stroke-opacity: 0.7"/>
     <use xlink:href="#mcb39cf7b9c" x="179.417281" y="149.510588" style="fill-opacity: 0.7; stroke: #000000; stroke-opacity: 0.7"/>
     <use xlink:href="#mcb39cf7b9c" x="176.544232" y="144.309919" style="fill-opacity: 0.7; stroke: #000000; stroke-opacity: 0.7"/>
     <use xlink:href="#mcb39cf7b9c" x="180.135543" y="124.930372" style="fill-opacity: 0.7; stroke: #000000; stroke-opacity: 0.7"/>
     <use xlink:href="#mcb39cf7b9c" x="183.008592" y="129.969886" style="fill-opacity: 0.7; stroke: #000000; stroke-opacity: 0.7"/>
     <use xlink:href="#mcb39cf7b9c" x="180.135543" y="133.921864" style="fill-opacity: 0.7; stroke: #000000; stroke-opacity: 0.7"/>
     <use xlink:href="#mcb39cf7b9c" x="183.008592" y="133.258496" style="fill-opacity: 0.7; stroke: #000000; stroke-opacity: 0.7"/>
     <use xlink:href="#mcb39cf7b9c" x="183.726854" y="139.746879" style="fill-opacity: 0.7; stroke: #000000; stroke-opacity: 0.7"/>
     <use xlink:href="#mcb39cf7b9c" x="186.599903" y="128.638694" style="fill-opacity: 0.7; stroke: #000000; stroke-opacity: 0.7"/>
     <use xlink:href="#mcb39cf7b9c" x="186.599903" y="128.313819" style="fill-opacity: 0.7; stroke: #000000; stroke-opacity: 0.7"/>
     <use xlink:href="#mcb39cf7b9c" x="186.599903" y="131.099023" style="fill-opacity: 0.7; stroke: #000000; stroke-opacity: 0.7"/>
     <use xlink:href="#mcb39cf7b9c" x="185.163379" y="132.892357" style="fill-opacity: 0.7; stroke: #000000; stroke-opacity: 0.7"/>
     <use xlink:href="#mcb39cf7b9c" x="186.599903" y="114.500717" style="fill-opacity: 0.7; stroke: #000000; stroke-opacity: 0.7"/>
     <use xlink:href="#mcb39cf7b9c" x="189.472953" y="121.072291" style="fill-opacity: 0.7; stroke: #000000; stroke-opacity: 0.7"/>
     <use xlink:href="#mcb39cf7b9c" x="185.163379" y="115.710506" style="fill-opacity: 0.7; stroke: #000000; stroke-opacity: 0.7"/>
     <use xlink:href="#mcb39cf7b9c" x="188.75469" y="122.098192" style="fill-opacity: 0.7; stroke: #000000; stroke-opacity: 0.7"/>
     <use xlink:href="#mcb39cf7b9c" x="190.191215" y="123.208352" style="fill-opacity: 0.7; stroke: #000000; stroke-opacity: 0.7"/>
     <use xlink:href="#mcb39cf7b9c" x="189.472953" y="123.917715" style="fill-opacity: 0.7; stroke: #000000; stroke-opacity: 0.7"/>
     <use xlink:href="#mcb39cf7b9c" x="188.75469" y="124.874658" style="fill-opacity: 0.7; stroke: #000000; stroke-opacity: 0.7"/>
     <use xlink:href="#mcb39cf7b9c" x="190.191215" y="134.43804" style="fill-opacity: 0.7; stroke: #000000; stroke-opacity: 0.7"/>
     <use xlink:href="#mcb39cf7b9c" x="192.346002" y="138.720693" style="fill-opacity: 0.7; stroke: #000000; stroke-opacity: 0.7"/>
     <use xlink:href="#mcb39cf7b9c" x="192.346002" y="128.921402" style="fill-opacity: 0.7; stroke: #000000; stroke-opacity: 0.7"/>
     <use xlink:href="#mcb39cf7b9c" x="192.346002" y="120.16253" style="fill-opacity: 0.7; stroke: #000000; stroke-opacity: 0.7"/>
     <use xlink:href="#mcb39cf7b9c" x="190.909477" y="128.939549" style="fill-opacity: 0.7; stroke: #000000; stroke-opacity: 0.7"/>
     <use xlink:href="#mcb39cf7b9c" x="190.909477" y="126.35665" style="fill-opacity: 0.7; stroke: #000000; stroke-opacity: 0.7"/>
     <use xlink:href="#mcb39cf7b9c" x="190.191215" y="123.925685" style="fill-opacity: 0.7; stroke: #000000; stroke-opacity: 0.7"/>
     <use xlink:href="#mcb39cf7b9c" x="183.726854" y="122.517586" style="fill-opacity: 0.7; stroke: #000000; stroke-opacity: 0.7"/>
     <use xlink:href="#mcb39cf7b9c" x="188.75469" y="118.633357" style="fill-opacity: 0.7; stroke: #000000; stroke-opacity: 0.7"/>
     <use xlink:href="#mcb39cf7b9c" x="192.346002" y="123.223296" style="fill-opacity: 0.7; stroke: #000000; stroke-opacity: 0.7"/>
     <use xlink:href="#mcb39cf7b9c" x="195.219051" y="123.104737" style="fill-opacity: 0.7; stroke: #000000; stroke-opacity: 0.7"/>
     <use xlink:href="#mcb39cf7b9c" x="196.655575" y="122.080045" style="fill-opacity: 0.7; stroke: #000000; stroke-opacity: 0.7"/>
     <use xlink:href="#mcb39cf7b9c" x="196.655575" y="128.229688" style="fill-opacity: 0.7; stroke: #000000; stroke-opacity: 0.7"/>
     <use xlink:href="#mcb39cf7b9c" x="198.0921" y="128.110132" style="fill-opacity: 0.7; stroke: #000000; stroke-opacity: 0.7"/>
     <use xlink:href="#mcb39cf7b9c" x="197.373837" y="118.583437" style="fill-opacity: 0.7; stroke: #000000; stroke-opacity: 0.7"/>
     <use xlink:href="#mcb39cf7b9c" x="196.655575" y="116.465415" style="fill-opacity: 0.7; stroke: #000000; stroke-opacity: 0.7"/>
     <use xlink:href="#mcb39cf7b9c" x="196.655575" y="128.163268" style="fill-opacity: 0.7; stroke: #000000; stroke-opacity: 0.7"/>
     <use xlink:href="#mcb39cf7b9c" x="192.346002" y="150.108366" style="fill-opacity: 0.7; stroke: #000000; stroke-opacity: 0.7"/>
     <use xlink:href="#mcb39cf7b9c" x="192.346002" y="159.892001" style="fill-opacity: 0.7; stroke: #000000; stroke-opacity: 0.7"/>
     <use xlink:href="#mcb39cf7b9c" x="187.318166" y="153.455923" style="fill-opacity: 0.7; stroke: #000000; stroke-opacity: 0.7"/>
     <use xlink:href="#mcb39cf7b9c" x="189.472953" y="164.45504" style="fill-opacity: 0.7; stroke: #000000; stroke-opacity: 0.7"/>
     <use xlink:href="#mcb39cf7b9c" x="193.782526" y="175.558769" style="fill-opacity: 0.7; stroke: #000000; stroke-opacity: 0.7"/>
     <use xlink:href="#mcb39cf7b9c" x="194.500788" y="179.471226" style="fill-opacity: 0.7; stroke: #000000; stroke-opacity: 0.7"/>
     <use xlink:href="#mcb39cf7b9c" x="198.0921" y="187.768386" style="fill-opacity: 0.7; stroke: #000000; stroke-opacity: 0.7"/>
     <use xlink:href="#mcb39cf7b9c" x="198.810362" y="194.556489" style="fill-opacity: 0.7; stroke: #000000; stroke-opacity: 0.7"/>
     <use xlink:href="#mcb39cf7b9c" x="200.965149" y="195.502141" style="fill-opacity: 0.7; stroke: #000000; stroke-opacity: 0.7"/>
     <use xlink:href="#mcb39cf7b9c" x="200.246887" y="182.029717" style="fill-opacity: 0.7; stroke: #000000; stroke-opacity: 0.7"/>
     <use xlink:href="#mcb39cf7b9c" x="200.965149" y="185.855496" style="fill-opacity: 0.7; stroke: #000000; stroke-opacity: 0.7"/>
     <use xlink:href="#mcb39cf7b9c" x="201.683411" y="197.153503" style="fill-opacity: 0.7; stroke: #000000; stroke-opacity: 0.7"/>
     <use xlink:href="#mcb39cf7b9c" x="197.373837" y="193.088611" style="fill-opacity: 0.7; stroke: #000000; stroke-opacity: 0.7"/>
     <use xlink:href="#mcb39cf7b9c" x="201.683411" y="186.094608" style="fill-opacity: 0.7; stroke: #000000; stroke-opacity: 0.7"/>
     <use xlink:href="#mcb39cf7b9c" x="198.0921" y="171.88343" style="fill-opacity: 0.7; stroke: #000000; stroke-opacity: 0.7"/>
     <use xlink:href="#mcb39cf7b9c" x="201.683411" y="169.941315" style="fill-opacity: 0.7; stroke: #000000; stroke-opacity: 0.7"/>
     <use xlink:href="#mcb39cf7b9c" x="203.119936" y="193.626612" style="fill-opacity: 0.7; stroke: #000000; stroke-opacity: 0.7"/>
     <use xlink:href="#mcb39cf7b9c" x="205.992985" y="192.191944" style="fill-opacity: 0.7; stroke: #000000; stroke-opacity: 0.7"/>
     <use xlink:href="#mcb39cf7b9c" x="205.992985" y="173.238393" style="fill-opacity: 0.7; stroke: #000000; stroke-opacity: 0.7"/>
     <use xlink:href="#mcb39cf7b9c" x="208.147772" y="157.092931" style="fill-opacity: 0.7; stroke: #000000; stroke-opacity: 0.7"/>
     <use xlink:href="#mcb39cf7b9c" x="211.020821" y="144.084091" style="fill-opacity: 0.7; stroke: #000000; stroke-opacity: 0.7"/>
     <use xlink:href="#mcb39cf7b9c" x="211.739083" y="145.684808" style="fill-opacity: 0.7; stroke: #000000; stroke-opacity: 0.7"/>
     <use xlink:href="#mcb39cf7b9c" x="211.739083" y="147.119476" style="fill-opacity: 0.7; stroke: #000000; stroke-opacity: 0.7"/>
     <use xlink:href="#mcb39cf7b9c" x="211.020821" y="165.989338" style="fill-opacity: 0.7; stroke: #000000; stroke-opacity: 0.7"/>
     <use xlink:href="#mcb39cf7b9c" x="208.147772" y="199.524689" style="fill-opacity: 0.7; stroke: #000000; stroke-opacity: 0.7"/>
     <use xlink:href="#mcb39cf7b9c" x="211.020821" y="201.387764" style="fill-opacity: 0.7; stroke: #000000; stroke-opacity: 0.7"/>
     <use xlink:href="#mcb39cf7b9c" x="207.429509" y="194.104834" style="fill-opacity: 0.7; stroke: #000000; stroke-opacity: 0.7"/>
     <use xlink:href="#mcb39cf7b9c" x="209.584296" y="188.844387" style="fill-opacity: 0.7; stroke: #000000; stroke-opacity: 0.7"/>
     <use xlink:href="#mcb39cf7b9c" x="213.175607" y="193.723751" style="fill-opacity: 0.7; stroke: #000000; stroke-opacity: 0.7"/>
     <use xlink:href="#mcb39cf7b9c" x="215.330394" y="189.727259" style="fill-opacity: 0.7; stroke: #000000; stroke-opacity: 0.7"/>
     <use xlink:href="#mcb39cf7b9c" x="220.35823" y="191.936892" style="fill-opacity: 0.7; stroke: #000000; stroke-opacity: 0.7"/>
     <use xlink:href="#mcb39cf7b9c" x="221.076492" y="190.26577" style="fill-opacity: 0.7; stroke: #000000; stroke-opacity: 0.7"/>
     <use xlink:href="#mcb39cf7b9c" x="223.949541" y="202.324947" style="fill-opacity: 0.7; stroke: #000000; stroke-opacity: 0.7"/>
     <use xlink:href="#mcb39cf7b9c" x="224.667804" y="215.513261" style="fill-opacity: 0.7; stroke: #000000; stroke-opacity: 0.7"/>
     <use xlink:href="#mcb39cf7b9c" x="226.104328" y="215.680025" style="fill-opacity: 0.7; stroke: #000000; stroke-opacity: 0.7"/>
     <use xlink:href="#mcb39cf7b9c" x="226.822591" y="227.132074" style="fill-opacity: 0.7; stroke: #000000; stroke-opacity: 0.7"/>
     <use xlink:href="#mcb39cf7b9c" x="222.513017" y="244.361669" style="fill-opacity: 0.7; stroke: #000000; stroke-opacity: 0.7"/>
     <use xlink:href="#mcb39cf7b9c" x="222.513017" y="242.612534" style="fill-opacity: 0.7; stroke: #000000; stroke-opacity: 0.7"/>
     <use xlink:href="#mcb39cf7b9c" x="216.766919" y="218.001467" style="fill-opacity: 0.7; stroke: #000000; stroke-opacity: 0.7"/>
     <use xlink:href="#mcb39cf7b9c" x="219.639968" y="212.106495" style="fill-opacity: 0.7; stroke: #000000; stroke-opacity: 0.7"/>
     <use xlink:href="#mcb39cf7b9c" x="222.513017" y="214.42929" style="fill-opacity: 0.7; stroke: #000000; stroke-opacity: 0.7"/>
     <use xlink:href="#mcb39cf7b9c" x="228.977377" y="214.700282" style="fill-opacity: 0.7; stroke: #000000; stroke-opacity: 0.7"/>
     <use xlink:href="#mcb39cf7b9c" x="230.413902" y="222.559072" style="fill-opacity: 0.7; stroke: #000000; stroke-opacity: 0.7"/>
     <use xlink:href="#mcb39cf7b9c" x="232.568689" y="225.133503" style="fill-opacity: 0.7; stroke: #000000; stroke-opacity: 0.7"/>
     <use xlink:href="#mcb39cf7b9c" x="235.441738" y="248.811493" style="fill-opacity: 0.7; stroke: #000000; stroke-opacity: 0.7"/>
     <use xlink:href="#mcb39cf7b9c" x="234.723475" y="239.689684" style="fill-opacity: 0.7; stroke: #000000; stroke-opacity: 0.7"/>
     <use xlink:href="#mcb39cf7b9c" x="234.723475" y="238.818636" style="fill-opacity: 0.7; stroke: #000000; stroke-opacity: 0.7"/>
     <use xlink:href="#mcb39cf7b9c" x="234.723475" y="237.657239" style="fill-opacity: 0.7; stroke: #000000; stroke-opacity: 0.7"/>
     <use xlink:href="#mcb39cf7b9c" x="229.69564" y="231.705077" style="fill-opacity: 0.7; stroke: #000000; stroke-opacity: 0.7"/>
     <use xlink:href="#mcb39cf7b9c" x="233.286951" y="242.593178" style="fill-opacity: 0.7; stroke: #000000; stroke-opacity: 0.7"/>
     <use xlink:href="#mcb39cf7b9c" x="231.850426" y="235.862352" style="fill-opacity: 0.7; stroke: #000000; stroke-opacity: 0.7"/>
     <use xlink:href="#mcb39cf7b9c" x="234.005213" y="235.691797" style="fill-opacity: 0.7; stroke: #000000; stroke-opacity: 0.7"/>
     <use xlink:href="#mcb39cf7b9c" x="235.441738" y="238.276651" style="fill-opacity: 0.7; stroke: #000000; stroke-opacity: 0.7"/>
     <use xlink:href="#mcb39cf7b9c" x="236.16" y="218.240125" style="fill-opacity: 0.7; stroke: #000000; stroke-opacity: 0.7"/>
     <use xlink:href="#mcb39cf7b9c" x="236.16" y="155.644711" style="fill-opacity: 0.7; stroke: #000000; stroke-opacity: 0.7"/>
     <use xlink:href="#mcb39cf7b9c" x="236.878262" y="146.889561" style="fill-opacity: 0.7; stroke: #000000; stroke-opacity: 0.7"/>
     <use xlink:href="#mcb39cf7b9c" x="231.132164" y="147.068237" style="fill-opacity: 0.7; stroke: #000000; stroke-opacity: 0.7"/>
     <use xlink:href="#mcb39cf7b9c" x="231.132164" y="153.201868" style="fill-opacity: 0.7; stroke: #000000; stroke-opacity: 0.7"/>
     <use xlink:href="#mcb39cf7b9c" x="231.132164" y="160.230742" style="fill-opacity: 0.7; stroke: #000000; stroke-opacity: 0.7"/>
     <use xlink:href="#mcb39cf7b9c" x="232.568689" y="167.973392" style="fill-opacity: 0.7; stroke: #000000; stroke-opacity: 0.7"/>
     <use xlink:href="#mcb39cf7b9c" x="231.132164" y="169.579991" style="fill-opacity: 0.7; stroke: #000000; stroke-opacity: 0.7"/>
     <use xlink:href="#mcb39cf7b9c" x="231.850426" y="166.506363" style="fill-opacity: 0.7; stroke: #000000; stroke-opacity: 0.7"/>
     <use xlink:href="#mcb39cf7b9c" x="240.469574" y="166.328079" style="fill-opacity: 0.7; stroke: #000000; stroke-opacity: 0.7"/>
     <use xlink:href="#mcb39cf7b9c" x="244.779147" y="166.901332" style="fill-opacity: 0.7; stroke: #000000; stroke-opacity: 0.7"/>
     <use xlink:href="#mcb39cf7b9c" x="248.370459" y="172.831904" style="fill-opacity: 0.7; stroke: #000000; stroke-opacity: 0.7"/>
     <use xlink:href="#mcb39cf7b9c" x="250.525245" y="223.448267" style="fill-opacity: 0.7; stroke: #000000; stroke-opacity: 0.7"/>
     <use xlink:href="#mcb39cf7b9c" x="251.96177" y="243.89975" style="fill-opacity: 0.7; stroke: #000000; stroke-opacity: 0.7"/>
     <use xlink:href="#mcb39cf7b9c" x="254.116557" y="258.715208" style="fill-opacity: 0.7; stroke: #000000; stroke-opacity: 0.7"/>
     <use xlink:href="#mcb39cf7b9c" x="257.707868" y="234.753745" style="fill-opacity: 0.7; stroke: #000000; stroke-opacity: 0.7"/>
     <use xlink:href="#mcb39cf7b9c" x="258.42613" y="226.19608" style="fill-opacity: 0.7; stroke: #000000; stroke-opacity: 0.7"/>
     <use xlink:href="#mcb39cf7b9c" x="260.580917" y="265.490027" style="fill-opacity: 0.7; stroke: #000000; stroke-opacity: 0.7"/>
     <use xlink:href="#mcb39cf7b9c" x="264.172228" y="283.74638" style="fill-opacity: 0.7; stroke: #000000; stroke-opacity: 0.7"/>
     <use xlink:href="#mcb39cf7b9c" x="265.608753" y="295.488" style="fill-opacity: 0.7; stroke: #000000; stroke-opacity: 0.7"/>
     <use xlink:href="#mcb39cf7b9c" x="267.045278" y="285.671854" style="fill-opacity: 0.7; stroke: #000000; stroke-opacity: 0.7"/>
     <use xlink:href="#mcb39cf7b9c" x="270.636589" y="276.215634" style="fill-opacity: 0.7; stroke: #000000; stroke-opacity: 0.7"/>
     <use xlink:href="#mcb39cf7b9c" x="276.382687" y="265.775282" style="fill-opacity: 0.7; stroke: #000000; stroke-opacity: 0.7"/>
     <use xlink:href="#mcb39cf7b9c" x="291.466195" y="245.292352" style="fill-opacity: 0.7; stroke: #000000; stroke-opacity: 0.7"/>
     <use xlink:href="#mcb39cf7b9c" x="296.494031" y="250.471324" style="fill-opacity: 0.7; stroke: #000000; stroke-opacity: 0.7"/>
     <use xlink:href="#mcb39cf7b9c" x="303.676653" y="252.938784" style="fill-opacity: 0.7; stroke: #000000; stroke-opacity: 0.7"/>
     <use xlink:href="#mcb39cf7b9c" x="303.676653" y="236.786191" style="fill-opacity: 0.7; stroke: #000000; stroke-opacity: 0.7"/>
     <use xlink:href="#mcb39cf7b9c" x="307.267965" y="238.818636" style="fill-opacity: 0.7; stroke: #000000; stroke-opacity: 0.7"/>
     <use xlink:href="#mcb39cf7b9c" x="310.141014" y="243.242194" style="fill-opacity: 0.7; stroke: #000000; stroke-opacity: 0.7"/>
     <use xlink:href="#mcb39cf7b9c" x="324.506259" y="238.101302" style="fill-opacity: 0.7; stroke: #000000; stroke-opacity: 0.7"/>
     <use xlink:href="#mcb39cf7b9c" x="330.252357" y="233.86455" style="fill-opacity: 0.7; stroke: #000000; stroke-opacity: 0.7"/>
     <use xlink:href="#mcb39cf7b9c" x="331.688882" y="239.032578" style="fill-opacity: 0.7; stroke: #000000; stroke-opacity: 0.7"/>
     <use xlink:href="#mcb39cf7b9c" x="328.09757" y="232.456198" style="fill-opacity: 0.7; stroke: #000000; stroke-opacity: 0.7"/>
     <use xlink:href="#mcb39cf7b9c" x="335.998455" y="230.845196" style="fill-opacity: 0.7; stroke: #000000; stroke-opacity: 0.7"/>
     <use xlink:href="#mcb39cf7b9c" x="342.462816" y="230.011372" style="fill-opacity: 0.7; stroke: #000000; stroke-opacity: 0.7"/>
     <use xlink:href="#mcb39cf7b9c" x="348.927176" y="227.341297" style="fill-opacity: 0.7; stroke: #000000; stroke-opacity: 0.7"/>
     <use xlink:href="#mcb39cf7b9c" x="352.518488" y="223.307868" style="fill-opacity: 0.7; stroke: #000000; stroke-opacity: 0.7"/>
     <use xlink:href="#mcb39cf7b9c" x="351.800225" y="223.236554" style="fill-opacity: 0.7; stroke: #000000; stroke-opacity: 0.7"/>
     <use xlink:href="#mcb39cf7b9c" x="353.955012" y="223.010726" style="fill-opacity: 0.7; stroke: #000000; stroke-opacity: 0.7"/>
     <use xlink:href="#mcb39cf7b9c" x="356.109799" y="234.275523" style="fill-opacity: 0.7; stroke: #000000; stroke-opacity: 0.7"/>
     <use xlink:href="#mcb39cf7b9c" x="358.982848" y="240.61197" style="fill-opacity: 0.7; stroke: #000000; stroke-opacity: 0.7"/>
     <use xlink:href="#mcb39cf7b9c" x="361.137635" y="241.754391" style="fill-opacity: 0.7; stroke: #000000; stroke-opacity: 0.7"/>
     <use xlink:href="#mcb39cf7b9c" x="361.137635" y="238.637974" style="fill-opacity: 0.7; stroke: #000000; stroke-opacity: 0.7"/>
     <use xlink:href="#mcb39cf7b9c" x="357.546323" y="218.650523" style="fill-opacity: 0.7; stroke: #000000; stroke-opacity: 0.7"/>
     <use xlink:href="#mcb39cf7b9c" x="358.264586" y="215.863957" style="fill-opacity: 0.7; stroke: #000000; stroke-opacity: 0.7"/>
     <use xlink:href="#mcb39cf7b9c" x="359.70111" y="203.081469" style="fill-opacity: 0.7; stroke: #000000; stroke-opacity: 0.7"/>
     <use xlink:href="#mcb39cf7b9c" x="363.292422" y="206.045452" style="fill-opacity: 0.7; stroke: #000000; stroke-opacity: 0.7"/>
     <use xlink:href="#mcb39cf7b9c" x="366.883733" y="210.770888" style="fill-opacity: 0.7; stroke: #000000; stroke-opacity: 0.7"/>
     <use xlink:href="#mcb39cf7b9c" x="371.193307" y="210.364399" style="fill-opacity: 0.7; stroke: #000000; stroke-opacity: 0.7"/>
     <use xlink:href="#mcb39cf7b9c" x="371.911569" y="211.854859" style="fill-opacity: 0.7; stroke: #000000; stroke-opacity: 0.7"/>
     <use xlink:href="#mcb39cf7b9c" x="372.629831" y="208.800979" style="fill-opacity: 0.7; stroke: #000000; stroke-opacity: 0.7"/>
     <use xlink:href="#mcb39cf7b9c" x="375.50288" y="210.945097" style="fill-opacity: 0.7; stroke: #000000; stroke-opacity: 0.7"/>
     <use xlink:href="#mcb39cf7b9c" x="374.784618" y="209.49335" style="fill-opacity: 0.7; stroke: #000000; stroke-opacity: 0.7"/>
     <use xlink:href="#mcb39cf7b9c" x="374.784618" y="204.363845" style="fill-opacity: 0.7; stroke: #000000; stroke-opacity: 0.7"/>
     <use xlink:href="#mcb39cf7b9c" x="378.375929" y="196.376391" style="fill-opacity: 0.7; stroke: #000000; stroke-opacity: 0.7"/>
     <use xlink:href="#mcb39cf7b9c" x="376.221142" y="202.95195" style="fill-opacity: 0.7; stroke: #000000; stroke-opacity: 0.7"/>
     <use xlink:href="#mcb39cf7b9c" x="380.530716" y="193.865723" style="fill-opacity: 0.7; stroke: #000000; stroke-opacity: 0.7"/>
     <use xlink:href="#mcb39cf7b9c" x="379.094191" y="200.518329" style="fill-opacity: 0.7; stroke: #000000; stroke-opacity: 0.7"/>
     <use xlink:href="#mcb39cf7b9c" x="382.685503" y="209.415924" style="fill-opacity: 0.7; stroke: #000000; stroke-opacity: 0.7"/>
     <use xlink:href="#mcb39cf7b9c" x="385.558552" y="214.857173" style="fill-opacity: 0.7; stroke: #000000; stroke-opacity: 0.7"/>
     <use xlink:href="#mcb39cf7b9c" x="389.149863" y="234.395078" style="fill-opacity: 0.7; stroke: #000000; stroke-opacity: 0.7"/>
     <use xlink:href="#mcb39cf7b9c" x="389.868126" y="253.671123" style="fill-opacity: 0.7; stroke: #000000; stroke-opacity: 0.7"/>
     <use xlink:href="#mcb39cf7b9c" x="389.868126" y="248.438878" style="fill-opacity: 0.7; stroke: #000000; stroke-opacity: 0.7"/>
     <use xlink:href="#mcb39cf7b9c" x="392.741175" y="233.21812" style="fill-opacity: 0.7; stroke: #000000; stroke-opacity: 0.7"/>
     <use xlink:href="#mcb39cf7b9c" x="393.459437" y="236.379701" style="fill-opacity: 0.7; stroke: #000000; stroke-opacity: 0.7"/>
     <use xlink:href="#mcb39cf7b9c" x="395.614224" y="246.677426" style="fill-opacity: 0.7; stroke: #000000; stroke-opacity: 0.7"/>
     <use xlink:href="#mcb39cf7b9c" x="398.487273" y="250.251142" style="fill-opacity: 0.7; stroke: #000000; stroke-opacity: 0.7"/>
     <use xlink:href="#mcb39cf7b9c" x="396.332486" y="257.691345" style="fill-opacity: 0.7; stroke: #000000; stroke-opacity: 0.7"/>
     <use xlink:href="#mcb39cf7b9c" x="396.332486" y="251.690791" style="fill-opacity: 0.7; stroke: #000000; stroke-opacity: 0.7"/>
    </g>
   </g>
   <g id="FillBetweenPolyCollection_1">
    <path d="M 73.832727 117.121694 
L 73.832727 130.476117 
L 77.112066 131.69857 
L 80.391405 132.911441 
L 83.670744 134.109302 
L 86.950083 135.306281 
L 90.229421 136.503261 
L 93.50876 137.700241 
L 96.788099 138.89722 
L 100.067438 140.10095 
L 103.346777 141.315892 
L 106.626116 142.530128 
L 109.905455 143.746818 
L 113.184793 144.961297 
L 116.464132 146.177412 
L 119.743471 147.417797 
L 123.02281 148.645967 
L 126.302149 149.911834 
L 129.581488 151.187464 
L 132.860826 152.357828 
L 136.140165 153.593738 
L 139.419504 154.829649 
L 142.698843 156.02008 
L 145.978182 157.225532 
L 149.257521 158.459004 
L 152.53686 159.637178 
L 155.816198 160.813282 
L 159.095537 162.013383 
L 162.374876 163.313832 
L 165.654215 164.693763 
L 168.933554 165.905137 
L 172.212893 167.117722 
L 175.492231 168.438913 
L 178.77157 169.730645 
L 182.050909 171.049425 
L 185.330248 172.369715 
L 188.609587 173.688665 
L 191.888926 174.943679 
L 195.168264 176.276099 
L 198.447603 177.514357 
L 201.726942 178.924433 
L 205.006281 180.220117 
L 208.28562 181.606749 
L 211.564959 182.946446 
L 214.844298 184.3291 
L 218.123636 185.707812 
L 221.402975 187.066458 
L 224.682314 188.485497 
L 227.961653 189.80132 
L 231.240992 191.194325 
L 234.520331 192.597082 
L 237.799669 193.998935 
L 241.079008 195.285491 
L 244.358347 196.590375 
L 247.637686 198.032478 
L 250.917025 199.354464 
L 254.196364 200.800694 
L 257.475702 202.21939 
L 260.755041 203.654952 
L 264.03438 205.004001 
L 267.313719 206.437086 
L 270.593058 207.819418 
L 273.872397 209.109662 
L 277.151736 210.52327 
L 280.431074 211.900777 
L 283.710413 213.362916 
L 286.989752 214.748631 
L 290.269091 216.173854 
L 293.54843 217.577196 
L 296.827769 218.988556 
L 300.107107 220.431894 
L 303.386446 221.875231 
L 306.665785 223.318568 
L 309.945124 224.761906 
L 313.224463 226.204193 
L 316.503802 227.596276 
L 319.78314 229.026372 
L 323.062479 230.473936 
L 326.341818 231.878405 
L 329.621157 233.2827 
L 332.900496 234.686577 
L 336.179835 236.089789 
L 339.459174 237.491322 
L 342.738512 238.892855 
L 346.017851 240.302584 
L 349.29719 241.712597 
L 352.576529 243.193657 
L 355.855868 244.640676 
L 359.135207 246.087694 
L 362.414545 247.534712 
L 365.693884 249.003517 
L 368.973223 250.473165 
L 372.252562 251.9421 
L 375.531901 253.411036 
L 378.81124 254.879971 
L 382.090579 256.300564 
L 385.369917 257.712685 
L 388.649256 259.124806 
L 391.928595 260.544845 
L 395.207934 261.997016 
L 398.487273 263.472934 
L 398.487273 245.754218 
L 398.487273 245.754218 
L 395.207934 244.53697 
L 391.928595 243.319723 
L 388.649256 242.127866 
L 385.369917 240.953562 
L 382.090579 239.733386 
L 378.81124 238.498126 
L 375.531901 237.262866 
L 372.252562 236.028036 
L 368.973223 234.834122 
L 365.693884 233.64149 
L 362.414545 232.448879 
L 359.135207 231.256268 
L 355.855868 230.063813 
L 352.576529 228.872016 
L 349.29719 227.65049 
L 346.017851 226.41225 
L 342.738512 225.180857 
L 339.459174 224.034164 
L 336.179835 222.894702 
L 332.900496 221.701462 
L 329.621157 220.491675 
L 326.341818 219.2577 
L 323.062479 218.033915 
L 319.78314 216.811058 
L 316.503802 215.58652 
L 313.224463 214.320361 
L 309.945124 213.036914 
L 306.665785 211.813958 
L 303.386446 210.541164 
L 300.107107 209.271723 
L 296.827769 208.021932 
L 293.54843 206.82805 
L 290.269091 205.654448 
L 286.989752 204.491572 
L 283.710413 203.287532 
L 280.431074 202.011735 
L 277.151736 200.773918 
L 273.872397 199.499629 
L 270.593058 198.239999 
L 267.313719 197.021567 
L 264.03438 195.732915 
L 260.755041 194.457272 
L 257.475702 193.144385 
L 254.196364 191.883923 
L 250.917025 190.639876 
L 247.637686 189.374429 
L 244.358347 188.081998 
L 241.079008 186.800585 
L 237.799669 185.533105 
L 234.520331 184.250581 
L 231.240992 182.972362 
L 227.961653 181.677752 
L 224.682314 180.391823 
L 221.402975 179.109005 
L 218.123636 177.819209 
L 214.844298 176.493723 
L 211.564959 175.20722 
L 208.28562 173.930188 
L 205.006281 172.604079 
L 201.726942 171.304867 
L 198.447603 169.922571 
L 195.168264 168.547699 
L 191.888926 167.186822 
L 188.609587 165.869626 
L 185.330248 164.58571 
L 182.050909 163.211213 
L 178.77157 161.866805 
L 175.492231 160.54238 
L 172.212893 159.147313 
L 168.933554 157.771599 
L 165.654215 156.330415 
L 162.374876 154.983217 
L 159.095537 153.622444 
L 155.816198 152.228678 
L 152.53686 150.870991 
L 149.257521 149.550319 
L 145.978182 148.162727 
L 142.698843 146.800943 
L 139.419504 145.468572 
L 136.140165 144.078218 
L 132.860826 142.635689 
L 129.581488 141.217821 
L 126.302149 139.815892 
L 123.02281 138.4133 
L 119.743471 136.998716 
L 116.464132 135.5957 
L 113.184793 134.206737 
L 109.905455 132.775662 
L 106.626116 131.351045 
L 103.346777 129.926433 
L 100.067438 128.50342 
L 96.788099 127.080407 
L 93.50876 125.616991 
L 90.229421 124.200824 
L 86.950083 122.809444 
L 83.670744 121.387015 
L 80.391405 119.98426 
L 77.112066 118.553818 
L 73.832727 117.121694 
z
" clip-path="url(#p817bf75b51)" style="fill: #ff0000; fill-opacity: 0.15"/>
   </g>
   <g id="matplotlib.axis_1">
    <g id="xtick_1">
     <g id="line2d_1">
      <defs>
       <path id="m733d1296a1" d="M 0 0 
L 0 3.5 
" style="stroke: #000000; stroke-width: 0.8"/>
      </defs>
      <g>
       <use xlink:href="#m733d1296a1" x="89.634497" y="307.584" style="stroke: #000000; stroke-width: 0.8"/>
      </g>
     </g>
     <g id="text_1">
      <!-- 80 -->
      <g transform="translate(83.271997 322.181656) scale(0.1 -0.1)">
       <defs>
        <path id="DejaVuSans-1b" d="M 2034 2216 
Q 1584 2216 1326 1975 
Q 1069 1734 1069 1313 
Q 1069 891 1326 650 
Q 1584 409 2034 409 
Q 2484 409 2743 651 
Q 3003 894 3003 1313 
Q 3003 1734 2745 1975 
Q 2488 2216 2034 2216 
z
M 1403 2484 
Q 997 2584 770 2862 
Q 544 3141 544 3541 
Q 544 4100 942 4425 
Q 1341 4750 2034 4750 
Q 2731 4750 3128 4425 
Q 3525 4100 3525 3541 
Q 3525 3141 3298 2862 
Q 3072 2584 2669 2484 
Q 3125 2378 3379 2068 
Q 3634 1759 3634 1313 
Q 3634 634 3220 271 
Q 2806 -91 2034 -91 
Q 1263 -91 848 271 
Q 434 634 434 1313 
Q 434 1759 690 2068 
Q 947 2378 1403 2484 
z
M 1172 3481 
Q 1172 3119 1398 2916 
Q 1625 2713 2034 2713 
Q 2441 2713 2670 2916 
Q 2900 3119 2900 3481 
Q 2900 3844 2670 4047 
Q 2441 4250 2034 4250 
Q 1625 4250 1398 4047 
Q 1172 3844 1172 3481 
z
" transform="scale(0.015625)"/>
        <path id="DejaVuSans-13" d="M 2034 4250 
Q 1547 4250 1301 3770 
Q 1056 3291 1056 2328 
Q 1056 1369 1301 889 
Q 1547 409 2034 409 
Q 2525 409 2770 889 
Q 3016 1369 3016 2328 
Q 3016 3291 2770 3770 
Q 2525 4250 2034 4250 
z
M 2034 4750 
Q 2819 4750 3233 4129 
Q 3647 3509 3647 2328 
Q 3647 1150 3233 529 
Q 2819 -91 2034 -91 
Q 1250 -91 836 529 
Q 422 1150 422 2328 
Q 422 3509 836 4129 
Q 1250 4750 2034 4750 
z
" transform="scale(0.015625)"/>
       </defs>
       <use xlink:href="#DejaVuSans-1b"/>
       <use xlink:href="#DejaVuSans-13" transform="translate(63.625 0)"/>
      </g>
     </g>
    </g>
    <g id="xtick_2">
     <g id="line2d_2">
      <g>
       <use xlink:href="#m733d1296a1" x="161.460724" y="307.584" style="stroke: #000000; stroke-width: 0.8"/>
      </g>
     </g>
     <g id="text_2">
      <!-- 90 -->
      <g transform="translate(155.098224 322.181656) scale(0.1 -0.1)">
       <defs>
        <path id="DejaVuSans-1c" d="M 703 97 
L 703 672 
Q 941 559 1184 500 
Q 1428 441 1663 441 
Q 2288 441 2617 861 
Q 2947 1281 2994 2138 
Q 2813 1869 2534 1725 
Q 2256 1581 1919 1581 
Q 1219 1581 811 2004 
Q 403 2428 403 3163 
Q 403 3881 828 4315 
Q 1253 4750 1959 4750 
Q 2769 4750 3195 4129 
Q 3622 3509 3622 2328 
Q 3622 1225 3098 567 
Q 2575 -91 1691 -91 
Q 1453 -91 1209 -44 
Q 966 3 703 97 
z
M 1959 2075 
Q 2384 2075 2632 2365 
Q 2881 2656 2881 3163 
Q 2881 3666 2632 3958 
Q 2384 4250 1959 4250 
Q 1534 4250 1286 3958 
Q 1038 3666 1038 3163 
Q 1038 2656 1286 2365 
Q 1534 2075 1959 2075 
z
" transform="scale(0.015625)"/>
       </defs>
       <use xlink:href="#DejaVuSans-1c"/>
       <use xlink:href="#DejaVuSans-13" transform="translate(63.625 0)"/>
      </g>
     </g>
    </g>
    <g id="xtick_3">
     <g id="line2d_3">
      <g>
       <use xlink:href="#m733d1296a1" x="233.286951" y="307.584" style="stroke: #000000; stroke-width: 0.8"/>
      </g>
     </g>
     <g id="text_3">
      <!-- 100 -->
      <g transform="translate(223.743201 322.181656) scale(0.1 -0.1)">
       <defs>
        <path id="DejaVuSans-14" d="M 794 531 
L 1825 531 
L 1825 4091 
L 703 3866 
L 703 4441 
L 1819 4666 
L 2450 4666 
L 2450 531 
L 3481 531 
L 3481 0 
L 794 0 
L 794 531 
z
" transform="scale(0.015625)"/>
       </defs>
       <use xlink:href="#DejaVuSans-14"/>
       <use xlink:href="#DejaVuSans-13" transform="translate(63.625 0)"/>
       <use xlink:href="#DejaVuSans-13" transform="translate(127.25 0)"/>
      </g>
     </g>
    </g>
    <g id="xtick_4">
     <g id="line2d_4">
      <g>
       <use xlink:href="#m733d1296a1" x="305.113178" y="307.584" style="stroke: #000000; stroke-width: 0.8"/>
      </g>
     </g>
     <g id="text_4">
      <!-- 110 -->
      <g transform="translate(295.569428 322.181656) scale(0.1 -0.1)">
       <use xlink:href="#DejaVuSans-14"/>
       <use xlink:href="#DejaVuSans-14" transform="translate(63.625 0)"/>
       <use xlink:href="#DejaVuSans-13" transform="translate(127.25 0)"/>
      </g>
     </g>
    </g>
    <g id="xtick_5">
     <g id="line2d_5">
      <g>
       <use xlink:href="#m733d1296a1" x="376.939405" y="307.584" style="stroke: #000000; stroke-width: 0.8"/>
      </g>
     </g>
     <g id="text_5">
      <!-- 120 -->
      <g transform="translate(367.395655 322.181656) scale(0.1 -0.1)">
       <defs>
        <path id="DejaVuSans-15" d="M 1228 531 
L 3431 531 
L 3431 0 
L 469 0 
L 469 531 
Q 828 903 1448 1529 
Q 2069 2156 2228 2338 
Q 2531 2678 2651 2914 
Q 2772 3150 2772 3378 
Q 2772 3750 2511 3984 
Q 2250 4219 1831 4219 
Q 1534 4219 1204 4116 
Q 875 4013 500 3803 
L 500 4441 
Q 881 4594 1212 4672 
Q 1544 4750 1819 4750 
Q 2544 4750 2975 4387 
Q 3406 4025 3406 3419 
Q 3406 3131 3298 2873 
Q 3191 2616 2906 2266 
Q 2828 2175 2409 1742 
Q 1991 1309 1228 531 
z
" transform="scale(0.015625)"/>
       </defs>
       <use xlink:href="#DejaVuSans-14"/>
       <use xlink:href="#DejaVuSans-15" transform="translate(63.625 0)"/>
       <use xlink:href="#DejaVuSans-13" transform="translate(127.25 0)"/>
      </g>
     </g>
    </g>
    <g id="text_6">
     <!-- Consumer price index (2020=100) -->
     <g transform="translate(149.412344 336.182437) scale(0.1 -0.1)">
      <defs>
       <path id="DejaVuSans-26" d="M 4122 4306 
L 4122 3641 
Q 3803 3938 3442 4084 
Q 3081 4231 2675 4231 
Q 1875 4231 1450 3742 
Q 1025 3253 1025 2328 
Q 1025 1406 1450 917 
Q 1875 428 2675 428 
Q 3081 428 3442 575 
Q 3803 722 4122 1019 
L 4122 359 
Q 3791 134 3420 21 
Q 3050 -91 2638 -91 
Q 1578 -91 968 557 
Q 359 1206 359 2328 
Q 359 3453 968 4101 
Q 1578 4750 2638 4750 
Q 3056 4750 3426 4639 
Q 3797 4528 4122 4306 
z
" transform="scale(0.015625)"/>
       <path id="DejaVuSans-52" d="M 1959 3097 
Q 1497 3097 1228 2736 
Q 959 2375 959 1747 
Q 959 1119 1226 758 
Q 1494 397 1959 397 
Q 2419 397 2687 759 
Q 2956 1122 2956 1747 
Q 2956 2369 2687 2733 
Q 2419 3097 1959 3097 
z
M 1959 3584 
Q 2709 3584 3137 3096 
Q 3566 2609 3566 1747 
Q 3566 888 3137 398 
Q 2709 -91 1959 -91 
Q 1206 -91 779 398 
Q 353 888 353 1747 
Q 353 2609 779 3096 
Q 1206 3584 1959 3584 
z
" transform="scale(0.015625)"/>
       <path id="DejaVuSans-51" d="M 3513 2113 
L 3513 0 
L 2938 0 
L 2938 2094 
Q 2938 2591 2744 2837 
Q 2550 3084 2163 3084 
Q 1697 3084 1428 2787 
Q 1159 2491 1159 1978 
L 1159 0 
L 581 0 
L 581 3500 
L 1159 3500 
L 1159 2956 
Q 1366 3272 1645 3428 
Q 1925 3584 2291 3584 
Q 2894 3584 3203 3211 
Q 3513 2838 3513 2113 
z
" transform="scale(0.015625)"/>
       <path id="DejaVuSans-56" d="M 2834 3397 
L 2834 2853 
Q 2591 2978 2328 3040 
Q 2066 3103 1784 3103 
Q 1356 3103 1142 2972 
Q 928 2841 928 2578 
Q 928 2378 1081 2264 
Q 1234 2150 1697 2047 
L 1894 2003 
Q 2506 1872 2764 1633 
Q 3022 1394 3022 966 
Q 3022 478 2636 193 
Q 2250 -91 1575 -91 
Q 1294 -91 989 -36 
Q 684 19 347 128 
L 347 722 
Q 666 556 975 473 
Q 1284 391 1588 391 
Q 1994 391 2212 530 
Q 2431 669 2431 922 
Q 2431 1156 2273 1281 
Q 2116 1406 1581 1522 
L 1381 1569 
Q 847 1681 609 1914 
Q 372 2147 372 2553 
Q 372 3047 722 3315 
Q 1072 3584 1716 3584 
Q 2034 3584 2315 3537 
Q 2597 3491 2834 3397 
z
" transform="scale(0.015625)"/>
       <path id="DejaVuSans-58" d="M 544 1381 
L 544 3500 
L 1119 3500 
L 1119 1403 
Q 1119 906 1312 657 
Q 1506 409 1894 409 
Q 2359 409 2629 706 
Q 2900 1003 2900 1516 
L 2900 3500 
L 3475 3500 
L 3475 0 
L 2900 0 
L 2900 538 
Q 2691 219 2414 64 
Q 2138 -91 1772 -91 
Q 1169 -91 856 284 
Q 544 659 544 1381 
z
M 1991 3584 
L 1991 3584 
z
" transform="scale(0.015625)"/>
       <path id="DejaVuSans-50" d="M 3328 2828 
Q 3544 3216 3844 3400 
Q 4144 3584 4550 3584 
Q 5097 3584 5394 3201 
Q 5691 2819 5691 2113 
L 5691 0 
L 5113 0 
L 5113 2094 
Q 5113 2597 4934 2840 
Q 4756 3084 4391 3084 
Q 3944 3084 3684 2787 
Q 3425 2491 3425 1978 
L 3425 0 
L 2847 0 
L 2847 2094 
Q 2847 2600 2669 2842 
Q 2491 3084 2119 3084 
Q 1678 3084 1418 2786 
Q 1159 2488 1159 1978 
L 1159 0 
L 581 0 
L 581 3500 
L 1159 3500 
L 1159 2956 
Q 1356 3278 1631 3431 
Q 1906 3584 2284 3584 
Q 2666 3584 2933 3390 
Q 3200 3197 3328 2828 
z
" transform="scale(0.015625)"/>
       <path id="DejaVuSans-48" d="M 3597 1894 
L 3597 1613 
L 953 1613 
Q 991 1019 1311 708 
Q 1631 397 2203 397 
Q 2534 397 2845 478 
Q 3156 559 3463 722 
L 3463 178 
Q 3153 47 2828 -22 
Q 2503 -91 2169 -91 
Q 1331 -91 842 396 
Q 353 884 353 1716 
Q 353 2575 817 3079 
Q 1281 3584 2069 3584 
Q 2775 3584 3186 3129 
Q 3597 2675 3597 1894 
z
M 3022 2063 
Q 3016 2534 2758 2815 
Q 2500 3097 2075 3097 
Q 1594 3097 1305 2825 
Q 1016 2553 972 2059 
L 3022 2063 
z
" transform="scale(0.015625)"/>
       <path id="DejaVuSans-55" d="M 2631 2963 
Q 2534 3019 2420 3045 
Q 2306 3072 2169 3072 
Q 1681 3072 1420 2755 
Q 1159 2438 1159 1844 
L 1159 0 
L 581 0 
L 581 3500 
L 1159 3500 
L 1159 2956 
Q 1341 3275 1631 3429 
Q 1922 3584 2338 3584 
Q 2397 3584 2469 3576 
Q 2541 3569 2628 3553 
L 2631 2963 
z
" transform="scale(0.015625)"/>
       <path id="DejaVuSans-3" transform="scale(0.015625)"/>
       <path id="DejaVuSans-53" d="M 1159 525 
L 1159 -1331 
L 581 -1331 
L 581 3500 
L 1159 3500 
L 1159 2969 
Q 1341 3281 1617 3432 
Q 1894 3584 2278 3584 
Q 2916 3584 3314 3078 
Q 3713 2572 3713 1747 
Q 3713 922 3314 415 
Q 2916 -91 2278 -91 
Q 1894 -91 1617 61 
Q 1341 213 1159 525 
z
M 3116 1747 
Q 3116 2381 2855 2742 
Q 2594 3103 2138 3103 
Q 1681 3103 1420 2742 
Q 1159 2381 1159 1747 
Q 1159 1113 1420 752 
Q 1681 391 2138 391 
Q 2594 391 2855 752 
Q 3116 1113 3116 1747 
z
" transform="scale(0.015625)"/>
       <path id="DejaVuSans-4c" d="M 603 3500 
L 1178 3500 
L 1178 0 
L 603 0 
L 603 3500 
z
M 603 4863 
L 1178 4863 
L 1178 4134 
L 603 4134 
L 603 4863 
z
" transform="scale(0.015625)"/>
       <path id="DejaVuSans-46" d="M 3122 3366 
L 3122 2828 
Q 2878 2963 2633 3030 
Q 2388 3097 2138 3097 
Q 1578 3097 1268 2742 
Q 959 2388 959 1747 
Q 959 1106 1268 751 
Q 1578 397 2138 397 
Q 2388 397 2633 464 
Q 2878 531 3122 666 
L 3122 134 
Q 2881 22 2623 -34 
Q 2366 -91 2075 -91 
Q 1284 -91 818 406 
Q 353 903 353 1747 
Q 353 2603 823 3093 
Q 1294 3584 2113 3584 
Q 2378 3584 2631 3529 
Q 2884 3475 3122 3366 
z
" transform="scale(0.015625)"/>
       <path id="DejaVuSans-47" d="M 2906 2969 
L 2906 4863 
L 3481 4863 
L 3481 0 
L 2906 0 
L 2906 525 
Q 2725 213 2448 61 
Q 2172 -91 1784 -91 
Q 1150 -91 751 415 
Q 353 922 353 1747 
Q 353 2572 751 3078 
Q 1150 3584 1784 3584 
Q 2172 3584 2448 3432 
Q 2725 3281 2906 2969 
z
M 947 1747 
Q 947 1113 1208 752 
Q 1469 391 1925 391 
Q 2381 391 2643 752 
Q 2906 1113 2906 1747 
Q 2906 2381 2643 2742 
Q 2381 3103 1925 3103 
Q 1469 3103 1208 2742 
Q 947 2381 947 1747 
z
" transform="scale(0.015625)"/>
       <path id="DejaVuSans-5b" d="M 3513 3500 
L 2247 1797 
L 3578 0 
L 2900 0 
L 1881 1375 
L 863 0 
L 184 0 
L 1544 1831 
L 300 3500 
L 978 3500 
L 1906 2253 
L 2834 3500 
L 3513 3500 
z
" transform="scale(0.015625)"/>
       <path id="DejaVuSans-b" d="M 1984 4856 
Q 1566 4138 1362 3434 
Q 1159 2731 1159 2009 
Q 1159 1288 1364 580 
Q 1569 -128 1984 -844 
L 1484 -844 
Q 1016 -109 783 600 
Q 550 1309 550 2009 
Q 550 2706 781 3412 
Q 1013 4119 1484 4856 
L 1984 4856 
z
" transform="scale(0.015625)"/>
       <path id="DejaVuSans-20" d="M 678 2906 
L 4684 2906 
L 4684 2381 
L 678 2381 
L 678 2906 
z
M 678 1631 
L 4684 1631 
L 4684 1100 
L 678 1100 
L 678 1631 
z
" transform="scale(0.015625)"/>
       <path id="DejaVuSans-c" d="M 513 4856 
L 1013 4856 
Q 1481 4119 1714 3412 
Q 1947 2706 1947 2009 
Q 1947 1309 1714 600 
Q 1481 -109 1013 -844 
L 513 -844 
Q 928 -128 1133 580 
Q 1338 1288 1338 2009 
Q 1338 2731 1133 3434 
Q 928 4138 513 4856 
z
" transform="scale(0.015625)"/>
      </defs>
      <use xlink:href="#DejaVuSans-26"/>
      <use xlink:href="#DejaVuSans-52" transform="translate(69.828125 0)"/>
      <use xlink:href="#DejaVuSans-51" transform="translate(131.015625 0)"/>
      <use xlink:href="#DejaVuSans-56" transform="translate(194.390625 0)"/>
      <use xlink:href="#DejaVuSans-58" transform="translate(246.484375 0)"/>
      <use xlink:href="#DejaVuSans-50" transform="translate(309.859375 0)"/>
      <use xlink:href="#DejaVuSans-48" transform="translate(407.265625 0)"/>
      <use xlink:href="#DejaVuSans-55" transform="translate(468.796875 0)"/>
      <use xlink:href="#DejaVuSans-3" transform="translate(509.90625 0)"/>
      <use xlink:href="#DejaVuSans-53" transform="translate(541.6875 0)"/>
      <use xlink:href="#DejaVuSans-55" transform="translate(605.171875 0)"/>
      <use xlink:href="#DejaVuSans-4c" transform="translate(646.28125 0)"/>
      <use xlink:href="#DejaVuSans-46" transform="translate(674.0625 0)"/>
      <use xlink:href="#DejaVuSans-48" transform="translate(729.046875 0)"/>
      <use xlink:href="#DejaVuSans-3" transform="translate(790.578125 0)"/>
      <use xlink:href="#DejaVuSans-4c" transform="translate(822.359375 0)"/>
      <use xlink:href="#DejaVuSans-51" transform="translate(850.140625 0)"/>
      <use xlink:href="#DejaVuSans-47" transform="translate(913.515625 0)"/>
      <use xlink:href="#DejaVuSans-48" transform="translate(977 0)"/>
      <use xlink:href="#DejaVuSans-5b" transform="translate(1036.78125 0)"/>
      <use xlink:href="#DejaVuSans-3" transform="translate(1095.96875 0)"/>
      <use xlink:href="#DejaVuSans-b" transform="translate(1127.75 0)"/>
      <use xlink:href="#DejaVuSans-15" transform="translate(1166.765625 0)"/>
      <use xlink:href="#DejaVuSans-13" transform="translate(1230.390625 0)"/>
      <use xlink:href="#DejaVuSans-15" transform="translate(1294.015625 0)"/>
      <use xlink:href="#DejaVuSans-13" transform="translate(1357.640625 0)"/>
      <use xlink:href="#DejaVuSans-20" transform="translate(1421.265625 0)"/>
      <use xlink:href="#DejaVuSans-14" transform="translate(1505.0625 0)"/>
      <use xlink:href="#DejaVuSans-13" transform="translate(1568.6875 0)"/>
      <use xlink:href="#DejaVuSans-13" transform="translate(1632.3125 0)"/>
      <use xlink:href="#DejaVuSans-c" transform="translate(1695.9375 0)"/>
     </g>
    </g>
   </g>
   <g id="matplotlib.axis_2">
    <g id="ytick_1">
     <g id="line2d_6">
      <defs>
       <path id="me5447194b1" d="M 0 0 
L -3.5 0 
" style="stroke: #000000; stroke-width: 0.8"/>
      </defs>
      <g>
       <use xlink:href="#me5447194b1" x="57.6" y="295.727111" style="stroke: #000000; stroke-width: 0.8"/>
      </g>
     </g>
     <g id="text_7">
      <!-- 20 -->
      <g transform="translate(37.875 299.525939) scale(0.1 -0.1)">
       <use xlink:href="#DejaVuSans-15"/>
       <use xlink:href="#DejaVuSans-13" transform="translate(63.625 0)"/>
      </g>
     </g>
    </g>
    <g id="ytick_2">
     <g id="line2d_7">
      <g>
       <use xlink:href="#me5447194b1" x="57.6" y="255.0782" style="stroke: #000000; stroke-width: 0.8"/>
      </g>
     </g>
     <g id="text_8">
      <!-- 25 -->
      <g transform="translate(37.875 258.877029) scale(0.1 -0.1)">
       <defs>
        <path id="DejaVuSans-18" d="M 691 4666 
L 3169 4666 
L 3169 4134 
L 1269 4134 
L 1269 2991 
Q 1406 3038 1543 3061 
Q 1681 3084 1819 3084 
Q 2600 3084 3056 2656 
Q 3513 2228 3513 1497 
Q 3513 744 3044 326 
Q 2575 -91 1722 -91 
Q 1428 -91 1123 -41 
Q 819 9 494 109 
L 494 744 
Q 775 591 1075 516 
Q 1375 441 1709 441 
Q 2250 441 2565 725 
Q 2881 1009 2881 1497 
Q 2881 1984 2565 2268 
Q 2250 2553 1709 2553 
Q 1456 2553 1204 2497 
Q 953 2441 691 2322 
L 691 4666 
z
" transform="scale(0.015625)"/>
       </defs>
       <use xlink:href="#DejaVuSans-15"/>
       <use xlink:href="#DejaVuSans-18" transform="translate(63.625 0)"/>
      </g>
     </g>
    </g>
    <g id="ytick_3">
     <g id="line2d_8">
      <g>
       <use xlink:href="#me5447194b1" x="57.6" y="214.42929" style="stroke: #000000; stroke-width: 0.8"/>
      </g>
     </g>
     <g id="text_9">
      <!-- 30 -->
      <g transform="translate(37.875 218.228118) scale(0.1 -0.1)">
       <defs>
        <path id="DejaVuSans-16" d="M 2597 2516 
Q 3050 2419 3304 2112 
Q 3559 1806 3559 1356 
Q 3559 666 3084 287 
Q 2609 -91 1734 -91 
Q 1441 -91 1130 -33 
Q 819 25 488 141 
L 488 750 
Q 750 597 1062 519 
Q 1375 441 1716 441 
Q 2309 441 2620 675 
Q 2931 909 2931 1356 
Q 2931 1769 2642 2001 
Q 2353 2234 1838 2234 
L 1294 2234 
L 1294 2753 
L 1863 2753 
Q 2328 2753 2575 2939 
Q 2822 3125 2822 3475 
Q 2822 3834 2567 4026 
Q 2313 4219 1838 4219 
Q 1578 4219 1281 4162 
Q 984 4106 628 3988 
L 628 4550 
Q 988 4650 1302 4700 
Q 1616 4750 1894 4750 
Q 2613 4750 3031 4423 
Q 3450 4097 3450 3541 
Q 3450 3153 3228 2886 
Q 3006 2619 2597 2516 
z
" transform="scale(0.015625)"/>
       </defs>
       <use xlink:href="#DejaVuSans-16"/>
       <use xlink:href="#DejaVuSans-13" transform="translate(63.625 0)"/>
      </g>
     </g>
    </g>
    <g id="ytick_4">
     <g id="line2d_9">
      <g>
       <use xlink:href="#me5447194b1" x="57.6" y="173.780379" style="stroke: #000000; stroke-width: 0.8"/>
      </g>
     </g>
     <g id="text_10">
      <!-- 35 -->
      <g transform="translate(37.875 177.579207) scale(0.1 -0.1)">
       <use xlink:href="#DejaVuSans-16"/>
       <use xlink:href="#DejaVuSans-18" transform="translate(63.625 0)"/>
      </g>
     </g>
    </g>
    <g id="ytick_5">
     <g id="line2d_10">
      <g>
       <use xlink:href="#me5447194b1" x="57.6" y="133.131468" style="stroke: #000000; stroke-width: 0.8"/>
      </g>
     </g>
     <g id="text_11">
      <!-- 40 -->
      <g transform="translate(37.875 136.930296) scale(0.1 -0.1)">
       <defs>
        <path id="DejaVuSans-17" d="M 2419 4116 
L 825 1625 
L 2419 1625 
L 2419 4116 
z
M 2253 4666 
L 3047 4666 
L 3047 1625 
L 3713 1625 
L 3713 1100 
L 3047 1100 
L 3047 0 
L 2419 0 
L 2419 1100 
L 313 1100 
L 313 1709 
L 2253 4666 
z
" transform="scale(0.015625)"/>
       </defs>
       <use xlink:href="#DejaVuSans-17"/>
       <use xlink:href="#DejaVuSans-13" transform="translate(63.625 0)"/>
      </g>
     </g>
    </g>
    <g id="ytick_6">
     <g id="line2d_11">
      <g>
       <use xlink:href="#me5447194b1" x="57.6" y="92.482557" style="stroke: #000000; stroke-width: 0.8"/>
      </g>
     </g>
     <g id="text_12">
      <!-- 45 -->
      <g transform="translate(37.875 96.281385) scale(0.1 -0.1)">
       <use xlink:href="#DejaVuSans-17"/>
       <use xlink:href="#DejaVuSans-18" transform="translate(63.625 0)"/>
      </g>
     </g>
    </g>
    <g id="ytick_7">
     <g id="line2d_12">
      <g>
       <use xlink:href="#me5447194b1" x="57.6" y="51.833646" style="stroke: #000000; stroke-width: 0.8"/>
      </g>
     </g>
     <g id="text_13">
      <!-- 50 -->
      <g transform="translate(37.875 55.632475) scale(0.1 -0.1)">
       <use xlink:href="#DejaVuSans-18"/>
       <use xlink:href="#DejaVuSans-13" transform="translate(63.625 0)"/>
      </g>
     </g>
    </g>
    <g id="text_14">
     <!-- Poll average (%) -->
     <g transform="translate(31.472656 215.503) rotate(-90) scale(0.1 -0.1)">
      <defs>
       <path id="DejaVuSans-33" d="M 1259 4147 
L 1259 2394 
L 2053 2394 
Q 2494 2394 2734 2622 
Q 2975 2850 2975 3272 
Q 2975 3691 2734 3919 
Q 2494 4147 2053 4147 
L 1259 4147 
z
M 628 4666 
L 2053 4666 
Q 2838 4666 3239 4311 
Q 3641 3956 3641 3272 
Q 3641 2581 3239 2228 
Q 2838 1875 2053 1875 
L 1259 1875 
L 1259 0 
L 628 0 
L 628 4666 
z
" transform="scale(0.015625)"/>
       <path id="DejaVuSans-4f" d="M 603 4863 
L 1178 4863 
L 1178 0 
L 603 0 
L 603 4863 
z
" transform="scale(0.015625)"/>
       <path id="DejaVuSans-44" d="M 2194 1759 
Q 1497 1759 1228 1600 
Q 959 1441 959 1056 
Q 959 750 1161 570 
Q 1363 391 1709 391 
Q 2188 391 2477 730 
Q 2766 1069 2766 1631 
L 2766 1759 
L 2194 1759 
z
M 3341 1997 
L 3341 0 
L 2766 0 
L 2766 531 
Q 2569 213 2275 61 
Q 1981 -91 1556 -91 
Q 1019 -91 701 211 
Q 384 513 384 1019 
Q 384 1609 779 1909 
Q 1175 2209 1959 2209 
L 2766 2209 
L 2766 2266 
Q 2766 2663 2505 2880 
Q 2244 3097 1772 3097 
Q 1472 3097 1187 3025 
Q 903 2953 641 2809 
L 641 3341 
Q 956 3463 1253 3523 
Q 1550 3584 1831 3584 
Q 2591 3584 2966 3190 
Q 3341 2797 3341 1997 
z
" transform="scale(0.015625)"/>
       <path id="DejaVuSans-59" d="M 191 3500 
L 800 3500 
L 1894 563 
L 2988 3500 
L 3597 3500 
L 2284 0 
L 1503 0 
L 191 3500 
z
" transform="scale(0.015625)"/>
       <path id="DejaVuSans-4a" d="M 2906 1791 
Q 2906 2416 2648 2759 
Q 2391 3103 1925 3103 
Q 1463 3103 1205 2759 
Q 947 2416 947 1791 
Q 947 1169 1205 825 
Q 1463 481 1925 481 
Q 2391 481 2648 825 
Q 2906 1169 2906 1791 
z
M 3481 434 
Q 3481 -459 3084 -895 
Q 2688 -1331 1869 -1331 
Q 1566 -1331 1297 -1286 
Q 1028 -1241 775 -1147 
L 775 -588 
Q 1028 -725 1275 -790 
Q 1522 -856 1778 -856 
Q 2344 -856 2625 -561 
Q 2906 -266 2906 331 
L 2906 616 
Q 2728 306 2450 153 
Q 2172 0 1784 0 
Q 1141 0 747 490 
Q 353 981 353 1791 
Q 353 2603 747 3093 
Q 1141 3584 1784 3584 
Q 2172 3584 2450 3431 
Q 2728 3278 2906 2969 
L 2906 3500 
L 3481 3500 
L 3481 434 
z
" transform="scale(0.015625)"/>
       <path id="DejaVuSans-8" d="M 4653 2053 
Q 4381 2053 4226 1822 
Q 4072 1591 4072 1178 
Q 4072 772 4226 539 
Q 4381 306 4653 306 
Q 4919 306 5073 539 
Q 5228 772 5228 1178 
Q 5228 1588 5073 1820 
Q 4919 2053 4653 2053 
z
M 4653 2450 
Q 5147 2450 5437 2106 
Q 5728 1763 5728 1178 
Q 5728 594 5436 251 
Q 5144 -91 4653 -91 
Q 4153 -91 3862 251 
Q 3572 594 3572 1178 
Q 3572 1766 3864 2108 
Q 4156 2450 4653 2450 
z
M 1428 4353 
Q 1159 4353 1004 4120 
Q 850 3888 850 3481 
Q 850 3069 1003 2837 
Q 1156 2606 1428 2606 
Q 1700 2606 1854 2837 
Q 2009 3069 2009 3481 
Q 2009 3884 1853 4118 
Q 1697 4353 1428 4353 
z
M 4250 4750 
L 4750 4750 
L 1831 -91 
L 1331 -91 
L 4250 4750 
z
M 1428 4750 
Q 1922 4750 2215 4408 
Q 2509 4066 2509 3481 
Q 2509 2891 2217 2550 
Q 1925 2209 1428 2209 
Q 931 2209 642 2551 
Q 353 2894 353 3481 
Q 353 4063 643 4406 
Q 934 4750 1428 4750 
z
" transform="scale(0.015625)"/>
      </defs>
      <use xlink:href="#DejaVuSans-33"/>
      <use xlink:href="#DejaVuSans-52" transform="translate(56.734375 0)"/>
      <use xlink:href="#DejaVuSans-4f" transform="translate(117.921875 0)"/>
      <use xlink:href="#DejaVuSans-4f" transform="translate(145.703125 0)"/>
      <use xlink:href="#DejaVuSans-3" transform="translate(173.484375 0)"/>
      <use xlink:href="#DejaVuSans-44" transform="translate(205.265625 0)"/>
      <use xlink:href="#DejaVuSans-59" transform="translate(266.546875 0)"/>
      <use xlink:href="#DejaVuSans-48" transform="translate(325.734375 0)"/>
      <use xlink:href="#DejaVuSans-55" transform="translate(387.265625 0)"/>
      <use xlink:href="#DejaVuSans-44" transform="translate(428.375 0)"/>
      <use xlink:href="#DejaVuSans-4a" transform="translate(489.65625 0)"/>
      <use xlink:href="#DejaVuSans-48" transform="translate(553.140625 0)"/>
      <use xlink:href="#DejaVuSans-3" transform="translate(614.671875 0)"/>
      <use xlink:href="#DejaVuSans-b" transform="translate(646.453125 0)"/>
      <use xlink:href="#DejaVuSans-8" transform="translate(685.46875 0)"/>
      <use xlink:href="#DejaVuSans-c" transform="translate(780.484375 0)"/>
     </g>
    </g>
   </g>
   <g id="line2d_13">
    <path d="M 73.832727 123.73731 
L 77.112066 125.050944 
L 80.391405 126.364578 
L 83.670744 127.678212 
L 86.950083 128.991846 
L 90.229421 130.30548 
L 93.50876 131.619114 
L 96.788099 132.932748 
L 100.067438 134.246382 
L 103.346777 135.560016 
L 106.626116 136.87365 
L 109.905455 138.187284 
L 113.184793 139.500918 
L 116.464132 140.814552 
L 119.743471 142.128186 
L 123.02281 143.44182 
L 126.302149 144.755454 
L 129.581488 146.069088 
L 132.860826 147.382722 
L 136.140165 148.696356 
L 139.419504 150.00999 
L 142.698843 151.323624 
L 145.978182 152.637258 
L 149.257521 153.950892 
L 152.53686 155.264526 
L 155.816198 156.57816 
L 159.095537 157.891794 
L 162.374876 159.205428 
L 165.654215 160.519062 
L 168.933554 161.832696 
L 172.212893 163.14633 
L 175.492231 164.459964 
L 178.77157 165.773598 
L 182.050909 167.087232 
L 185.330248 168.400866 
L 188.609587 169.7145 
L 191.888926 171.028134 
L 195.168264 172.341768 
L 198.447603 173.655402 
L 201.726942 174.969036 
L 205.006281 176.28267 
L 208.28562 177.596304 
L 211.564959 178.909938 
L 214.844298 180.223572 
L 218.123636 181.537206 
L 221.402975 182.85084 
L 224.682314 184.164474 
L 227.961653 185.478108 
L 231.240992 186.791742 
L 234.520331 188.105376 
L 237.799669 189.41901 
L 241.079008 190.732644 
L 244.358347 192.046278 
L 247.637686 193.359912 
L 250.917025 194.673546 
L 254.196364 195.98718 
L 257.475702 197.300814 
L 260.755041 198.614448 
L 264.03438 199.928082 
L 267.313719 201.241716 
L 270.593058 202.55535 
L 273.872397 203.868984 
L 277.151736 205.182618 
L 280.431074 206.496252 
L 283.710413 207.809886 
L 286.989752 209.12352 
L 290.269091 210.437154 
L 293.54843 211.750788 
L 296.827769 213.064422 
L 300.107107 214.378056 
L 303.386446 215.69169 
L 306.665785 217.005324 
L 309.945124 218.318958 
L 313.224463 219.632592 
L 316.503802 220.946226 
L 319.78314 222.25986 
L 323.062479 223.573494 
L 326.341818 224.887128 
L 329.621157 226.200762 
L 332.900496 227.514396 
L 336.179835 228.82803 
L 339.459174 230.141664 
L 342.738512 231.455298 
L 346.017851 232.768932 
L 349.29719 234.082566 
L 352.576529 235.3962 
L 355.855868 236.709834 
L 359.135207 238.023468 
L 362.414545 239.337102 
L 365.693884 240.650736 
L 368.973223 241.96437 
L 372.252562 243.278004 
L 375.531901 244.591638 
L 378.81124 245.905272 
L 382.090579 247.218906 
L 385.369917 248.53254 
L 388.649256 249.846174 
L 391.928595 251.159808 
L 395.207934 252.473442 
L 398.487273 253.787076 
" clip-path="url(#p817bf75b51)" style="fill: none; stroke: #ff0000; stroke-opacity: 0.9; stroke-width: 2; stroke-linecap: square"/>
   </g>
   <g id="patch_3">
    <path d="M 57.6 307.584 
L 57.6 41.472 
" style="fill: none; stroke: #000000; stroke-width: 0.8; stroke-linejoin: miter; stroke-linecap: square"/>
   </g>
   <g id="patch_4">
    <path d="M 57.6 307.584 
L 414.72 307.584 
" style="fill: none; stroke: #000000; stroke-width: 0.8; stroke-linejoin: miter; stroke-linecap: square"/>
   </g>
   <g id="text_15">
    <!-- CDU/CSU vs CPI (r=-0.71) -->
    <g transform="translate(158.8725 35.472) scale(0.12 -0.12)">
     <defs>
      <path id="DejaVuSans-27" d="M 1259 4147 
L 1259 519 
L 2022 519 
Q 2988 519 3436 956 
Q 3884 1394 3884 2338 
Q 3884 3275 3436 3711 
Q 2988 4147 2022 4147 
L 1259 4147 
z
M 628 4666 
L 1925 4666 
Q 3281 4666 3915 4102 
Q 4550 3538 4550 2338 
Q 4550 1131 3912 565 
Q 3275 0 1925 0 
L 628 0 
L 628 4666 
z
" transform="scale(0.015625)"/>
      <path id="DejaVuSans-38" d="M 556 4666 
L 1191 4666 
L 1191 1831 
Q 1191 1081 1462 751 
Q 1734 422 2344 422 
Q 2950 422 3222 751 
Q 3494 1081 3494 1831 
L 3494 4666 
L 4128 4666 
L 4128 1753 
Q 4128 841 3676 375 
Q 3225 -91 2344 -91 
Q 1459 -91 1007 375 
Q 556 841 556 1753 
L 556 4666 
z
" transform="scale(0.015625)"/>
      <path id="DejaVuSans-12" d="M 1625 4666 
L 2156 4666 
L 531 -594 
L 0 -594 
L 1625 4666 
z
" transform="scale(0.015625)"/>
      <path id="DejaVuSans-36" d="M 3425 4513 
L 3425 3897 
Q 3066 4069 2747 4153 
Q 2428 4238 2131 4238 
Q 1616 4238 1336 4038 
Q 1056 3838 1056 3469 
Q 1056 3159 1242 3001 
Q 1428 2844 1947 2747 
L 2328 2669 
Q 3034 2534 3370 2195 
Q 3706 1856 3706 1288 
Q 3706 609 3251 259 
Q 2797 -91 1919 -91 
Q 1588 -91 1214 -16 
Q 841 59 441 206 
L 441 856 
Q 825 641 1194 531 
Q 1563 422 1919 422 
Q 2459 422 2753 634 
Q 3047 847 3047 1241 
Q 3047 1584 2836 1778 
Q 2625 1972 2144 2069 
L 1759 2144 
Q 1053 2284 737 2584 
Q 422 2884 422 3419 
Q 422 4038 858 4394 
Q 1294 4750 2059 4750 
Q 2388 4750 2728 4690 
Q 3069 4631 3425 4513 
z
" transform="scale(0.015625)"/>
      <path id="DejaVuSans-2c" d="M 628 4666 
L 1259 4666 
L 1259 0 
L 628 0 
L 628 4666 
z
" transform="scale(0.015625)"/>
      <path id="DejaVuSans-10" d="M 313 2009 
L 1997 2009 
L 1997 1497 
L 313 1497 
L 313 2009 
z
" transform="scale(0.015625)"/>
      <path id="DejaVuSans-11" d="M 684 794 
L 1344 794 
L 1344 0 
L 684 0 
L 684 794 
z
" transform="scale(0.015625)"/>
      <path id="DejaVuSans-1a" d="M 525 4666 
L 3525 4666 
L 3525 4397 
L 1831 0 
L 1172 0 
L 2766 4134 
L 525 4134 
L 525 4666 
z
" transform="scale(0.015625)"/>
     </defs>
     <use xlink:href="#DejaVuSans-26"/>
     <use xlink:href="#DejaVuSans-27" transform="translate(69.828125 0)"/>
     <use xlink:href="#DejaVuSans-38" transform="translate(146.828125 0)"/>
     <use xlink:href="#DejaVuSans-12" transform="translate(220.015625 0)"/>
     <use xlink:href="#DejaVuSans-26" transform="translate(253.703125 0)"/>
     <use xlink:href="#DejaVuSans-36" transform="translate(323.53125 0)"/>
     <use xlink:href="#DejaVuSans-38" transform="translate(387.015625 0)"/>
     <use xlink:href="#DejaVuSans-3" transform="translate(460.203125 0)"/>
     <use xlink:href="#DejaVuSans-59" transform="translate(491.984375 0)"/>
     <use xlink:href="#DejaVuSans-56" transform="translate(551.171875 0)"/>
     <use xlink:href="#DejaVuSans-3" transform="translate(603.265625 0)"/>
     <use xlink:href="#DejaVuSans-26" transform="translate(635.046875 0)"/>
     <use xlink:href="#DejaVuSans-33" transform="translate(704.875 0)"/>
     <use xlink:href="#DejaVuSans-2c" transform="translate(765.171875 0)"/>
     <use xlink:href="#DejaVuSans-3" transform="translate(794.671875 0)"/>
     <use xlink:href="#DejaVuSans-b" transform="translate(826.453125 0)"/>
     <use xlink:href="#DejaVuSans-55" transform="translate(865.46875 0)"/>
     <use xlink:href="#DejaVuSans-20" transform="translate(906.578125 0)"/>
     <use xlink:href="#DejaVuSans-10" transform="translate(990.375 0)"/>
     <use xlink:href="#DejaVuSans-13" transform="translate(1026.453125 0)"/>
     <use xlink:href="#DejaVuSans-11" transform="translate(1090.078125 0)"/>
     <use xlink:href="#DejaVuSans-1a" transform="translate(1121.859375 0)"/>
     <use xlink:href="#DejaVuSans-14" transform="translate(1185.484375 0)"/>
     <use xlink:href="#DejaVuSans-c" transform="translate(1249.109375 0)"/>
    </g>
   </g>
  </g>
 </g>
 <defs>
  <clipPath id="p817bf75b51">
   <rect x="57.6" y="41.472" width="357.12" height="266.112"/>
  </clipPath>
 </defs>
</svg>
