<?xml version="1.0" encoding="utf-8" standalone="no"?>
<!DOCTYPE svg PUBLIC "-//W3C//DTD SVG 1.1//EN"
  "http://www.w3.org/Graphics/SVG/1.1/DTD/svg11.dtd">
<svg xmlns:xlink="http://www.w3.org/1999/xlink" width="648pt" height="432pt" viewBox="0 0 648 432" xmlns="http://www.w3.org/2000/svg" version="1.1">
 <metadata>
  <rdf:RDF xmlns:dc="http://purl.org/dc/elements/1.1/" xmlns:cc="http://creativecommons.org/ns#" xmlns:rdf="http://www.w3.org/1999/02/22-rdf-syntax-ns#">
   <cc:Work>
    <dc:type rdf:resource="http://purl.org/dc/dcmitype/StillImage"/>
    <dc:date>2026-02-09T12:19:34.170940</dc:date>
    <dc:format>image/svg+xml</dc:format>
    <dc:creator>
     <cc:Agent>
      <dc:title>Matplotlib v3.10.3, https://matplotlib.org/</dc:title>
     </cc:Agent>
    </dc:creator>
   </cc:Work>
  </rdf:RDF>
 </metadata>
 <defs>
  <style type="text/css">*{stroke-linejoin: round; stroke-linecap: butt}</style>
 </defs>
 <g id="figure_1">
  <g id="patch_1">
   <path d="M 0 432 
L 648 432 
L 648 0 
L 0 0 
z
" style="fill: #ffffff"/>
  </g>
  <g id="axes_1">
   <g id="patch_2">
    <path d="M 43.09 298.70449 
L 637.2 298.70449 
L 637.2 38.4 
L 43.09 38.4 
z
" style="fill: #ffffff"/>
   </g>
   <g id="patch_3">
    <path d="M 46.390611 298.70449 
L 72.7955 298.70449 
L 72.7955 50.795452 
L 46.390611 50.795452 
z
" clip-path="url(#p365fd98f58)" style="fill: #3274a1; stroke: #ffffff; stroke-width: 0.5; stroke-linejoin: miter"/>
   </g>
   <g id="patch_4">
    <path d="M 79.396722 298.70449 
L 105.801611 298.70449 
L 105.801611 281.088599 
L 79.396722 281.088599 
z
" clip-path="url(#p365fd98f58)" style="fill: #3274a1; stroke: #ffffff; stroke-width: 0.5; stroke-linejoin: miter"/>
   </g>
   <g id="patch_5">
    <path d="M 112.402833 298.70449 
L 138.807722 298.70449 
L 138.807722 285.64102 
L 112.402833 285.64102 
z
" clip-path="url(#p365fd98f58)" style="fill: #3274a1; stroke: #ffffff; stroke-width: 0.5; stroke-linejoin: miter"/>
   </g>
   <g id="patch_6">
    <path d="M 145.408944 298.70449 
L 171.813833 298.70449 
L 171.813833 289.500682 
L 145.408944 289.500682 
z
" clip-path="url(#p365fd98f58)" style="fill: #3274a1; stroke: #ffffff; stroke-width: 0.5; stroke-linejoin: miter"/>
   </g>
   <g id="patch_7">
    <path d="M 178.415056 298.70449 
L 204.819944 298.70449 
L 204.819944 289.599647 
L 178.415056 289.599647 
z
" clip-path="url(#p365fd98f58)" style="fill: #3274a1; stroke: #ffffff; stroke-width: 0.5; stroke-linejoin: miter"/>
   </g>
   <g id="patch_8">
    <path d="M 211.421167 298.70449 
L 237.826056 298.70449 
L 237.826056 291.282064 
L 211.421167 291.282064 
z
" clip-path="url(#p365fd98f58)" style="fill: #3274a1; stroke: #ffffff; stroke-width: 0.5; stroke-linejoin: miter"/>
   </g>
   <g id="patch_9">
    <path d="M 244.427278 298.70449 
L 270.832167 298.70449 
L 270.832167 291.479995 
L 244.427278 291.479995 
z
" clip-path="url(#p365fd98f58)" style="fill: #3274a1; stroke: #ffffff; stroke-width: 0.5; stroke-linejoin: miter"/>
   </g>
   <g id="patch_10">
    <path d="M 277.433389 298.70449 
L 303.838278 298.70449 
L 303.838278 291.578961 
L 277.433389 291.578961 
z
" clip-path="url(#p365fd98f58)" style="fill: #3274a1; stroke: #ffffff; stroke-width: 0.5; stroke-linejoin: miter"/>
   </g>
   <g id="patch_11">
    <path d="M 310.4395 298.70449 
L 336.844389 298.70449 
L 336.844389 291.875858 
L 310.4395 291.875858 
z
" clip-path="url(#p365fd98f58)" style="fill: #3274a1; stroke: #ffffff; stroke-width: 0.5; stroke-linejoin: miter"/>
   </g>
   <g id="patch_12">
    <path d="M 343.445611 298.70449 
L 369.8505 298.70449 
L 369.8505 291.974824 
L 343.445611 291.974824 
z
" clip-path="url(#p365fd98f58)" style="fill: #3274a1; stroke: #ffffff; stroke-width: 0.5; stroke-linejoin: miter"/>
   </g>
   <g id="patch_13">
    <path d="M 376.451722 298.70449 
L 402.856611 298.70449 
L 402.856611 292.865515 
L 376.451722 292.865515 
z
" clip-path="url(#p365fd98f58)" style="fill: #3274a1; stroke: #ffffff; stroke-width: 0.5; stroke-linejoin: miter"/>
   </g>
   <g id="patch_14">
    <path d="M 409.457833 298.70449 
L 435.862722 298.70449 
L 435.862722 293.558275 
L 409.457833 293.558275 
z
" clip-path="url(#p365fd98f58)" style="fill: #3274a1; stroke: #ffffff; stroke-width: 0.5; stroke-linejoin: miter"/>
   </g>
   <g id="patch_15">
    <path d="M 442.463944 298.70449 
L 468.868833 298.70449 
L 468.868833 293.756206 
L 442.463944 293.756206 
z
" clip-path="url(#p365fd98f58)" style="fill: #3274a1; stroke: #ffffff; stroke-width: 0.5; stroke-linejoin: miter"/>
   </g>
   <g id="patch_16">
    <path d="M 475.470056 298.70449 
L 501.874944 298.70449 
L 501.874944 294.448966 
L 475.470056 294.448966 
z
" clip-path="url(#p365fd98f58)" style="fill: #3274a1; stroke: #ffffff; stroke-width: 0.5; stroke-linejoin: miter"/>
   </g>
   <g id="patch_17">
    <path d="M 508.476167 298.70449 
L 534.881056 298.70449 
L 534.881056 294.646897 
L 508.476167 294.646897 
z
" clip-path="url(#p365fd98f58)" style="fill: #3274a1; stroke: #ffffff; stroke-width: 0.5; stroke-linejoin: miter"/>
   </g>
   <g id="patch_18">
    <path d="M 541.482278 298.70449 
L 567.887167 298.70449 
L 567.887167 295.339657 
L 541.482278 295.339657 
z
" clip-path="url(#p365fd98f58)" style="fill: #3274a1; stroke: #ffffff; stroke-width: 0.5; stroke-linejoin: miter"/>
   </g>
   <g id="patch_19">
    <path d="M 574.488389 298.70449 
L 600.893278 298.70449 
L 600.893278 295.537589 
L 574.488389 295.537589 
z
" clip-path="url(#p365fd98f58)" style="fill: #3274a1; stroke: #ffffff; stroke-width: 0.5; stroke-linejoin: miter"/>
   </g>
   <g id="patch_20">
    <path d="M 607.4945 298.70449 
L 633.899389 298.70449 
L 633.899389 295.537589 
L 607.4945 295.537589 
z
" clip-path="url(#p365fd98f58)" style="fill: #3274a1; stroke: #ffffff; stroke-width: 0.5; stroke-linejoin: miter"/>
   </g>
   <g id="matplotlib.axis_1">
    <g id="xtick_1">
     <g id="line2d_1">
      <defs>
       <path id="mfcc4a0055b" d="M 0 0 
L 0 3.5 
" style="stroke: #000000; stroke-width: 0.8"/>
      </defs>
      <g>
       <use xlink:href="#mfcc4a0055b" x="59.593056" y="298.70449" style="stroke: #000000; stroke-width: 0.8"/>
      </g>
     </g>
     <g id="text_1">
      <!-- bundestag -->
      <g transform="translate(20.553027 348.646864) rotate(-45) scale(0.1 -0.1)">
       <defs>
        <path id="DejaVuSans-62" d="M 3116 1747 
Q 3116 2381 2855 2742 
Q 2594 3103 2138 3103 
Q 1681 3103 1420 2742 
Q 1159 2381 1159 1747 
Q 1159 1113 1420 752 
Q 1681 391 2138 391 
Q 2594 391 2855 752 
Q 3116 1113 3116 1747 
z
M 1159 2969 
Q 1341 3281 1617 3432 
Q 1894 3584 2278 3584 
Q 2916 3584 3314 3078 
Q 3713 2572 3713 1747 
Q 3713 922 3314 415 
Q 2916 -91 2278 -91 
Q 1894 -91 1617 61 
Q 1341 213 1159 525 
L 1159 0 
L 581 0 
L 581 4863 
L 1159 4863 
L 1159 2969 
z
" transform="scale(0.015625)"/>
        <path id="DejaVuSans-75" d="M 544 1381 
L 544 3500 
L 1119 3500 
L 1119 1403 
Q 1119 906 1312 657 
Q 1506 409 1894 409 
Q 2359 409 2629 706 
Q 2900 1003 2900 1516 
L 2900 3500 
L 3475 3500 
L 3475 0 
L 2900 0 
L 2900 538 
Q 2691 219 2414 64 
Q 2138 -91 1772 -91 
Q 1169 -91 856 284 
Q 544 659 544 1381 
z
M 1991 3584 
L 1991 3584 
z
" transform="scale(0.015625)"/>
        <path id="DejaVuSans-6e" d="M 3513 2113 
L 3513 0 
L 2938 0 
L 2938 2094 
Q 2938 2591 2744 2837 
Q 2550 3084 2163 3084 
Q 1697 3084 1428 2787 
Q 1159 2491 1159 1978 
L 1159 0 
L 581 0 
L 581 3500 
L 1159 3500 
L 1159 2956 
Q 1366 3272 1645 3428 
Q 1925 3584 2291 3584 
Q 2894 3584 3203 3211 
Q 3513 2838 3513 2113 
z
" transform="scale(0.015625)"/>
        <path id="DejaVuSans-64" d="M 2906 2969 
L 2906 4863 
L 3481 4863 
L 3481 0 
L 2906 0 
L 2906 525 
Q 2725 213 2448 61 
Q 2172 -91 1784 -91 
Q 1150 -91 751 415 
Q 353 922 353 1747 
Q 353 2572 751 3078 
Q 1150 3584 1784 3584 
Q 2172 3584 2448 3432 
Q 2725 3281 2906 2969 
z
M 947 1747 
Q 947 1113 1208 752 
Q 1469 391 1925 391 
Q 2381 391 2643 752 
Q 2906 1113 2906 1747 
Q 2906 2381 2643 2742 
Q 2381 3103 1925 3103 
Q 1469 3103 1208 2742 
Q 947 2381 947 1747 
z
" transform="scale(0.015625)"/>
        <path id="DejaVuSans-65" d="M 3597 1894 
L 3597 1613 
L 953 1613 
Q 991 1019 1311 708 
Q 1631 397 2203 397 
Q 2534 397 2845 478 
Q 3156 559 3463 722 
L 3463 178 
Q 3153 47 2828 -22 
Q 2503 -91 2169 -91 
Q 1331 -91 842 396 
Q 353 884 353 1716 
Q 353 2575 817 3079 
Q 1281 3584 2069 3584 
Q 2775 3584 3186 3129 
Q 3597 2675 3597 1894 
z
M 3022 2063 
Q 3016 2534 2758 2815 
Q 2500 3097 2075 3097 
Q 1594 3097 1305 2825 
Q 1016 2553 972 2059 
L 3022 2063 
z
" transform="scale(0.015625)"/>
        <path id="DejaVuSans-73" d="M 2834 3397 
L 2834 2853 
Q 2591 2978 2328 3040 
Q 2066 3103 1784 3103 
Q 1356 3103 1142 2972 
Q 928 2841 928 2578 
Q 928 2378 1081 2264 
Q 1234 2150 1697 2047 
L 1894 2003 
Q 2506 1872 2764 1633 
Q 3022 1394 3022 966 
Q 3022 478 2636 193 
Q 2250 -91 1575 -91 
Q 1294 -91 989 -36 
Q 684 19 347 128 
L 347 722 
Q 666 556 975 473 
Q 1284 391 1588 391 
Q 1994 391 2212 530 
Q 2431 669 2431 922 
Q 2431 1156 2273 1281 
Q 2116 1406 1581 1522 
L 1381 1569 
Q 847 1681 609 1914 
Q 372 2147 372 2553 
Q 372 3047 722 3315 
Q 1072 3584 1716 3584 
Q 2034 3584 2315 3537 
Q 2597 3491 2834 3397 
z
" transform="scale(0.015625)"/>
        <path id="DejaVuSans-74" d="M 1172 4494 
L 1172 3500 
L 2356 3500 
L 2356 3053 
L 1172 3053 
L 1172 1153 
Q 1172 725 1289 603 
Q 1406 481 1766 481 
L 2356 481 
L 2356 0 
L 1766 0 
Q 1100 0 847 248 
Q 594 497 594 1153 
L 594 3053 
L 172 3053 
L 172 3500 
L 594 3500 
L 594 4494 
L 1172 4494 
z
" transform="scale(0.015625)"/>
        <path id="DejaVuSans-61" d="M 2194 1759 
Q 1497 1759 1228 1600 
Q 959 1441 959 1056 
Q 959 750 1161 570 
Q 1363 391 1709 391 
Q 2188 391 2477 730 
Q 2766 1069 2766 1631 
L 2766 1759 
L 2194 1759 
z
M 3341 1997 
L 3341 0 
L 2766 0 
L 2766 531 
Q 2569 213 2275 61 
Q 1981 -91 1556 -91 
Q 1019 -91 701 211 
Q 384 513 384 1019 
Q 384 1609 779 1909 
Q 1175 2209 1959 2209 
L 2766 2209 
L 2766 2266 
Q 2766 2663 2505 2880 
Q 2244 3097 1772 3097 
Q 1472 3097 1187 3025 
Q 903 2953 641 2809 
L 641 3341 
Q 956 3463 1253 3523 
Q 1550 3584 1831 3584 
Q 2591 3584 2966 3190 
Q 3341 2797 3341 1997 
z
" transform="scale(0.015625)"/>
        <path id="DejaVuSans-67" d="M 2906 1791 
Q 2906 2416 2648 2759 
Q 2391 3103 1925 3103 
Q 1463 3103 1205 2759 
Q 947 2416 947 1791 
Q 947 1169 1205 825 
Q 1463 481 1925 481 
Q 2391 481 2648 825 
Q 2906 1169 2906 1791 
z
M 3481 434 
Q 3481 -459 3084 -895 
Q 2688 -1331 1869 -1331 
Q 1566 -1331 1297 -1286 
Q 1028 -1241 775 -1147 
L 775 -588 
Q 1028 -725 1275 -790 
Q 1522 -856 1778 -856 
Q 2344 -856 2625 -561 
Q 2906 -266 2906 331 
L 2906 616 
Q 2728 306 2450 153 
Q 2172 0 1784 0 
Q 1141 0 747 490 
Q 353 981 353 1791 
Q 353 2603 747 3093 
Q 1141 3584 1784 3584 
Q 2172 3584 2450 3431 
Q 2728 3278 2906 2969 
L 2906 3500 
L 3481 3500 
L 3481 434 
z
" transform="scale(0.015625)"/>
       </defs>
       <use xlink:href="#DejaVuSans-62"/>
       <use xlink:href="#DejaVuSans-75" transform="translate(63.476562 0)"/>
       <use xlink:href="#DejaVuSans-6e" transform="translate(126.855469 0)"/>
       <use xlink:href="#DejaVuSans-64" transform="translate(190.234375 0)"/>
       <use xlink:href="#DejaVuSans-65" transform="translate(253.710938 0)"/>
       <use xlink:href="#DejaVuSans-73" transform="translate(315.234375 0)"/>
       <use xlink:href="#DejaVuSans-74" transform="translate(367.333984 0)"/>
       <use xlink:href="#DejaVuSans-61" transform="translate(406.542969 0)"/>
       <use xlink:href="#DejaVuSans-67" transform="translate(467.822266 0)"/>
      </g>
     </g>
    </g>
    <g id="xtick_2">
     <g id="line2d_2">
      <g>
       <use xlink:href="#mfcc4a0055b" x="92.599167" y="298.70449" style="stroke: #000000; stroke-width: 0.8"/>
      </g>
     </g>
     <g id="text_2">
      <!-- bayern -->
      <g transform="translate(66.505822 335.700181) rotate(-45) scale(0.1 -0.1)">
       <defs>
        <path id="DejaVuSans-79" d="M 2059 -325 
Q 1816 -950 1584 -1140 
Q 1353 -1331 966 -1331 
L 506 -1331 
L 506 -850 
L 844 -850 
Q 1081 -850 1212 -737 
Q 1344 -625 1503 -206 
L 1606 56 
L 191 3500 
L 800 3500 
L 1894 763 
L 2988 3500 
L 3597 3500 
L 2059 -325 
z
" transform="scale(0.015625)"/>
        <path id="DejaVuSans-72" d="M 2631 2963 
Q 2534 3019 2420 3045 
Q 2306 3072 2169 3072 
Q 1681 3072 1420 2755 
Q 1159 2438 1159 1844 
L 1159 0 
L 581 0 
L 581 3500 
L 1159 3500 
L 1159 2956 
Q 1341 3275 1631 3429 
Q 1922 3584 2338 3584 
Q 2397 3584 2469 3576 
Q 2541 3569 2628 3553 
L 2631 2963 
z
" transform="scale(0.015625)"/>
       </defs>
       <use xlink:href="#DejaVuSans-62"/>
       <use xlink:href="#DejaVuSans-61" transform="translate(63.476562 0)"/>
       <use xlink:href="#DejaVuSans-79" transform="translate(124.755859 0)"/>
       <use xlink:href="#DejaVuSans-65" transform="translate(183.935547 0)"/>
       <use xlink:href="#DejaVuSans-72" transform="translate(245.458984 0)"/>
       <use xlink:href="#DejaVuSans-6e" transform="translate(284.822266 0)"/>
      </g>
     </g>
    </g>
    <g id="xtick_3">
     <g id="line2d_3">
      <g>
       <use xlink:href="#mfcc4a0055b" x="125.605278" y="298.70449" style="stroke: #000000; stroke-width: 0.8"/>
      </g>
     </g>
     <g id="text_3">
      <!-- berlin -->
      <g transform="translate(103.977754 331.23436) rotate(-45) scale(0.1 -0.1)">
       <defs>
        <path id="DejaVuSans-6c" d="M 603 4863 
L 1178 4863 
L 1178 0 
L 603 0 
L 603 4863 
z
" transform="scale(0.015625)"/>
        <path id="DejaVuSans-69" d="M 603 3500 
L 1178 3500 
L 1178 0 
L 603 0 
L 603 3500 
z
M 603 4863 
L 1178 4863 
L 1178 4134 
L 603 4134 
L 603 4863 
z
" transform="scale(0.015625)"/>
       </defs>
       <use xlink:href="#DejaVuSans-62"/>
       <use xlink:href="#DejaVuSans-65" transform="translate(63.476562 0)"/>
       <use xlink:href="#DejaVuSans-72" transform="translate(125 0)"/>
       <use xlink:href="#DejaVuSans-6c" transform="translate(166.113281 0)"/>
       <use xlink:href="#DejaVuSans-69" transform="translate(193.896484 0)"/>
       <use xlink:href="#DejaVuSans-6e" transform="translate(221.679688 0)"/>
      </g>
     </g>
    </g>
    <g id="xtick_4">
     <g id="line2d_4">
      <g>
       <use xlink:href="#mfcc4a0055b" x="158.611389" y="298.70449" style="stroke: #000000; stroke-width: 0.8"/>
      </g>
     </g>
     <g id="text_4">
      <!-- nordrhein-westfalen-nrw -->
      <g transform="translate(70.518037 397.700187) rotate(-45) scale(0.1 -0.1)">
       <defs>
        <path id="DejaVuSans-6f" d="M 1959 3097 
Q 1497 3097 1228 2736 
Q 959 2375 959 1747 
Q 959 1119 1226 758 
Q 1494 397 1959 397 
Q 2419 397 2687 759 
Q 2956 1122 2956 1747 
Q 2956 2369 2687 2733 
Q 2419 3097 1959 3097 
z
M 1959 3584 
Q 2709 3584 3137 3096 
Q 3566 2609 3566 1747 
Q 3566 888 3137 398 
Q 2709 -91 1959 -91 
Q 1206 -91 779 398 
Q 353 888 353 1747 
Q 353 2609 779 3096 
Q 1206 3584 1959 3584 
z
" transform="scale(0.015625)"/>
        <path id="DejaVuSans-68" d="M 3513 2113 
L 3513 0 
L 2938 0 
L 2938 2094 
Q 2938 2591 2744 2837 
Q 2550 3084 2163 3084 
Q 1697 3084 1428 2787 
Q 1159 2491 1159 1978 
L 1159 0 
L 581 0 
L 581 4863 
L 1159 4863 
L 1159 2956 
Q 1366 3272 1645 3428 
Q 1925 3584 2291 3584 
Q 2894 3584 3203 3211 
Q 3513 2838 3513 2113 
z
" transform="scale(0.015625)"/>
        <path id="DejaVuSans-2d" d="M 313 2009 
L 1997 2009 
L 1997 1497 
L 313 1497 
L 313 2009 
z
" transform="scale(0.015625)"/>
        <path id="DejaVuSans-77" d="M 269 3500 
L 844 3500 
L 1563 769 
L 2278 3500 
L 2956 3500 
L 3675 769 
L 4391 3500 
L 4966 3500 
L 4050 0 
L 3372 0 
L 2619 2869 
L 1863 0 
L 1184 0 
L 269 3500 
z
" transform="scale(0.015625)"/>
        <path id="DejaVuSans-66" d="M 2375 4863 
L 2375 4384 
L 1825 4384 
Q 1516 4384 1395 4259 
Q 1275 4134 1275 3809 
L 1275 3500 
L 2222 3500 
L 2222 3053 
L 1275 3053 
L 1275 0 
L 697 0 
L 697 3053 
L 147 3053 
L 147 3500 
L 697 3500 
L 697 3744 
Q 697 4328 969 4595 
Q 1241 4863 1831 4863 
L 2375 4863 
z
" transform="scale(0.015625)"/>
       </defs>
       <use xlink:href="#DejaVuSans-6e"/>
       <use xlink:href="#DejaVuSans-6f" transform="translate(63.378906 0)"/>
       <use xlink:href="#DejaVuSans-72" transform="translate(124.560547 0)"/>
       <use xlink:href="#DejaVuSans-64" transform="translate(163.923828 0)"/>
       <use xlink:href="#DejaVuSans-72" transform="translate(227.400391 0)"/>
       <use xlink:href="#DejaVuSans-68" transform="translate(266.763672 0)"/>
       <use xlink:href="#DejaVuSans-65" transform="translate(330.142578 0)"/>
       <use xlink:href="#DejaVuSans-69" transform="translate(391.666016 0)"/>
       <use xlink:href="#DejaVuSans-6e" transform="translate(419.449219 0)"/>
       <use xlink:href="#DejaVuSans-2d" transform="translate(482.828125 0)"/>
       <use xlink:href="#DejaVuSans-77" transform="translate(518.912109 0)"/>
       <use xlink:href="#DejaVuSans-65" transform="translate(600.699219 0)"/>
       <use xlink:href="#DejaVuSans-73" transform="translate(662.222656 0)"/>
       <use xlink:href="#DejaVuSans-74" transform="translate(714.322266 0)"/>
       <use xlink:href="#DejaVuSans-66" transform="translate(753.53125 0)"/>
       <use xlink:href="#DejaVuSans-61" transform="translate(788.736328 0)"/>
       <use xlink:href="#DejaVuSans-6c" transform="translate(850.015625 0)"/>
       <use xlink:href="#DejaVuSans-65" transform="translate(877.798828 0)"/>
       <use xlink:href="#DejaVuSans-6e" transform="translate(939.322266 0)"/>
       <use xlink:href="#DejaVuSans-2d" transform="translate(1002.701172 0)"/>
       <use xlink:href="#DejaVuSans-6e" transform="translate(1038.785156 0)"/>
       <use xlink:href="#DejaVuSans-72" transform="translate(1102.164062 0)"/>
       <use xlink:href="#DejaVuSans-77" transform="translate(1143.277344 0)"/>
      </g>
     </g>
    </g>
    <g id="xtick_5">
     <g id="line2d_5">
      <g>
       <use xlink:href="#mfcc4a0055b" x="191.6175" y="298.70449" style="stroke: #000000; stroke-width: 0.8"/>
      </g>
     </g>
     <g id="text_5">
      <!-- thueringen -->
      <g transform="translate(151.387544 349.836792) rotate(-45) scale(0.1 -0.1)">
       <use xlink:href="#DejaVuSans-74"/>
       <use xlink:href="#DejaVuSans-68" transform="translate(39.208984 0)"/>
       <use xlink:href="#DejaVuSans-75" transform="translate(102.587891 0)"/>
       <use xlink:href="#DejaVuSans-65" transform="translate(165.966797 0)"/>
       <use xlink:href="#DejaVuSans-72" transform="translate(227.490234 0)"/>
       <use xlink:href="#DejaVuSans-69" transform="translate(268.603516 0)"/>
       <use xlink:href="#DejaVuSans-6e" transform="translate(296.386719 0)"/>
       <use xlink:href="#DejaVuSans-67" transform="translate(359.765625 0)"/>
       <use xlink:href="#DejaVuSans-65" transform="translate(423.242188 0)"/>
       <use xlink:href="#DejaVuSans-6e" transform="translate(484.765625 0)"/>
      </g>
     </g>
    </g>
    <g id="xtick_6">
     <g id="line2d_6">
      <g>
       <use xlink:href="#mfcc4a0055b" x="224.623611" y="298.70449" style="stroke: #000000; stroke-width: 0.8"/>
      </g>
     </g>
     <g id="text_6">
      <!-- brandenburg -->
      <g transform="translate(177.378934 356.851513) rotate(-45) scale(0.1 -0.1)">
       <use xlink:href="#DejaVuSans-62"/>
       <use xlink:href="#DejaVuSans-72" transform="translate(63.476562 0)"/>
       <use xlink:href="#DejaVuSans-61" transform="translate(104.589844 0)"/>
       <use xlink:href="#DejaVuSans-6e" transform="translate(165.869141 0)"/>
       <use xlink:href="#DejaVuSans-64" transform="translate(229.248047 0)"/>
       <use xlink:href="#DejaVuSans-65" transform="translate(292.724609 0)"/>
       <use xlink:href="#DejaVuSans-6e" transform="translate(354.248047 0)"/>
       <use xlink:href="#DejaVuSans-62" transform="translate(417.626953 0)"/>
       <use xlink:href="#DejaVuSans-75" transform="translate(481.103516 0)"/>
       <use xlink:href="#DejaVuSans-72" transform="translate(544.482422 0)"/>
       <use xlink:href="#DejaVuSans-67" transform="translate(583.845703 0)"/>
      </g>
     </g>
    </g>
    <g id="xtick_7">
     <g id="line2d_7">
      <g>
       <use xlink:href="#mfcc4a0055b" x="257.629722" y="298.70449" style="stroke: #000000; stroke-width: 0.8"/>
      </g>
     </g>
     <g id="text_7">
      <!-- sachsen -->
      <g transform="translate(227.257276 339.979282) rotate(-45) scale(0.1 -0.1)">
       <defs>
        <path id="DejaVuSans-63" d="M 3122 3366 
L 3122 2828 
Q 2878 2963 2633 3030 
Q 2388 3097 2138 3097 
Q 1578 3097 1268 2742 
Q 959 2388 959 1747 
Q 959 1106 1268 751 
Q 1578 397 2138 397 
Q 2388 397 2633 464 
Q 2878 531 3122 666 
L 3122 134 
Q 2881 22 2623 -34 
Q 2366 -91 2075 -91 
Q 1284 -91 818 406 
Q 353 903 353 1747 
Q 353 2603 823 3093 
Q 1294 3584 2113 3584 
Q 2378 3584 2631 3529 
Q 2884 3475 3122 3366 
z
" transform="scale(0.015625)"/>
       </defs>
       <use xlink:href="#DejaVuSans-73"/>
       <use xlink:href="#DejaVuSans-61" transform="translate(52.099609 0)"/>
       <use xlink:href="#DejaVuSans-63" transform="translate(113.378906 0)"/>
       <use xlink:href="#DejaVuSans-68" transform="translate(168.359375 0)"/>
       <use xlink:href="#DejaVuSans-73" transform="translate(231.738281 0)"/>
       <use xlink:href="#DejaVuSans-65" transform="translate(283.837891 0)"/>
       <use xlink:href="#DejaVuSans-6e" transform="translate(345.361328 0)"/>
      </g>
     </g>
    </g>
    <g id="xtick_8">
     <g id="line2d_8">
      <g>
       <use xlink:href="#mfcc4a0055b" x="290.635833" y="298.70449" style="stroke: #000000; stroke-width: 0.8"/>
      </g>
     </g>
     <g id="text_8">
      <!-- hessen -->
      <g transform="translate(264.133692 336.108977) rotate(-45) scale(0.1 -0.1)">
       <use xlink:href="#DejaVuSans-68"/>
       <use xlink:href="#DejaVuSans-65" transform="translate(63.378906 0)"/>
       <use xlink:href="#DejaVuSans-73" transform="translate(124.902344 0)"/>
       <use xlink:href="#DejaVuSans-73" transform="translate(177.001953 0)"/>
       <use xlink:href="#DejaVuSans-65" transform="translate(229.101562 0)"/>
       <use xlink:href="#DejaVuSans-6e" transform="translate(290.625 0)"/>
      </g>
     </g>
    </g>
    <g id="xtick_9">
     <g id="line2d_9">
      <g>
       <use xlink:href="#mfcc4a0055b" x="323.641944" y="298.70449" style="stroke: #000000; stroke-width: 0.8"/>
      </g>
     </g>
     <g id="text_9">
      <!-- niedersachsen -->
      <g transform="translate(270.72605 362.52273) rotate(-45) scale(0.1 -0.1)">
       <use xlink:href="#DejaVuSans-6e"/>
       <use xlink:href="#DejaVuSans-69" transform="translate(63.378906 0)"/>
       <use xlink:href="#DejaVuSans-65" transform="translate(91.162109 0)"/>
       <use xlink:href="#DejaVuSans-64" transform="translate(152.685547 0)"/>
       <use xlink:href="#DejaVuSans-65" transform="translate(216.162109 0)"/>
       <use xlink:href="#DejaVuSans-72" transform="translate(277.685547 0)"/>
       <use xlink:href="#DejaVuSans-73" transform="translate(318.798828 0)"/>
       <use xlink:href="#DejaVuSans-61" transform="translate(370.898438 0)"/>
       <use xlink:href="#DejaVuSans-63" transform="translate(432.177734 0)"/>
       <use xlink:href="#DejaVuSans-68" transform="translate(487.158203 0)"/>
       <use xlink:href="#DejaVuSans-73" transform="translate(550.537109 0)"/>
       <use xlink:href="#DejaVuSans-65" transform="translate(602.636719 0)"/>
       <use xlink:href="#DejaVuSans-6e" transform="translate(664.160156 0)"/>
      </g>
     </g>
    </g>
    <g id="xtick_10">
     <g id="line2d_10">
      <g>
       <use xlink:href="#mfcc4a0055b" x="356.648056" y="298.70449" style="stroke: #000000; stroke-width: 0.8"/>
      </g>
     </g>
     <g id="text_10">
      <!-- baden-wuerttemberg -->
      <g transform="translate(280.066181 386.18871) rotate(-45) scale(0.1 -0.1)">
       <defs>
        <path id="DejaVuSans-6d" d="M 3328 2828 
Q 3544 3216 3844 3400 
Q 4144 3584 4550 3584 
Q 5097 3584 5394 3201 
Q 5691 2819 5691 2113 
L 5691 0 
L 5113 0 
L 5113 2094 
Q 5113 2597 4934 2840 
Q 4756 3084 4391 3084 
Q 3944 3084 3684 2787 
Q 3425 2491 3425 1978 
L 3425 0 
L 2847 0 
L 2847 2094 
Q 2847 2600 2669 2842 
Q 2491 3084 2119 3084 
Q 1678 3084 1418 2786 
Q 1159 2488 1159 1978 
L 1159 0 
L 581 0 
L 581 3500 
L 1159 3500 
L 1159 2956 
Q 1356 3278 1631 3431 
Q 1906 3584 2284 3584 
Q 2666 3584 2933 3390 
Q 3200 3197 3328 2828 
z
" transform="scale(0.015625)"/>
       </defs>
       <use xlink:href="#DejaVuSans-62"/>
       <use xlink:href="#DejaVuSans-61" transform="translate(63.476562 0)"/>
       <use xlink:href="#DejaVuSans-64" transform="translate(124.755859 0)"/>
       <use xlink:href="#DejaVuSans-65" transform="translate(188.232422 0)"/>
       <use xlink:href="#DejaVuSans-6e" transform="translate(249.755859 0)"/>
       <use xlink:href="#DejaVuSans-2d" transform="translate(313.134766 0)"/>
       <use xlink:href="#DejaVuSans-77" transform="translate(349.21875 0)"/>
       <use xlink:href="#DejaVuSans-75" transform="translate(431.005859 0)"/>
       <use xlink:href="#DejaVuSans-65" transform="translate(494.384766 0)"/>
       <use xlink:href="#DejaVuSans-72" transform="translate(555.908203 0)"/>
       <use xlink:href="#DejaVuSans-74" transform="translate(597.021484 0)"/>
       <use xlink:href="#DejaVuSans-74" transform="translate(636.230469 0)"/>
       <use xlink:href="#DejaVuSans-65" transform="translate(675.439453 0)"/>
       <use xlink:href="#DejaVuSans-6d" transform="translate(736.962891 0)"/>
       <use xlink:href="#DejaVuSans-62" transform="translate(834.375 0)"/>
       <use xlink:href="#DejaVuSans-65" transform="translate(897.851562 0)"/>
       <use xlink:href="#DejaVuSans-72" transform="translate(959.375 0)"/>
       <use xlink:href="#DejaVuSans-67" transform="translate(998.738281 0)"/>
      </g>
     </g>
    </g>
    <g id="xtick_11">
     <g id="line2d_11">
      <g>
       <use xlink:href="#mfcc4a0055b" x="389.654167" y="298.70449" style="stroke: #000000; stroke-width: 0.8"/>
      </g>
     </g>
     <g id="text_11">
      <!-- rheinland-pfalz -->
      <g transform="translate(335.316325 363.944678) rotate(-45) scale(0.1 -0.1)">
       <defs>
        <path id="DejaVuSans-70" d="M 1159 525 
L 1159 -1331 
L 581 -1331 
L 581 3500 
L 1159 3500 
L 1159 2969 
Q 1341 3281 1617 3432 
Q 1894 3584 2278 3584 
Q 2916 3584 3314 3078 
Q 3713 2572 3713 1747 
Q 3713 922 3314 415 
Q 2916 -91 2278 -91 
Q 1894 -91 1617 61 
Q 1341 213 1159 525 
z
M 3116 1747 
Q 3116 2381 2855 2742 
Q 2594 3103 2138 3103 
Q 1681 3103 1420 2742 
Q 1159 2381 1159 1747 
Q 1159 1113 1420 752 
Q 1681 391 2138 391 
Q 2594 391 2855 752 
Q 3116 1113 3116 1747 
z
" transform="scale(0.015625)"/>
        <path id="DejaVuSans-7a" d="M 353 3500 
L 3084 3500 
L 3084 2975 
L 922 459 
L 3084 459 
L 3084 0 
L 275 0 
L 275 525 
L 2438 3041 
L 353 3041 
L 353 3500 
z
" transform="scale(0.015625)"/>
       </defs>
       <use xlink:href="#DejaVuSans-72"/>
       <use xlink:href="#DejaVuSans-68" transform="translate(39.363281 0)"/>
       <use xlink:href="#DejaVuSans-65" transform="translate(102.742188 0)"/>
       <use xlink:href="#DejaVuSans-69" transform="translate(164.265625 0)"/>
       <use xlink:href="#DejaVuSans-6e" transform="translate(192.048828 0)"/>
       <use xlink:href="#DejaVuSans-6c" transform="translate(255.427734 0)"/>
       <use xlink:href="#DejaVuSans-61" transform="translate(283.210938 0)"/>
       <use xlink:href="#DejaVuSans-6e" transform="translate(344.490234 0)"/>
       <use xlink:href="#DejaVuSans-64" transform="translate(407.869141 0)"/>
       <use xlink:href="#DejaVuSans-2d" transform="translate(471.345703 0)"/>
       <use xlink:href="#DejaVuSans-70" transform="translate(507.429688 0)"/>
       <use xlink:href="#DejaVuSans-66" transform="translate(570.90625 0)"/>
       <use xlink:href="#DejaVuSans-61" transform="translate(606.111328 0)"/>
       <use xlink:href="#DejaVuSans-6c" transform="translate(667.390625 0)"/>
       <use xlink:href="#DejaVuSans-7a" transform="translate(695.173828 0)"/>
      </g>
     </g>
    </g>
    <g id="xtick_12">
     <g id="line2d_12">
      <g>
       <use xlink:href="#mfcc4a0055b" x="422.660278" y="298.70449" style="stroke: #000000; stroke-width: 0.8"/>
      </g>
     </g>
     <g id="text_12">
      <!-- europaeisches-parlament -->
      <g transform="translate(330.988303 401.278811) rotate(-45) scale(0.1 -0.1)">
       <use xlink:href="#DejaVuSans-65"/>
       <use xlink:href="#DejaVuSans-75" transform="translate(61.523438 0)"/>
       <use xlink:href="#DejaVuSans-72" transform="translate(124.902344 0)"/>
       <use xlink:href="#DejaVuSans-6f" transform="translate(163.765625 0)"/>
       <use xlink:href="#DejaVuSans-70" transform="translate(224.947266 0)"/>
       <use xlink:href="#DejaVuSans-61" transform="translate(288.423828 0)"/>
       <use xlink:href="#DejaVuSans-65" transform="translate(349.703125 0)"/>
       <use xlink:href="#DejaVuSans-69" transform="translate(411.226562 0)"/>
       <use xlink:href="#DejaVuSans-73" transform="translate(439.009766 0)"/>
       <use xlink:href="#DejaVuSans-63" transform="translate(491.109375 0)"/>
       <use xlink:href="#DejaVuSans-68" transform="translate(546.089844 0)"/>
       <use xlink:href="#DejaVuSans-65" transform="translate(609.46875 0)"/>
       <use xlink:href="#DejaVuSans-73" transform="translate(670.992188 0)"/>
       <use xlink:href="#DejaVuSans-2d" transform="translate(723.091797 0)"/>
       <use xlink:href="#DejaVuSans-70" transform="translate(759.175781 0)"/>
       <use xlink:href="#DejaVuSans-61" transform="translate(822.652344 0)"/>
       <use xlink:href="#DejaVuSans-72" transform="translate(883.931641 0)"/>
       <use xlink:href="#DejaVuSans-6c" transform="translate(925.044922 0)"/>
       <use xlink:href="#DejaVuSans-61" transform="translate(952.828125 0)"/>
       <use xlink:href="#DejaVuSans-6d" transform="translate(1014.107422 0)"/>
       <use xlink:href="#DejaVuSans-65" transform="translate(1111.519531 0)"/>
       <use xlink:href="#DejaVuSans-6e" transform="translate(1173.042969 0)"/>
       <use xlink:href="#DejaVuSans-74" transform="translate(1236.421875 0)"/>
      </g>
     </g>
    </g>
    <g id="xtick_13">
     <g id="line2d_13">
      <g>
       <use xlink:href="#mfcc4a0055b" x="455.666389" y="298.70449" style="stroke: #000000; stroke-width: 0.8"/>
      </g>
     </g>
     <g id="text_13">
      <!-- mecklenburg-vorpommern -->
      <g transform="translate(359.945123 405.328102) rotate(-45) scale(0.1 -0.1)">
       <defs>
        <path id="DejaVuSans-6b" d="M 581 4863 
L 1159 4863 
L 1159 1991 
L 2875 3500 
L 3609 3500 
L 1753 1863 
L 3688 0 
L 2938 0 
L 1159 1709 
L 1159 0 
L 581 0 
L 581 4863 
z
" transform="scale(0.015625)"/>
        <path id="DejaVuSans-76" d="M 191 3500 
L 800 3500 
L 1894 563 
L 2988 3500 
L 3597 3500 
L 2284 0 
L 1503 0 
L 191 3500 
z
" transform="scale(0.015625)"/>
       </defs>
       <use xlink:href="#DejaVuSans-6d"/>
       <use xlink:href="#DejaVuSans-65" transform="translate(97.412109 0)"/>
       <use xlink:href="#DejaVuSans-63" transform="translate(158.935547 0)"/>
       <use xlink:href="#DejaVuSans-6b" transform="translate(213.916016 0)"/>
       <use xlink:href="#DejaVuSans-6c" transform="translate(271.826172 0)"/>
       <use xlink:href="#DejaVuSans-65" transform="translate(299.609375 0)"/>
       <use xlink:href="#DejaVuSans-6e" transform="translate(361.132812 0)"/>
       <use xlink:href="#DejaVuSans-62" transform="translate(424.511719 0)"/>
       <use xlink:href="#DejaVuSans-75" transform="translate(487.988281 0)"/>
       <use xlink:href="#DejaVuSans-72" transform="translate(551.367188 0)"/>
       <use xlink:href="#DejaVuSans-67" transform="translate(590.730469 0)"/>
       <use xlink:href="#DejaVuSans-2d" transform="translate(654.207031 0)"/>
       <use xlink:href="#DejaVuSans-76" transform="translate(687.666016 0)"/>
       <use xlink:href="#DejaVuSans-6f" transform="translate(746.845703 0)"/>
       <use xlink:href="#DejaVuSans-72" transform="translate(808.027344 0)"/>
       <use xlink:href="#DejaVuSans-70" transform="translate(849.140625 0)"/>
       <use xlink:href="#DejaVuSans-6f" transform="translate(912.617188 0)"/>
       <use xlink:href="#DejaVuSans-6d" transform="translate(973.798828 0)"/>
       <use xlink:href="#DejaVuSans-6d" transform="translate(1071.210938 0)"/>
       <use xlink:href="#DejaVuSans-65" transform="translate(1168.623047 0)"/>
       <use xlink:href="#DejaVuSans-72" transform="translate(1230.146484 0)"/>
       <use xlink:href="#DejaVuSans-6e" transform="translate(1269.509766 0)"/>
      </g>
     </g>
    </g>
    <g id="xtick_14">
     <g id="line2d_14">
      <g>
       <use xlink:href="#mfcc4a0055b" x="488.6725" y="298.70449" style="stroke: #000000; stroke-width: 0.8"/>
      </g>
     </g>
     <g id="text_14">
      <!-- hamburg -->
      <g transform="translate(455.257285 343.022051) rotate(-45) scale(0.1 -0.1)">
       <use xlink:href="#DejaVuSans-68"/>
       <use xlink:href="#DejaVuSans-61" transform="translate(63.378906 0)"/>
       <use xlink:href="#DejaVuSans-6d" transform="translate(124.658203 0)"/>
       <use xlink:href="#DejaVuSans-62" transform="translate(222.070312 0)"/>
       <use xlink:href="#DejaVuSans-75" transform="translate(285.546875 0)"/>
       <use xlink:href="#DejaVuSans-72" transform="translate(348.925781 0)"/>
       <use xlink:href="#DejaVuSans-67" transform="translate(388.289062 0)"/>
      </g>
     </g>
    </g>
    <g id="xtick_15">
     <g id="line2d_15">
      <g>
       <use xlink:href="#mfcc4a0055b" x="521.678611" y="298.70449" style="stroke: #000000; stroke-width: 0.8"/>
      </g>
     </g>
     <g id="text_15">
      <!-- schleswig-holstein -->
      <g transform="translate(455.344261 375.941186) rotate(-45) scale(0.1 -0.1)">
       <use xlink:href="#DejaVuSans-73"/>
       <use xlink:href="#DejaVuSans-63" transform="translate(52.099609 0)"/>
       <use xlink:href="#DejaVuSans-68" transform="translate(107.080078 0)"/>
       <use xlink:href="#DejaVuSans-6c" transform="translate(170.458984 0)"/>
       <use xlink:href="#DejaVuSans-65" transform="translate(198.242188 0)"/>
       <use xlink:href="#DejaVuSans-73" transform="translate(259.765625 0)"/>
       <use xlink:href="#DejaVuSans-77" transform="translate(311.865234 0)"/>
       <use xlink:href="#DejaVuSans-69" transform="translate(393.652344 0)"/>
       <use xlink:href="#DejaVuSans-67" transform="translate(421.435547 0)"/>
       <use xlink:href="#DejaVuSans-2d" transform="translate(484.912109 0)"/>
       <use xlink:href="#DejaVuSans-68" transform="translate(520.996094 0)"/>
       <use xlink:href="#DejaVuSans-6f" transform="translate(584.375 0)"/>
       <use xlink:href="#DejaVuSans-6c" transform="translate(645.556641 0)"/>
       <use xlink:href="#DejaVuSans-73" transform="translate(673.339844 0)"/>
       <use xlink:href="#DejaVuSans-74" transform="translate(725.439453 0)"/>
       <use xlink:href="#DejaVuSans-65" transform="translate(764.648438 0)"/>
       <use xlink:href="#DejaVuSans-69" transform="translate(826.171875 0)"/>
       <use xlink:href="#DejaVuSans-6e" transform="translate(853.955078 0)"/>
      </g>
     </g>
    </g>
    <g id="xtick_16">
     <g id="line2d_16">
      <g>
       <use xlink:href="#mfcc4a0055b" x="554.684722" y="298.70449" style="stroke: #000000; stroke-width: 0.8"/>
      </g>
     </g>
     <g id="text_16">
      <!-- sachsen-anhalt -->
      <g transform="translate(499.395601 364.895957) rotate(-45) scale(0.1 -0.1)">
       <use xlink:href="#DejaVuSans-73"/>
       <use xlink:href="#DejaVuSans-61" transform="translate(52.099609 0)"/>
       <use xlink:href="#DejaVuSans-63" transform="translate(113.378906 0)"/>
       <use xlink:href="#DejaVuSans-68" transform="translate(168.359375 0)"/>
       <use xlink:href="#DejaVuSans-73" transform="translate(231.738281 0)"/>
       <use xlink:href="#DejaVuSans-65" transform="translate(283.837891 0)"/>
       <use xlink:href="#DejaVuSans-6e" transform="translate(345.361328 0)"/>
       <use xlink:href="#DejaVuSans-2d" transform="translate(408.740234 0)"/>
       <use xlink:href="#DejaVuSans-61" transform="translate(444.824219 0)"/>
       <use xlink:href="#DejaVuSans-6e" transform="translate(506.103516 0)"/>
       <use xlink:href="#DejaVuSans-68" transform="translate(569.482422 0)"/>
       <use xlink:href="#DejaVuSans-61" transform="translate(632.861328 0)"/>
       <use xlink:href="#DejaVuSans-6c" transform="translate(694.140625 0)"/>
       <use xlink:href="#DejaVuSans-74" transform="translate(721.923828 0)"/>
      </g>
     </g>
    </g>
    <g id="xtick_17">
     <g id="line2d_17">
      <g>
       <use xlink:href="#mfcc4a0055b" x="587.690833" y="298.70449" style="stroke: #000000; stroke-width: 0.8"/>
      </g>
     </g>
     <g id="text_17">
      <!-- saarland -->
      <g transform="translate(555.695356 341.602313) rotate(-45) scale(0.1 -0.1)">
       <use xlink:href="#DejaVuSans-73"/>
       <use xlink:href="#DejaVuSans-61" transform="translate(52.099609 0)"/>
       <use xlink:href="#DejaVuSans-61" transform="translate(113.378906 0)"/>
       <use xlink:href="#DejaVuSans-72" transform="translate(174.658203 0)"/>
       <use xlink:href="#DejaVuSans-6c" transform="translate(215.771484 0)"/>
       <use xlink:href="#DejaVuSans-61" transform="translate(243.554688 0)"/>
       <use xlink:href="#DejaVuSans-6e" transform="translate(304.833984 0)"/>
       <use xlink:href="#DejaVuSans-64" transform="translate(368.212891 0)"/>
      </g>
     </g>
    </g>
    <g id="xtick_18">
     <g id="line2d_18">
      <g>
       <use xlink:href="#mfcc4a0055b" x="620.696944" y="298.70449" style="stroke: #000000; stroke-width: 0.8"/>
      </g>
     </g>
     <g id="text_18">
      <!-- bremen -->
      <g transform="translate(591.918803 338.384977) rotate(-45) scale(0.1 -0.1)">
       <use xlink:href="#DejaVuSans-62"/>
       <use xlink:href="#DejaVuSans-72" transform="translate(63.476562 0)"/>
       <use xlink:href="#DejaVuSans-65" transform="translate(102.339844 0)"/>
       <use xlink:href="#DejaVuSans-6d" transform="translate(163.863281 0)"/>
       <use xlink:href="#DejaVuSans-65" transform="translate(261.275391 0)"/>
       <use xlink:href="#DejaVuSans-6e" transform="translate(322.798828 0)"/>
      </g>
     </g>
    </g>
    <g id="text_19">
     <!-- Wahl -->
     <g transform="translate(327.898125 418.397101) scale(0.1 -0.1)">
      <defs>
       <path id="DejaVuSans-57" d="M 213 4666 
L 850 4666 
L 1831 722 
L 2809 4666 
L 3519 4666 
L 4500 722 
L 5478 4666 
L 6119 4666 
L 4947 0 
L 4153 0 
L 3169 4050 
L 2175 0 
L 1381 0 
L 213 4666 
z
" transform="scale(0.015625)"/>
      </defs>
      <use xlink:href="#DejaVuSans-57"/>
      <use xlink:href="#DejaVuSans-61" transform="translate(92.501953 0)"/>
      <use xlink:href="#DejaVuSans-68" transform="translate(153.78125 0)"/>
      <use xlink:href="#DejaVuSans-6c" transform="translate(217.160156 0)"/>
     </g>
    </g>
   </g>
   <g id="matplotlib.axis_2">
    <g id="ytick_1">
     <g id="line2d_19">
      <defs>
       <path id="m6e8e2a2dac" d="M 0 0 
L -3.5 0 
" style="stroke: #000000; stroke-width: 0.8"/>
      </defs>
      <g>
       <use xlink:href="#m6e8e2a2dac" x="43.09" y="298.70449" style="stroke: #000000; stroke-width: 0.8"/>
      </g>
     </g>
     <g id="text_20">
      <!-- 0 -->
      <g transform="translate(29.7275 302.503709) scale(0.1 -0.1)">
       <defs>
        <path id="DejaVuSans-30" d="M 2034 4250 
Q 1547 4250 1301 3770 
Q 1056 3291 1056 2328 
Q 1056 1369 1301 889 
Q 1547 409 2034 409 
Q 2525 409 2770 889 
Q 3016 1369 3016 2328 
Q 3016 3291 2770 3770 
Q 2525 4250 2034 4250 
z
M 2034 4750 
Q 2819 4750 3233 4129 
Q 3647 3509 3647 2328 
Q 3647 1150 3233 529 
Q 2819 -91 2034 -91 
Q 1250 -91 836 529 
Q 422 1150 422 2328 
Q 422 3509 836 4129 
Q 1250 4750 2034 4750 
z
" transform="scale(0.015625)"/>
       </defs>
       <use xlink:href="#DejaVuSans-30"/>
      </g>
     </g>
    </g>
    <g id="ytick_2">
     <g id="line2d_20">
      <g>
       <use xlink:href="#m6e8e2a2dac" x="43.09" y="249.221648" style="stroke: #000000; stroke-width: 0.8"/>
      </g>
     </g>
     <g id="text_21">
      <!-- 500 -->
      <g transform="translate(17.0025 253.020867) scale(0.1 -0.1)">
       <defs>
        <path id="DejaVuSans-35" d="M 691 4666 
L 3169 4666 
L 3169 4134 
L 1269 4134 
L 1269 2991 
Q 1406 3038 1543 3061 
Q 1681 3084 1819 3084 
Q 2600 3084 3056 2656 
Q 3513 2228 3513 1497 
Q 3513 744 3044 326 
Q 2575 -91 1722 -91 
Q 1428 -91 1123 -41 
Q 819 9 494 109 
L 494 744 
Q 775 591 1075 516 
Q 1375 441 1709 441 
Q 2250 441 2565 725 
Q 2881 1009 2881 1497 
Q 2881 1984 2565 2268 
Q 2250 2553 1709 2553 
Q 1456 2553 1204 2497 
Q 953 2441 691 2322 
L 691 4666 
z
" transform="scale(0.015625)"/>
       </defs>
       <use xlink:href="#DejaVuSans-35"/>
       <use xlink:href="#DejaVuSans-30" transform="translate(63.623047 0)"/>
       <use xlink:href="#DejaVuSans-30" transform="translate(127.246094 0)"/>
      </g>
     </g>
    </g>
    <g id="ytick_3">
     <g id="line2d_21">
      <g>
       <use xlink:href="#m6e8e2a2dac" x="43.09" y="199.738806" style="stroke: #000000; stroke-width: 0.8"/>
      </g>
     </g>
     <g id="text_22">
      <!-- 1000 -->
      <g transform="translate(10.64 203.538025) scale(0.1 -0.1)">
       <defs>
        <path id="DejaVuSans-31" d="M 794 531 
L 1825 531 
L 1825 4091 
L 703 3866 
L 703 4441 
L 1819 4666 
L 2450 4666 
L 2450 531 
L 3481 531 
L 3481 0 
L 794 0 
L 794 531 
z
" transform="scale(0.015625)"/>
       </defs>
       <use xlink:href="#DejaVuSans-31"/>
       <use xlink:href="#DejaVuSans-30" transform="translate(63.623047 0)"/>
       <use xlink:href="#DejaVuSans-30" transform="translate(127.246094 0)"/>
       <use xlink:href="#DejaVuSans-30" transform="translate(190.869141 0)"/>
      </g>
     </g>
    </g>
    <g id="ytick_4">
     <g id="line2d_22">
      <g>
       <use xlink:href="#m6e8e2a2dac" x="43.09" y="150.255964" style="stroke: #000000; stroke-width: 0.8"/>
      </g>
     </g>
     <g id="text_23">
      <!-- 1500 -->
      <g transform="translate(10.64 154.055183) scale(0.1 -0.1)">
       <use xlink:href="#DejaVuSans-31"/>
       <use xlink:href="#DejaVuSans-35" transform="translate(63.623047 0)"/>
       <use xlink:href="#DejaVuSans-30" transform="translate(127.246094 0)"/>
       <use xlink:href="#DejaVuSans-30" transform="translate(190.869141 0)"/>
      </g>
     </g>
    </g>
    <g id="ytick_5">
     <g id="line2d_23">
      <g>
       <use xlink:href="#m6e8e2a2dac" x="43.09" y="100.773122" style="stroke: #000000; stroke-width: 0.8"/>
      </g>
     </g>
     <g id="text_24">
      <!-- 2000 -->
      <g transform="translate(10.64 104.572341) scale(0.1 -0.1)">
       <defs>
        <path id="DejaVuSans-32" d="M 1228 531 
L 3431 531 
L 3431 0 
L 469 0 
L 469 531 
Q 828 903 1448 1529 
Q 2069 2156 2228 2338 
Q 2531 2678 2651 2914 
Q 2772 3150 2772 3378 
Q 2772 3750 2511 3984 
Q 2250 4219 1831 4219 
Q 1534 4219 1204 4116 
Q 875 4013 500 3803 
L 500 4441 
Q 881 4594 1212 4672 
Q 1544 4750 1819 4750 
Q 2544 4750 2975 4387 
Q 3406 4025 3406 3419 
Q 3406 3131 3298 2873 
Q 3191 2616 2906 2266 
Q 2828 2175 2409 1742 
Q 1991 1309 1228 531 
z
" transform="scale(0.015625)"/>
       </defs>
       <use xlink:href="#DejaVuSans-32"/>
       <use xlink:href="#DejaVuSans-30" transform="translate(63.623047 0)"/>
       <use xlink:href="#DejaVuSans-30" transform="translate(127.246094 0)"/>
       <use xlink:href="#DejaVuSans-30" transform="translate(190.869141 0)"/>
      </g>
     </g>
    </g>
    <g id="ytick_6">
     <g id="line2d_24">
      <g>
       <use xlink:href="#m6e8e2a2dac" x="43.09" y="51.29028" style="stroke: #000000; stroke-width: 0.8"/>
      </g>
     </g>
     <g id="text_25">
      <!-- 2500 -->
      <g transform="translate(10.64 55.089499) scale(0.1 -0.1)">
       <use xlink:href="#DejaVuSans-32"/>
       <use xlink:href="#DejaVuSans-35" transform="translate(63.623047 0)"/>
       <use xlink:href="#DejaVuSans-30" transform="translate(127.246094 0)"/>
       <use xlink:href="#DejaVuSans-30" transform="translate(190.869141 0)"/>
      </g>
     </g>
    </g>
   </g>
   <g id="line2d_25">
    <path clip-path="url(#p365fd98f58)" style="fill: none; stroke: #424242; stroke-width: 2.25; stroke-linecap: square"/>
   </g>
   <g id="line2d_26">
    <path clip-path="url(#p365fd98f58)" style="fill: none; stroke: #424242; stroke-width: 2.25; stroke-linecap: square"/>
   </g>
   <g id="line2d_27">
    <path clip-path="url(#p365fd98f58)" style="fill: none; stroke: #424242; stroke-width: 2.25; stroke-linecap: square"/>
   </g>
   <g id="line2d_28">
    <path clip-path="url(#p365fd98f58)" style="fill: none; stroke: #424242; stroke-width: 2.25; stroke-linecap: square"/>
   </g>
   <g id="line2d_29">
    <path clip-path="url(#p365fd98f58)" style="fill: none; stroke: #424242; stroke-width: 2.25; stroke-linecap: square"/>
   </g>
   <g id="line2d_30">
    <path clip-path="url(#p365fd98f58)" style="fill: none; stroke: #424242; stroke-width: 2.25; stroke-linecap: square"/>
   </g>
   <g id="line2d_31">
    <path clip-path="url(#p365fd98f58)" style="fill: none; stroke: #424242; stroke-width: 2.25; stroke-linecap: square"/>
   </g>
   <g id="line2d_32">
    <path clip-path="url(#p365fd98f58)" style="fill: none; stroke: #424242; stroke-width: 2.25; stroke-linecap: square"/>
   </g>
   <g id="line2d_33">
    <path clip-path="url(#p365fd98f58)" style="fill: none; stroke: #424242; stroke-width: 2.25; stroke-linecap: square"/>
   </g>
   <g id="line2d_34">
    <path clip-path="url(#p365fd98f58)" style="fill: none; stroke: #424242; stroke-width: 2.25; stroke-linecap: square"/>
   </g>
   <g id="line2d_35">
    <path clip-path="url(#p365fd98f58)" style="fill: none; stroke: #424242; stroke-width: 2.25; stroke-linecap: square"/>
   </g>
   <g id="line2d_36">
    <path clip-path="url(#p365fd98f58)" style="fill: none; stroke: #424242; stroke-width: 2.25; stroke-linecap: square"/>
   </g>
   <g id="line2d_37">
    <path clip-path="url(#p365fd98f58)" style="fill: none; stroke: #424242; stroke-width: 2.25; stroke-linecap: square"/>
   </g>
   <g id="line2d_38">
    <path clip-path="url(#p365fd98f58)" style="fill: none; stroke: #424242; stroke-width: 2.25; stroke-linecap: square"/>
   </g>
   <g id="line2d_39">
    <path clip-path="url(#p365fd98f58)" style="fill: none; stroke: #424242; stroke-width: 2.25; stroke-linecap: square"/>
   </g>
   <g id="line2d_40">
    <path clip-path="url(#p365fd98f58)" style="fill: none; stroke: #424242; stroke-width: 2.25; stroke-linecap: square"/>
   </g>
   <g id="line2d_41">
    <path clip-path="url(#p365fd98f58)" style="fill: none; stroke: #424242; stroke-width: 2.25; stroke-linecap: square"/>
   </g>
   <g id="line2d_42">
    <path clip-path="url(#p365fd98f58)" style="fill: none; stroke: #424242; stroke-width: 2.25; stroke-linecap: square"/>
   </g>
   <g id="patch_21">
    <path d="M 43.09 298.70449 
L 43.09 38.4 
" style="fill: none; stroke: #000000; stroke-width: 0.8; stroke-linejoin: miter; stroke-linecap: square"/>
   </g>
   <g id="patch_22">
    <path d="M 43.09 298.70449 
L 637.2 298.70449 
" style="fill: none; stroke: #000000; stroke-width: 0.8; stroke-linejoin: miter; stroke-linecap: square"/>
   </g>
   <g id="text_26">
    <!-- Umfrageanzahl pro Wahl (n=3700) -->
    <g style="fill: #ffffff" transform="translate(95.663437 32.4) scale(0.28 -0.28)">
     <defs>
      <path id="DejaVuSans-55" d="M 556 4666 
L 1191 4666 
L 1191 1831 
Q 1191 1081 1462 751 
Q 1734 422 2344 422 
Q 2950 422 3222 751 
Q 3494 1081 3494 1831 
L 3494 4666 
L 4128 4666 
L 4128 1753 
Q 4128 841 3676 375 
Q 3225 -91 2344 -91 
Q 1459 -91 1007 375 
Q 556 841 556 1753 
L 556 4666 
z
" transform="scale(0.015625)"/>
      <path id="DejaVuSans-20" transform="scale(0.015625)"/>
      <path id="DejaVuSans-28" d="M 1984 4856 
Q 1566 4138 1362 3434 
Q 1159 2731 1159 2009 
Q 1159 1288 1364 580 
Q 1569 -128 1984 -844 
L 1484 -844 
Q 1016 -109 783 600 
Q 550 1309 550 2009 
Q 550 2706 781 3412 
Q 1013 4119 1484 4856 
L 1984 4856 
z
" transform="scale(0.015625)"/>
      <path id="DejaVuSans-3d" d="M 678 2906 
L 4684 2906 
L 4684 2381 
L 678 2381 
L 678 2906 
z
M 678 1631 
L 4684 1631 
L 4684 1100 
L 678 1100 
L 678 1631 
z
" transform="scale(0.015625)"/>
      <path id="DejaVuSans-33" d="M 2597 2516 
Q 3050 2419 3304 2112 
Q 3559 1806 3559 1356 
Q 3559 666 3084 287 
Q 2609 -91 1734 -91 
Q 1441 -91 1130 -33 
Q 819 25 488 141 
L 488 750 
Q 750 597 1062 519 
Q 1375 441 1716 441 
Q 2309 441 2620 675 
Q 2931 909 2931 1356 
Q 2931 1769 2642 2001 
Q 2353 2234 1838 2234 
L 1294 2234 
L 1294 2753 
L 1863 2753 
Q 2328 2753 2575 2939 
Q 2822 3125 2822 3475 
Q 2822 3834 2567 4026 
Q 2313 4219 1838 4219 
Q 1578 4219 1281 4162 
Q 984 4106 628 3988 
L 628 4550 
Q 988 4650 1302 4700 
Q 1616 4750 1894 4750 
Q 2613 4750 3031 4423 
Q 3450 4097 3450 3541 
Q 3450 3153 3228 2886 
Q 3006 2619 2597 2516 
z
" transform="scale(0.015625)"/>
      <path id="DejaVuSans-37" d="M 525 4666 
L 3525 4666 
L 3525 4397 
L 1831 0 
L 1172 0 
L 2766 4134 
L 525 4134 
L 525 4666 
z
" transform="scale(0.015625)"/>
      <path id="DejaVuSans-29" d="M 513 4856 
L 1013 4856 
Q 1481 4119 1714 3412 
Q 1947 2706 1947 2009 
Q 1947 1309 1714 600 
Q 1481 -109 1013 -844 
L 513 -844 
Q 928 -128 1133 580 
Q 1338 1288 1338 2009 
Q 1338 2731 1133 3434 
Q 928 4138 513 4856 
z
" transform="scale(0.015625)"/>
     </defs>
     <use xlink:href="#DejaVuSans-55"/>
     <use xlink:href="#DejaVuSans-6d" transform="translate(73.193359 0)"/>
     <use xlink:href="#DejaVuSans-66" transform="translate(170.605469 0)"/>
     <use xlink:href="#DejaVuSans-72" transform="translate(205.810547 0)"/>
     <use xlink:href="#DejaVuSans-61" transform="translate(246.923828 0)"/>
     <use xlink:href="#DejaVuSans-67" transform="translate(308.203125 0)"/>
     <use xlink:href="#DejaVuSans-65" transform="translate(371.679688 0)"/>
     <use xlink:href="#DejaVuSans-61" transform="translate(433.203125 0)"/>
     <use xlink:href="#DejaVuSans-6e" transform="translate(494.482422 0)"/>
     <use xlink:href="#DejaVuSans-7a" transform="translate(557.861328 0)"/>
     <use xlink:href="#DejaVuSans-61" transform="translate(610.351562 0)"/>
     <use xlink:href="#DejaVuSans-68" transform="translate(671.630859 0)"/>
     <use xlink:href="#DejaVuSans-6c" transform="translate(735.009766 0)"/>
     <use xlink:href="#DejaVuSans-20" transform="translate(762.792969 0)"/>
     <use xlink:href="#DejaVuSans-70" transform="translate(794.580078 0)"/>
     <use xlink:href="#DejaVuSans-72" transform="translate(858.056641 0)"/>
     <use xlink:href="#DejaVuSans-6f" transform="translate(896.919922 0)"/>
     <use xlink:href="#DejaVuSans-20" transform="translate(958.101562 0)"/>
     <use xlink:href="#DejaVuSans-57" transform="translate(989.888672 0)"/>
     <use xlink:href="#DejaVuSans-61" transform="translate(1082.390625 0)"/>
     <use xlink:href="#DejaVuSans-68" transform="translate(1143.669922 0)"/>
     <use xlink:href="#DejaVuSans-6c" transform="translate(1207.048828 0)"/>
     <use xlink:href="#DejaVuSans-20" transform="translate(1234.832031 0)"/>
     <use xlink:href="#DejaVuSans-28" transform="translate(1266.619141 0)"/>
     <use xlink:href="#DejaVuSans-6e" transform="translate(1305.632812 0)"/>
     <use xlink:href="#DejaVuSans-3d" transform="translate(1369.011719 0)"/>
     <use xlink:href="#DejaVuSans-33" transform="translate(1452.800781 0)"/>
     <use xlink:href="#DejaVuSans-37" transform="translate(1516.423828 0)"/>
     <use xlink:href="#DejaVuSans-30" transform="translate(1580.046875 0)"/>
     <use xlink:href="#DejaVuSans-30" transform="translate(1643.669922 0)"/>
     <use xlink:href="#DejaVuSans-29" transform="translate(1707.292969 0)"/>
    </g>
   </g>
  </g>
 </g>
 <defs>
  <clipPath id="p365fd98f58">
   <rect x="43.09" y="38.4" width="594.11" height="260.30449"/>
  </clipPath>
 </defs>
</svg>
