<?xml version="1.0" encoding="utf-8" standalone="no"?>
<!DOCTYPE svg PUBLIC "-//W3C//DTD SVG 1.1//EN"
  "http://www.w3.org/Graphics/SVG/1.1/DTD/svg11.dtd">
<svg xmlns:xlink="http://www.w3.org/1999/xlink" width="1080pt" height="792pt" viewBox="0 0 1080 792" xmlns="http://www.w3.org/2000/svg" version="1.1">
 <metadata>
  <rdf:RDF xmlns:dc="http://purl.org/dc/elements/1.1/" xmlns:cc="http://creativecommons.org/ns#" xmlns:rdf="http://www.w3.org/1999/02/22-rdf-syntax-ns#">
   <cc:Work>
    <dc:type rdf:resource="http://purl.org/dc/dcmitype/StillImage"/>
    <dc:date>2026-02-09T13:06:24.053755</dc:date>
    <dc:format>image/svg+xml</dc:format>
    <dc:creator>
     <cc:Agent>
      <dc:title>Matplotlib v3.10.3, https://matplotlib.org/</dc:title>
     </cc:Agent>
    </dc:creator>
   </cc:Work>
  </rdf:RDF>
 </metadata>
 <defs>
  <style type="text/css">*{stroke-linejoin: round; stroke-linecap: butt}</style>
 </defs>
 <g id="figure_1">
  <g id="patch_1">
   <path d="M 0 792 
L 1080 792 
L 1080 0 
L 0 0 
z
" style="fill: #ffffff"/>
  </g>
  <g id="axes_1">
   <g id="patch_2">
    <path d="M 50.87 391.76 
L 380.78 391.76 
L 380.78 66.48 
L 50.87 66.48 
z
" style="fill: #ffffff"/>
   </g>
   <g id="patch_3">
    <path d="M 65.865909 391.76 
L 87.291013 391.76 
L 87.291013 386.044548 
L 65.865909 386.044548 
z
" clip-path="url(#p394a37467b)" style="fill: #1f77b4; fill-opacity: 0.2; stroke: #ffffff; stroke-width: 0.5; stroke-linejoin: miter"/>
   </g>
   <g id="patch_4">
    <path d="M 87.291013 391.76 
L 108.716116 391.76 
L 108.716116 391.76 
L 87.291013 391.76 
z
" clip-path="url(#p394a37467b)" style="fill: #1f77b4; fill-opacity: 0.2; stroke: #ffffff; stroke-width: 0.5; stroke-linejoin: miter"/>
   </g>
   <g id="patch_5">
    <path d="M 108.716116 391.76 
L 130.14122 391.76 
L 130.14122 377.471371 
L 108.716116 377.471371 
z
" clip-path="url(#p394a37467b)" style="fill: #1f77b4; fill-opacity: 0.2; stroke: #ffffff; stroke-width: 0.5; stroke-linejoin: miter"/>
   </g>
   <g id="patch_6">
    <path d="M 130.14122 391.76 
L 151.566324 391.76 
L 151.566324 346.036386 
L 130.14122 346.036386 
z
" clip-path="url(#p394a37467b)" style="fill: #1f77b4; fill-opacity: 0.2; stroke: #ffffff; stroke-width: 0.5; stroke-linejoin: miter"/>
   </g>
   <g id="patch_7">
    <path d="M 151.566324 391.76 
L 172.991427 391.76 
L 172.991427 300.312772 
L 151.566324 300.312772 
z
" clip-path="url(#p394a37467b)" style="fill: #1f77b4; fill-opacity: 0.2; stroke: #ffffff; stroke-width: 0.5; stroke-linejoin: miter"/>
   </g>
   <g id="patch_8">
    <path d="M 172.991427 391.76 
L 194.416531 391.76 
L 194.416531 154.568753 
L 172.991427 154.568753 
z
" clip-path="url(#p394a37467b)" style="fill: #1f77b4; fill-opacity: 0.2; stroke: #ffffff; stroke-width: 0.5; stroke-linejoin: miter"/>
   </g>
   <g id="patch_9">
    <path d="M 194.416531 391.76 
L 215.841634 391.76 
L 215.841634 100.271961 
L 194.416531 100.271961 
z
" clip-path="url(#p394a37467b)" style="fill: #1f77b4; fill-opacity: 0.2; stroke: #ffffff; stroke-width: 0.5; stroke-linejoin: miter"/>
   </g>
   <g id="patch_10">
    <path d="M 215.841634 391.76 
L 237.266738 391.76 
L 237.266738 105.987413 
L 215.841634 105.987413 
z
" clip-path="url(#p394a37467b)" style="fill: #1f77b4; fill-opacity: 0.2; stroke: #ffffff; stroke-width: 0.5; stroke-linejoin: miter"/>
   </g>
   <g id="patch_11">
    <path d="M 237.266738 391.76 
L 258.691842 391.76 
L 258.691842 228.869625 
L 237.266738 228.869625 
z
" clip-path="url(#p394a37467b)" style="fill: #1f77b4; fill-opacity: 0.2; stroke: #ffffff; stroke-width: 0.5; stroke-linejoin: miter"/>
   </g>
   <g id="patch_12">
    <path d="M 258.691842 391.76 
L 280.116945 391.76 
L 280.116945 297.455046 
L 258.691842 297.455046 
z
" clip-path="url(#p394a37467b)" style="fill: #1f77b4; fill-opacity: 0.2; stroke: #ffffff; stroke-width: 0.5; stroke-linejoin: miter"/>
   </g>
   <g id="patch_13">
    <path d="M 280.116945 391.76 
L 301.542049 391.76 
L 301.542049 360.325015 
L 280.116945 360.325015 
z
" clip-path="url(#p394a37467b)" style="fill: #1f77b4; fill-opacity: 0.2; stroke: #ffffff; stroke-width: 0.5; stroke-linejoin: miter"/>
   </g>
   <g id="patch_14">
    <path d="M 301.542049 391.76 
L 322.967152 391.76 
L 322.967152 383.186822 
L 301.542049 383.186822 
z
" clip-path="url(#p394a37467b)" style="fill: #1f77b4; fill-opacity: 0.2; stroke: #ffffff; stroke-width: 0.5; stroke-linejoin: miter"/>
   </g>
   <g id="matplotlib.axis_1">
    <g id="xtick_1">
     <g id="line2d_1">
      <defs>
       <path id="m7ff4380ec3" d="M 0 0 
L 0 3.5 
" style="stroke: #000000; stroke-width: 0.8"/>
      </defs>
      <g>
       <use xlink:href="#m7ff4380ec3" x="83.332026" y="391.76" style="stroke: #000000; stroke-width: 0.8"/>
      </g>
     </g>
    </g>
    <g id="xtick_2">
     <g id="line2d_2">
      <g>
       <use xlink:href="#m7ff4380ec3" x="139.223601" y="391.76" style="stroke: #000000; stroke-width: 0.8"/>
      </g>
     </g>
    </g>
    <g id="xtick_3">
     <g id="line2d_3">
      <g>
       <use xlink:href="#m7ff4380ec3" x="195.115175" y="391.76" style="stroke: #000000; stroke-width: 0.8"/>
      </g>
     </g>
    </g>
    <g id="xtick_4">
     <g id="line2d_4">
      <g>
       <use xlink:href="#m7ff4380ec3" x="251.00675" y="391.76" style="stroke: #000000; stroke-width: 0.8"/>
      </g>
     </g>
    </g>
    <g id="xtick_5">
     <g id="line2d_5">
      <g>
       <use xlink:href="#m7ff4380ec3" x="306.898325" y="391.76" style="stroke: #000000; stroke-width: 0.8"/>
      </g>
     </g>
    </g>
    <g id="xtick_6">
     <g id="line2d_6">
      <g>
       <use xlink:href="#m7ff4380ec3" x="362.789899" y="391.76" style="stroke: #000000; stroke-width: 0.8"/>
      </g>
     </g>
    </g>
   </g>
   <g id="matplotlib.axis_2">
    <g id="ytick_1">
     <g id="line2d_7">
      <defs>
       <path id="m7ba260b7e0" d="M 0 0 
L -3.5 0 
" style="stroke: #000000; stroke-width: 0.8"/>
      </defs>
      <g>
       <use xlink:href="#m7ba260b7e0" x="50.87" y="391.76" style="stroke: #000000; stroke-width: 0.8"/>
      </g>
     </g>
     <g id="text_1">
      <!-- 0 -->
      <g transform="translate(37.5075 395.559219) scale(0.1 -0.1)">
       <defs>
        <path id="DejaVuSans-30" d="M 2034 4250 
Q 1547 4250 1301 3770 
Q 1056 3291 1056 2328 
Q 1056 1369 1301 889 
Q 1547 409 2034 409 
Q 2525 409 2770 889 
Q 3016 1369 3016 2328 
Q 3016 3291 2770 3770 
Q 2525 4250 2034 4250 
z
M 2034 4750 
Q 2819 4750 3233 4129 
Q 3647 3509 3647 2328 
Q 3647 1150 3233 529 
Q 2819 -91 2034 -91 
Q 1250 -91 836 529 
Q 422 1150 422 2328 
Q 422 3509 836 4129 
Q 1250 4750 2034 4750 
z
" transform="scale(0.015625)"/>
       </defs>
       <use xlink:href="#DejaVuSans-30"/>
      </g>
     </g>
    </g>
    <g id="ytick_2">
     <g id="line2d_8">
      <g>
       <use xlink:href="#m7ba260b7e0" x="50.87" y="334.605483" style="stroke: #000000; stroke-width: 0.8"/>
      </g>
     </g>
     <g id="text_2">
      <!-- 20 -->
      <g transform="translate(31.145 338.404701) scale(0.1 -0.1)">
       <defs>
        <path id="DejaVuSans-32" d="M 1228 531 
L 3431 531 
L 3431 0 
L 469 0 
L 469 531 
Q 828 903 1448 1529 
Q 2069 2156 2228 2338 
Q 2531 2678 2651 2914 
Q 2772 3150 2772 3378 
Q 2772 3750 2511 3984 
Q 2250 4219 1831 4219 
Q 1534 4219 1204 4116 
Q 875 4013 500 3803 
L 500 4441 
Q 881 4594 1212 4672 
Q 1544 4750 1819 4750 
Q 2544 4750 2975 4387 
Q 3406 4025 3406 3419 
Q 3406 3131 3298 2873 
Q 3191 2616 2906 2266 
Q 2828 2175 2409 1742 
Q 1991 1309 1228 531 
z
" transform="scale(0.015625)"/>
       </defs>
       <use xlink:href="#DejaVuSans-32"/>
       <use xlink:href="#DejaVuSans-30" transform="translate(63.623047 0)"/>
      </g>
     </g>
    </g>
    <g id="ytick_3">
     <g id="line2d_9">
      <g>
       <use xlink:href="#m7ba260b7e0" x="50.87" y="277.450965" style="stroke: #000000; stroke-width: 0.8"/>
      </g>
     </g>
     <g id="text_3">
      <!-- 40 -->
      <g transform="translate(31.145 281.250184) scale(0.1 -0.1)">
       <defs>
        <path id="DejaVuSans-34" d="M 2419 4116 
L 825 1625 
L 2419 1625 
L 2419 4116 
z
M 2253 4666 
L 3047 4666 
L 3047 1625 
L 3713 1625 
L 3713 1100 
L 3047 1100 
L 3047 0 
L 2419 0 
L 2419 1100 
L 313 1100 
L 313 1709 
L 2253 4666 
z
" transform="scale(0.015625)"/>
       </defs>
       <use xlink:href="#DejaVuSans-34"/>
       <use xlink:href="#DejaVuSans-30" transform="translate(63.623047 0)"/>
      </g>
     </g>
    </g>
    <g id="ytick_4">
     <g id="line2d_10">
      <g>
       <use xlink:href="#m7ba260b7e0" x="50.87" y="220.296448" style="stroke: #000000; stroke-width: 0.8"/>
      </g>
     </g>
     <g id="text_4">
      <!-- 60 -->
      <g transform="translate(31.145 224.095666) scale(0.1 -0.1)">
       <defs>
        <path id="DejaVuSans-36" d="M 2113 2584 
Q 1688 2584 1439 2293 
Q 1191 2003 1191 1497 
Q 1191 994 1439 701 
Q 1688 409 2113 409 
Q 2538 409 2786 701 
Q 3034 994 3034 1497 
Q 3034 2003 2786 2293 
Q 2538 2584 2113 2584 
z
M 3366 4563 
L 3366 3988 
Q 3128 4100 2886 4159 
Q 2644 4219 2406 4219 
Q 1781 4219 1451 3797 
Q 1122 3375 1075 2522 
Q 1259 2794 1537 2939 
Q 1816 3084 2150 3084 
Q 2853 3084 3261 2657 
Q 3669 2231 3669 1497 
Q 3669 778 3244 343 
Q 2819 -91 2113 -91 
Q 1303 -91 875 529 
Q 447 1150 447 2328 
Q 447 3434 972 4092 
Q 1497 4750 2381 4750 
Q 2619 4750 2861 4703 
Q 3103 4656 3366 4563 
z
" transform="scale(0.015625)"/>
       </defs>
       <use xlink:href="#DejaVuSans-36"/>
       <use xlink:href="#DejaVuSans-30" transform="translate(63.623047 0)"/>
      </g>
     </g>
    </g>
    <g id="ytick_5">
     <g id="line2d_11">
      <g>
       <use xlink:href="#m7ba260b7e0" x="50.87" y="163.14193" style="stroke: #000000; stroke-width: 0.8"/>
      </g>
     </g>
     <g id="text_5">
      <!-- 80 -->
      <g transform="translate(31.145 166.941149) scale(0.1 -0.1)">
       <defs>
        <path id="DejaVuSans-38" d="M 2034 2216 
Q 1584 2216 1326 1975 
Q 1069 1734 1069 1313 
Q 1069 891 1326 650 
Q 1584 409 2034 409 
Q 2484 409 2743 651 
Q 3003 894 3003 1313 
Q 3003 1734 2745 1975 
Q 2488 2216 2034 2216 
z
M 1403 2484 
Q 997 2584 770 2862 
Q 544 3141 544 3541 
Q 544 4100 942 4425 
Q 1341 4750 2034 4750 
Q 2731 4750 3128 4425 
Q 3525 4100 3525 3541 
Q 3525 3141 3298 2862 
Q 3072 2584 2669 2484 
Q 3125 2378 3379 2068 
Q 3634 1759 3634 1313 
Q 3634 634 3220 271 
Q 2806 -91 2034 -91 
Q 1263 -91 848 271 
Q 434 634 434 1313 
Q 434 1759 690 2068 
Q 947 2378 1403 2484 
z
M 1172 3481 
Q 1172 3119 1398 2916 
Q 1625 2713 2034 2713 
Q 2441 2713 2670 2916 
Q 2900 3119 2900 3481 
Q 2900 3844 2670 4047 
Q 2441 4250 2034 4250 
Q 1625 4250 1398 4047 
Q 1172 3844 1172 3481 
z
" transform="scale(0.015625)"/>
       </defs>
       <use xlink:href="#DejaVuSans-38"/>
       <use xlink:href="#DejaVuSans-30" transform="translate(63.623047 0)"/>
      </g>
     </g>
    </g>
    <g id="ytick_6">
     <g id="line2d_12">
      <g>
       <use xlink:href="#m7ba260b7e0" x="50.87" y="105.987413" style="stroke: #000000; stroke-width: 0.8"/>
      </g>
     </g>
     <g id="text_6">
      <!-- 100 -->
      <g transform="translate(24.7825 109.786631) scale(0.1 -0.1)">
       <defs>
        <path id="DejaVuSans-31" d="M 794 531 
L 1825 531 
L 1825 4091 
L 703 3866 
L 703 4441 
L 1819 4666 
L 2450 4666 
L 2450 531 
L 3481 531 
L 3481 0 
L 794 0 
L 794 531 
z
" transform="scale(0.015625)"/>
       </defs>
       <use xlink:href="#DejaVuSans-31"/>
       <use xlink:href="#DejaVuSans-30" transform="translate(63.623047 0)"/>
       <use xlink:href="#DejaVuSans-30" transform="translate(127.246094 0)"/>
      </g>
     </g>
    </g>
    <g id="text_7">
     <!-- Count -->
     <g transform="translate(18.702812 243.968438) rotate(-90) scale(0.1 -0.1)">
      <defs>
       <path id="DejaVuSans-43" d="M 4122 4306 
L 4122 3641 
Q 3803 3938 3442 4084 
Q 3081 4231 2675 4231 
Q 1875 4231 1450 3742 
Q 1025 3253 1025 2328 
Q 1025 1406 1450 917 
Q 1875 428 2675 428 
Q 3081 428 3442 575 
Q 3803 722 4122 1019 
L 4122 359 
Q 3791 134 3420 21 
Q 3050 -91 2638 -91 
Q 1578 -91 968 557 
Q 359 1206 359 2328 
Q 359 3453 968 4101 
Q 1578 4750 2638 4750 
Q 3056 4750 3426 4639 
Q 3797 4528 4122 4306 
z
" transform="scale(0.015625)"/>
       <path id="DejaVuSans-6f" d="M 1959 3097 
Q 1497 3097 1228 2736 
Q 959 2375 959 1747 
Q 959 1119 1226 758 
Q 1494 397 1959 397 
Q 2419 397 2687 759 
Q 2956 1122 2956 1747 
Q 2956 2369 2687 2733 
Q 2419 3097 1959 3097 
z
M 1959 3584 
Q 2709 3584 3137 3096 
Q 3566 2609 3566 1747 
Q 3566 888 3137 398 
Q 2709 -91 1959 -91 
Q 1206 -91 779 398 
Q 353 888 353 1747 
Q 353 2609 779 3096 
Q 1206 3584 1959 3584 
z
" transform="scale(0.015625)"/>
       <path id="DejaVuSans-75" d="M 544 1381 
L 544 3500 
L 1119 3500 
L 1119 1403 
Q 1119 906 1312 657 
Q 1506 409 1894 409 
Q 2359 409 2629 706 
Q 2900 1003 2900 1516 
L 2900 3500 
L 3475 3500 
L 3475 0 
L 2900 0 
L 2900 538 
Q 2691 219 2414 64 
Q 2138 -91 1772 -91 
Q 1169 -91 856 284 
Q 544 659 544 1381 
z
M 1991 3584 
L 1991 3584 
z
" transform="scale(0.015625)"/>
       <path id="DejaVuSans-6e" d="M 3513 2113 
L 3513 0 
L 2938 0 
L 2938 2094 
Q 2938 2591 2744 2837 
Q 2550 3084 2163 3084 
Q 1697 3084 1428 2787 
Q 1159 2491 1159 1978 
L 1159 0 
L 581 0 
L 581 3500 
L 1159 3500 
L 1159 2956 
Q 1366 3272 1645 3428 
Q 1925 3584 2291 3584 
Q 2894 3584 3203 3211 
Q 3513 2838 3513 2113 
z
" transform="scale(0.015625)"/>
       <path id="DejaVuSans-74" d="M 1172 4494 
L 1172 3500 
L 2356 3500 
L 2356 3053 
L 1172 3053 
L 1172 1153 
Q 1172 725 1289 603 
Q 1406 481 1766 481 
L 2356 481 
L 2356 0 
L 1766 0 
Q 1100 0 847 248 
Q 594 497 594 1153 
L 594 3053 
L 172 3053 
L 172 3500 
L 594 3500 
L 594 4494 
L 1172 4494 
z
" transform="scale(0.015625)"/>
      </defs>
      <use xlink:href="#DejaVuSans-43"/>
      <use xlink:href="#DejaVuSans-6f" transform="translate(69.824219 0)"/>
      <use xlink:href="#DejaVuSans-75" transform="translate(131.005859 0)"/>
      <use xlink:href="#DejaVuSans-6e" transform="translate(194.384766 0)"/>
      <use xlink:href="#DejaVuSans-74" transform="translate(257.763672 0)"/>
     </g>
    </g>
   </g>
   <g id="line2d_13">
    <path d="M 65.865909 387.466302 
L 68.449841 387.385079 
L 71.033773 387.531454 
L 73.617705 387.878972 
L 77.493604 388.642858 
L 82.661468 389.683115 
L 85.2454 390.033904 
L 87.829332 390.19054 
L 90.413264 390.114461 
L 92.997196 389.785378 
L 95.581128 389.201326 
L 98.16506 388.379046 
L 100.748992 387.353246 
L 104.624891 385.541018 
L 111.084721 382.184318 
L 116.252585 379.27952 
L 118.836517 377.623645 
L 121.420449 375.716375 
L 124.004381 373.469422 
L 126.588313 370.813591 
L 129.172245 367.709132 
L 131.756177 364.147627 
L 134.34011 360.146337 
L 136.924042 355.738153 
L 139.507974 350.960794 
L 143.383872 343.172406 
L 147.25977 334.681473 
L 151.135668 325.430667 
L 153.7196 318.734721 
L 156.303532 311.476106 
L 158.887464 303.482116 
L 161.471397 294.544463 
L 164.055329 284.446004 
L 166.639261 273.002253 
L 169.223193 260.11214 
L 171.807125 245.807743 
L 174.391057 230.28999 
L 179.558921 197.281919 
L 183.434819 173.087761 
L 186.018751 158.354579 
L 188.602684 145.263284 
L 191.186616 134.025832 
L 192.478582 129.103337 
L 193.770548 124.618581 
L 196.35448 116.825075 
L 198.938412 110.328688 
L 201.522344 104.826582 
L 204.106276 100.128446 
L 206.690208 96.210104 
L 207.982174 94.58157 
L 209.27414 93.210622 
L 210.566106 92.131928 
L 211.858072 91.382689 
L 213.150038 91.000262 
L 214.442005 91.02001 
L 215.733971 91.473493 
L 217.025937 92.387056 
L 218.317903 93.78083 
L 219.609869 95.668122 
L 220.901835 98.055152 
L 222.193801 100.941073 
L 223.485767 104.318233 
L 224.777733 108.172609 
L 226.069699 112.484379 
L 228.653631 122.375812 
L 231.237563 133.743988 
L 233.821495 146.292066 
L 237.697393 166.611674 
L 246.741156 215.213389 
L 249.325088 228.077692 
L 251.90902 240.100395 
L 254.492952 251.187777 
L 257.076884 261.327909 
L 259.660816 270.584925 
L 262.244748 279.086206 
L 266.120646 290.803881 
L 272.580477 309.104545 
L 281.624239 334.339908 
L 285.500137 344.351222 
L 288.084069 350.400203 
L 290.668001 355.843811 
L 293.251933 360.663214 
L 295.835865 364.895145 
L 298.419798 368.608112 
L 301.00373 371.87377 
L 303.587662 374.744531 
L 306.171594 377.245315 
L 308.755526 379.381133 
L 311.339458 381.155406 
L 313.92339 382.589474 
L 316.507322 383.733674 
L 320.38322 385.077649 
L 322.967152 385.850622 
L 322.967152 385.850622 
" clip-path="url(#p394a37467b)" style="fill: none; stroke: #1f77b4; stroke-width: 1.5; stroke-linecap: square"/>
   </g>
   <g id="line2d_14">
    <path d="M 212.583511 391.76 
L 212.583511 66.48 
" clip-path="url(#p394a37467b)" style="fill: none; stroke: #ff0000; stroke-width: 1.5; stroke-linecap: square"/>
   </g>
   <g id="line2d_15">
    <path d="M 195.115175 391.76 
L 195.115175 66.48 
" clip-path="url(#p394a37467b)" style="fill: none; stroke-dasharray: 1.85,0.8; stroke-dashoffset: 0; stroke: #000000; stroke-width: 0.5"/>
   </g>
   <g id="patch_15">
    <path d="M 50.87 391.76 
L 50.87 66.48 
" style="fill: none; stroke: #000000; stroke-width: 0.8; stroke-linejoin: miter; stroke-linecap: square"/>
   </g>
   <g id="patch_16">
    <path d="M 50.87 391.76 
L 380.78 391.76 
" style="fill: none; stroke: #000000; stroke-width: 0.8; stroke-linejoin: miter; stroke-linecap: square"/>
   </g>
   <g id="text_8">
    <!-- CDU/CSU -->
    <g transform="translate(188.212812 60.48) scale(0.12 -0.12)">
     <defs>
      <path id="DejaVuSans-44" d="M 1259 4147 
L 1259 519 
L 2022 519 
Q 2988 519 3436 956 
Q 3884 1394 3884 2338 
Q 3884 3275 3436 3711 
Q 2988 4147 2022 4147 
L 1259 4147 
z
M 628 4666 
L 1925 4666 
Q 3281 4666 3915 4102 
Q 4550 3538 4550 2338 
Q 4550 1131 3912 565 
Q 3275 0 1925 0 
L 628 0 
L 628 4666 
z
" transform="scale(0.015625)"/>
      <path id="DejaVuSans-55" d="M 556 4666 
L 1191 4666 
L 1191 1831 
Q 1191 1081 1462 751 
Q 1734 422 2344 422 
Q 2950 422 3222 751 
Q 3494 1081 3494 1831 
L 3494 4666 
L 4128 4666 
L 4128 1753 
Q 4128 841 3676 375 
Q 3225 -91 2344 -91 
Q 1459 -91 1007 375 
Q 556 841 556 1753 
L 556 4666 
z
" transform="scale(0.015625)"/>
      <path id="DejaVuSans-2f" d="M 1625 4666 
L 2156 4666 
L 531 -594 
L 0 -594 
L 1625 4666 
z
" transform="scale(0.015625)"/>
      <path id="DejaVuSans-53" d="M 3425 4513 
L 3425 3897 
Q 3066 4069 2747 4153 
Q 2428 4238 2131 4238 
Q 1616 4238 1336 4038 
Q 1056 3838 1056 3469 
Q 1056 3159 1242 3001 
Q 1428 2844 1947 2747 
L 2328 2669 
Q 3034 2534 3370 2195 
Q 3706 1856 3706 1288 
Q 3706 609 3251 259 
Q 2797 -91 1919 -91 
Q 1588 -91 1214 -16 
Q 841 59 441 206 
L 441 856 
Q 825 641 1194 531 
Q 1563 422 1919 422 
Q 2459 422 2753 634 
Q 3047 847 3047 1241 
Q 3047 1584 2836 1778 
Q 2625 1972 2144 2069 
L 1759 2144 
Q 1053 2284 737 2584 
Q 422 2884 422 3419 
Q 422 4038 858 4394 
Q 1294 4750 2059 4750 
Q 2388 4750 2728 4690 
Q 3069 4631 3425 4513 
z
" transform="scale(0.015625)"/>
     </defs>
     <use xlink:href="#DejaVuSans-43"/>
     <use xlink:href="#DejaVuSans-44" transform="translate(69.824219 0)"/>
     <use xlink:href="#DejaVuSans-55" transform="translate(146.826172 0)"/>
     <use xlink:href="#DejaVuSans-2f" transform="translate(220.019531 0)"/>
     <use xlink:href="#DejaVuSans-43" transform="translate(253.710938 0)"/>
     <use xlink:href="#DejaVuSans-53" transform="translate(323.535156 0)"/>
     <use xlink:href="#DejaVuSans-55" transform="translate(387.011719 0)"/>
    </g>
   </g>
  </g>
  <g id="axes_2">
   <g id="patch_17">
    <path d="M 395.08 391.76 
L 724.99 391.76 
L 724.99 66.48 
L 395.08 66.48 
z
" style="fill: #ffffff"/>
   </g>
   <g id="patch_18">
    <path d="M 464.470388 391.76 
L 479.93206 391.76 
L 479.93206 386.044548 
L 464.470388 386.044548 
z
" clip-path="url(#pb8b43277aa)" style="fill: #1f77b4; fill-opacity: 0.2; stroke: #ffffff; stroke-width: 0.5; stroke-linejoin: miter"/>
   </g>
   <g id="patch_19">
    <path d="M 479.93206 391.76 
L 495.393732 391.76 
L 495.393732 368.898193 
L 479.93206 368.898193 
z
" clip-path="url(#pb8b43277aa)" style="fill: #1f77b4; fill-opacity: 0.2; stroke: #ffffff; stroke-width: 0.5; stroke-linejoin: miter"/>
   </g>
   <g id="patch_20">
    <path d="M 495.393732 391.76 
L 510.855405 391.76 
L 510.855405 311.743676 
L 495.393732 311.743676 
z
" clip-path="url(#pb8b43277aa)" style="fill: #1f77b4; fill-opacity: 0.2; stroke: #ffffff; stroke-width: 0.5; stroke-linejoin: miter"/>
   </g>
   <g id="patch_21">
    <path d="M 510.855405 391.76 
L 526.317077 391.76 
L 526.317077 266.020062 
L 510.855405 266.020062 
z
" clip-path="url(#pb8b43277aa)" style="fill: #1f77b4; fill-opacity: 0.2; stroke: #ffffff; stroke-width: 0.5; stroke-linejoin: miter"/>
   </g>
   <g id="patch_22">
    <path d="M 526.317077 391.76 
L 541.778749 391.76 
L 541.778749 191.719189 
L 526.317077 191.719189 
z
" clip-path="url(#pb8b43277aa)" style="fill: #1f77b4; fill-opacity: 0.2; stroke: #ffffff; stroke-width: 0.5; stroke-linejoin: miter"/>
   </g>
   <g id="patch_23">
    <path d="M 541.778749 391.76 
L 557.240421 391.76 
L 557.240421 171.715108 
L 541.778749 171.715108 
z
" clip-path="url(#pb8b43277aa)" style="fill: #1f77b4; fill-opacity: 0.2; stroke: #ffffff; stroke-width: 0.5; stroke-linejoin: miter"/>
   </g>
   <g id="patch_24">
    <path d="M 557.240421 391.76 
L 572.702093 391.76 
L 572.702093 183.146011 
L 557.240421 183.146011 
z
" clip-path="url(#pb8b43277aa)" style="fill: #1f77b4; fill-opacity: 0.2; stroke: #ffffff; stroke-width: 0.5; stroke-linejoin: miter"/>
   </g>
   <g id="patch_25">
    <path d="M 572.702093 391.76 
L 588.163766 391.76 
L 588.163766 211.72327 
L 572.702093 211.72327 
z
" clip-path="url(#pb8b43277aa)" style="fill: #1f77b4; fill-opacity: 0.2; stroke: #ffffff; stroke-width: 0.5; stroke-linejoin: miter"/>
   </g>
   <g id="patch_26">
    <path d="M 588.163766 391.76 
L 603.625438 391.76 
L 603.625438 306.028224 
L 588.163766 306.028224 
z
" clip-path="url(#pb8b43277aa)" style="fill: #1f77b4; fill-opacity: 0.2; stroke: #ffffff; stroke-width: 0.5; stroke-linejoin: miter"/>
   </g>
   <g id="patch_27">
    <path d="M 603.625438 391.76 
L 619.08711 391.76 
L 619.08711 306.028224 
L 603.625438 306.028224 
z
" clip-path="url(#pb8b43277aa)" style="fill: #1f77b4; fill-opacity: 0.2; stroke: #ffffff; stroke-width: 0.5; stroke-linejoin: miter"/>
   </g>
   <g id="patch_28">
    <path d="M 619.08711 391.76 
L 634.548782 391.76 
L 634.548782 366.040467 
L 619.08711 366.040467 
z
" clip-path="url(#pb8b43277aa)" style="fill: #1f77b4; fill-opacity: 0.2; stroke: #ffffff; stroke-width: 0.5; stroke-linejoin: miter"/>
   </g>
   <g id="patch_29">
    <path d="M 634.548782 391.76 
L 650.010455 391.76 
L 650.010455 363.182741 
L 634.548782 363.182741 
z
" clip-path="url(#pb8b43277aa)" style="fill: #1f77b4; fill-opacity: 0.2; stroke: #ffffff; stroke-width: 0.5; stroke-linejoin: miter"/>
   </g>
   <g id="matplotlib.axis_3">
    <g id="xtick_7">
     <g id="line2d_16">
      <g>
       <use xlink:href="#m7ff4380ec3" x="427.542026" y="391.76" style="stroke: #000000; stroke-width: 0.8"/>
      </g>
     </g>
    </g>
    <g id="xtick_8">
     <g id="line2d_17">
      <g>
       <use xlink:href="#m7ff4380ec3" x="483.433601" y="391.76" style="stroke: #000000; stroke-width: 0.8"/>
      </g>
     </g>
    </g>
    <g id="xtick_9">
     <g id="line2d_18">
      <g>
       <use xlink:href="#m7ff4380ec3" x="539.325175" y="391.76" style="stroke: #000000; stroke-width: 0.8"/>
      </g>
     </g>
    </g>
    <g id="xtick_10">
     <g id="line2d_19">
      <g>
       <use xlink:href="#m7ff4380ec3" x="595.21675" y="391.76" style="stroke: #000000; stroke-width: 0.8"/>
      </g>
     </g>
    </g>
    <g id="xtick_11">
     <g id="line2d_20">
      <g>
       <use xlink:href="#m7ff4380ec3" x="651.108325" y="391.76" style="stroke: #000000; stroke-width: 0.8"/>
      </g>
     </g>
    </g>
    <g id="xtick_12">
     <g id="line2d_21">
      <g>
       <use xlink:href="#m7ff4380ec3" x="706.999899" y="391.76" style="stroke: #000000; stroke-width: 0.8"/>
      </g>
     </g>
    </g>
   </g>
   <g id="matplotlib.axis_4">
    <g id="ytick_7">
     <g id="line2d_22">
      <g>
       <use xlink:href="#m7ba260b7e0" x="395.08" y="391.76" style="stroke: #000000; stroke-width: 0.8"/>
      </g>
     </g>
    </g>
    <g id="ytick_8">
     <g id="line2d_23">
      <g>
       <use xlink:href="#m7ba260b7e0" x="395.08" y="334.605483" style="stroke: #000000; stroke-width: 0.8"/>
      </g>
     </g>
    </g>
    <g id="ytick_9">
     <g id="line2d_24">
      <g>
       <use xlink:href="#m7ba260b7e0" x="395.08" y="277.450965" style="stroke: #000000; stroke-width: 0.8"/>
      </g>
     </g>
    </g>
    <g id="ytick_10">
     <g id="line2d_25">
      <g>
       <use xlink:href="#m7ba260b7e0" x="395.08" y="220.296448" style="stroke: #000000; stroke-width: 0.8"/>
      </g>
     </g>
    </g>
    <g id="ytick_11">
     <g id="line2d_26">
      <g>
       <use xlink:href="#m7ba260b7e0" x="395.08" y="163.14193" style="stroke: #000000; stroke-width: 0.8"/>
      </g>
     </g>
    </g>
    <g id="ytick_12">
     <g id="line2d_27">
      <g>
       <use xlink:href="#m7ba260b7e0" x="395.08" y="105.987413" style="stroke: #000000; stroke-width: 0.8"/>
      </g>
     </g>
    </g>
   </g>
   <g id="line2d_28">
    <path d="M 464.470388 387.680766 
L 466.335112 386.815826 
L 468.199837 385.765314 
L 470.064561 384.489394 
L 471.929285 382.947154 
L 473.794009 381.0992 
L 475.658734 378.910265 
L 477.523458 376.351809 
L 479.388182 373.404727 
L 481.252907 370.062268 
L 483.117631 366.333098 
L 485.914717 360.078247 
L 488.711804 353.190628 
L 501.764874 319.862936 
L 506.426684 308.320659 
L 509.223771 300.749223 
L 512.020857 292.305791 
L 514.817944 282.817674 
L 517.61503 272.290247 
L 520.412117 260.907817 
L 530.6681 218.143538 
L 533.465187 208.164287 
L 535.329911 202.248268 
L 537.194635 196.961802 
L 539.059359 192.301092 
L 540.924084 188.235956 
L 542.788808 184.721863 
L 544.653532 181.714417 
L 546.518257 179.183125 
L 548.382981 177.121107 
L 550.247705 175.548238 
L 551.180067 174.957849 
L 552.112429 174.506874 
L 553.044792 174.202377 
L 553.977154 174.051287 
L 554.909516 174.05993 
L 555.841878 174.233604 
L 556.77424 174.576202 
L 557.706602 175.089925 
L 558.638964 175.775092 
L 559.571327 176.630056 
L 561.436051 178.833203 
L 563.300775 181.650306 
L 565.165499 185.012095 
L 567.030224 188.840759 
L 569.82731 195.301765 
L 572.624397 202.473313 
L 575.421483 210.293404 
L 578.218569 218.799089 
L 581.015656 228.053254 
L 583.812742 238.042001 
L 588.474553 255.75531 
L 592.204002 269.775132 
L 595.001088 279.454707 
L 596.865812 285.316017 
L 598.730537 290.66012 
L 600.595261 295.511309 
L 603.392347 302.032429 
L 607.121796 309.911325 
L 612.715969 321.681482 
L 617.37778 332.137852 
L 622.03959 342.547954 
L 624.836677 348.287501 
L 627.633763 353.38641 
L 629.498487 356.377868 
L 631.363212 359.044649 
L 633.227936 361.417163 
L 636.025022 364.54168 
L 639.754471 368.255004 
L 645.348644 373.805318 
L 650.010455 378.712024 
L 650.010455 378.712024 
" clip-path="url(#pb8b43277aa)" style="fill: none; stroke: #1f77b4; stroke-width: 1.5; stroke-linecap: square"/>
   </g>
   <g id="line2d_29">
    <path d="M 557.658118 391.76 
L 557.658118 66.48 
" clip-path="url(#pb8b43277aa)" style="fill: none; stroke: #ff0000; stroke-width: 1.5; stroke-linecap: square"/>
   </g>
   <g id="line2d_30">
    <path d="M 539.325175 391.76 
L 539.325175 66.48 
" clip-path="url(#pb8b43277aa)" style="fill: none; stroke-dasharray: 1.85,0.8; stroke-dashoffset: 0; stroke: #000000; stroke-width: 0.5"/>
   </g>
   <g id="patch_30">
    <path d="M 395.08 391.76 
L 395.08 66.48 
" style="fill: none; stroke: #000000; stroke-width: 0.8; stroke-linejoin: miter; stroke-linecap: square"/>
   </g>
   <g id="patch_31">
    <path d="M 395.08 391.76 
L 724.99 391.76 
" style="fill: none; stroke: #000000; stroke-width: 0.8; stroke-linejoin: miter; stroke-linecap: square"/>
   </g>
   <g id="text_9">
    <!-- SPD -->
    <g transform="translate(547.988125 60.48) scale(0.12 -0.12)">
     <defs>
      <path id="DejaVuSans-50" d="M 1259 4147 
L 1259 2394 
L 2053 2394 
Q 2494 2394 2734 2622 
Q 2975 2850 2975 3272 
Q 2975 3691 2734 3919 
Q 2494 4147 2053 4147 
L 1259 4147 
z
M 628 4666 
L 2053 4666 
Q 2838 4666 3239 4311 
Q 3641 3956 3641 3272 
Q 3641 2581 3239 2228 
Q 2838 1875 2053 1875 
L 1259 1875 
L 1259 0 
L 628 0 
L 628 4666 
z
" transform="scale(0.015625)"/>
     </defs>
     <use xlink:href="#DejaVuSans-53"/>
     <use xlink:href="#DejaVuSans-50" transform="translate(63.476562 0)"/>
     <use xlink:href="#DejaVuSans-44" transform="translate(123.779297 0)"/>
    </g>
   </g>
  </g>
  <g id="axes_3">
   <g id="patch_32">
    <path d="M 739.29 391.76 
L 1069.2 391.76 
L 1069.2 66.48 
L 739.29 66.48 
z
" style="fill: #ffffff"/>
   </g>
   <g id="patch_33">
    <path d="M 790.51954 391.76 
L 812.493253 391.76 
L 812.493253 386.044548 
L 790.51954 386.044548 
z
" clip-path="url(#p972e1ed03e)" style="fill: #1f77b4; fill-opacity: 0.2; stroke: #ffffff; stroke-width: 0.5; stroke-linejoin: miter"/>
   </g>
   <g id="patch_34">
    <path d="M 812.493253 391.76 
L 834.466965 391.76 
L 834.466965 326.032305 
L 812.493253 326.032305 
z
" clip-path="url(#p972e1ed03e)" style="fill: #1f77b4; fill-opacity: 0.2; stroke: #ffffff; stroke-width: 0.5; stroke-linejoin: miter"/>
   </g>
   <g id="patch_35">
    <path d="M 834.466965 391.76 
L 856.440678 391.76 
L 856.440678 171.715108 
L 834.466965 171.715108 
z
" clip-path="url(#p972e1ed03e)" style="fill: #1f77b4; fill-opacity: 0.2; stroke: #ffffff; stroke-width: 0.5; stroke-linejoin: miter"/>
   </g>
   <g id="patch_36">
    <path d="M 856.440678 391.76 
L 878.41439 391.76 
L 878.41439 88.841057 
L 856.440678 88.841057 
z
" clip-path="url(#p972e1ed03e)" style="fill: #1f77b4; fill-opacity: 0.2; stroke: #ffffff; stroke-width: 0.5; stroke-linejoin: miter"/>
   </g>
   <g id="patch_37">
    <path d="M 878.41439 391.76 
L 900.388103 391.76 
L 900.388103 128.84922 
L 878.41439 128.84922 
z
" clip-path="url(#p972e1ed03e)" style="fill: #1f77b4; fill-opacity: 0.2; stroke: #ffffff; stroke-width: 0.5; stroke-linejoin: miter"/>
   </g>
   <g id="patch_38">
    <path d="M 900.388103 391.76 
L 922.361816 391.76 
L 922.361816 157.426478 
L 900.388103 157.426478 
z
" clip-path="url(#p972e1ed03e)" style="fill: #1f77b4; fill-opacity: 0.2; stroke: #ffffff; stroke-width: 0.5; stroke-linejoin: miter"/>
   </g>
   <g id="patch_39">
    <path d="M 922.361816 391.76 
L 944.335528 391.76 
L 944.335528 280.308691 
L 922.361816 280.308691 
z
" clip-path="url(#p972e1ed03e)" style="fill: #1f77b4; fill-opacity: 0.2; stroke: #ffffff; stroke-width: 0.5; stroke-linejoin: miter"/>
   </g>
   <g id="patch_40">
    <path d="M 944.335528 391.76 
L 966.309241 391.76 
L 966.309241 348.894112 
L 944.335528 348.894112 
z
" clip-path="url(#p972e1ed03e)" style="fill: #1f77b4; fill-opacity: 0.2; stroke: #ffffff; stroke-width: 0.5; stroke-linejoin: miter"/>
   </g>
   <g id="patch_41">
    <path d="M 966.309241 391.76 
L 988.282953 391.76 
L 988.282953 380.329097 
L 966.309241 380.329097 
z
" clip-path="url(#p972e1ed03e)" style="fill: #1f77b4; fill-opacity: 0.2; stroke: #ffffff; stroke-width: 0.5; stroke-linejoin: miter"/>
   </g>
   <g id="patch_42">
    <path d="M 988.282953 391.76 
L 1010.256666 391.76 
L 1010.256666 383.186822 
L 988.282953 383.186822 
z
" clip-path="url(#p972e1ed03e)" style="fill: #1f77b4; fill-opacity: 0.2; stroke: #ffffff; stroke-width: 0.5; stroke-linejoin: miter"/>
   </g>
   <g id="patch_43">
    <path d="M 1010.256666 391.76 
L 1032.230378 391.76 
L 1032.230378 391.76 
L 1010.256666 391.76 
z
" clip-path="url(#p972e1ed03e)" style="fill: #1f77b4; fill-opacity: 0.2; stroke: #ffffff; stroke-width: 0.5; stroke-linejoin: miter"/>
   </g>
   <g id="patch_44">
    <path d="M 1032.230378 391.76 
L 1054.204091 391.76 
L 1054.204091 388.902274 
L 1032.230378 388.902274 
z
" clip-path="url(#p972e1ed03e)" style="fill: #1f77b4; fill-opacity: 0.2; stroke: #ffffff; stroke-width: 0.5; stroke-linejoin: miter"/>
   </g>
   <g id="matplotlib.axis_5">
    <g id="xtick_13">
     <g id="line2d_31">
      <g>
       <use xlink:href="#m7ff4380ec3" x="771.752026" y="391.76" style="stroke: #000000; stroke-width: 0.8"/>
      </g>
     </g>
    </g>
    <g id="xtick_14">
     <g id="line2d_32">
      <g>
       <use xlink:href="#m7ff4380ec3" x="827.643601" y="391.76" style="stroke: #000000; stroke-width: 0.8"/>
      </g>
     </g>
    </g>
    <g id="xtick_15">
     <g id="line2d_33">
      <g>
       <use xlink:href="#m7ff4380ec3" x="883.535175" y="391.76" style="stroke: #000000; stroke-width: 0.8"/>
      </g>
     </g>
    </g>
    <g id="xtick_16">
     <g id="line2d_34">
      <g>
       <use xlink:href="#m7ff4380ec3" x="939.42675" y="391.76" style="stroke: #000000; stroke-width: 0.8"/>
      </g>
     </g>
    </g>
    <g id="xtick_17">
     <g id="line2d_35">
      <g>
       <use xlink:href="#m7ff4380ec3" x="995.318325" y="391.76" style="stroke: #000000; stroke-width: 0.8"/>
      </g>
     </g>
    </g>
    <g id="xtick_18">
     <g id="line2d_36">
      <g>
       <use xlink:href="#m7ff4380ec3" x="1051.209899" y="391.76" style="stroke: #000000; stroke-width: 0.8"/>
      </g>
     </g>
    </g>
   </g>
   <g id="matplotlib.axis_6">
    <g id="ytick_13">
     <g id="line2d_37">
      <g>
       <use xlink:href="#m7ba260b7e0" x="739.29" y="391.76" style="stroke: #000000; stroke-width: 0.8"/>
      </g>
     </g>
    </g>
    <g id="ytick_14">
     <g id="line2d_38">
      <g>
       <use xlink:href="#m7ba260b7e0" x="739.29" y="334.605483" style="stroke: #000000; stroke-width: 0.8"/>
      </g>
     </g>
    </g>
    <g id="ytick_15">
     <g id="line2d_39">
      <g>
       <use xlink:href="#m7ba260b7e0" x="739.29" y="277.450965" style="stroke: #000000; stroke-width: 0.8"/>
      </g>
     </g>
    </g>
    <g id="ytick_16">
     <g id="line2d_40">
      <g>
       <use xlink:href="#m7ba260b7e0" x="739.29" y="220.296448" style="stroke: #000000; stroke-width: 0.8"/>
      </g>
     </g>
    </g>
    <g id="ytick_17">
     <g id="line2d_41">
      <g>
       <use xlink:href="#m7ba260b7e0" x="739.29" y="163.14193" style="stroke: #000000; stroke-width: 0.8"/>
      </g>
     </g>
    </g>
    <g id="ytick_18">
     <g id="line2d_42">
      <g>
       <use xlink:href="#m7ba260b7e0" x="739.29" y="105.987413" style="stroke: #000000; stroke-width: 0.8"/>
      </g>
     </g>
    </g>
   </g>
   <g id="line2d_43">
    <path d="M 790.51954 386.45491 
L 797.14478 385.489381 
L 798.469828 385.13653 
L 799.794876 384.655148 
L 801.119924 384.007395 
L 802.444972 383.154358 
L 803.77002 382.05698 
L 805.095068 380.676921 
L 806.420116 378.977347 
L 807.745164 376.923646 
L 809.070212 374.484116 
L 810.39526 371.630637 
L 811.720308 368.339366 
L 813.045356 364.591449 
L 814.370404 360.373738 
L 815.695452 355.679485 
L 817.0205 350.508926 
L 819.670596 338.777058 
L 822.320692 325.329214 
L 824.970788 310.425519 
L 828.945932 286.093538 
L 842.196412 202.099643 
L 844.846508 186.846333 
L 847.496604 172.533963 
L 850.1467 159.216723 
L 852.796796 146.856894 
L 855.446892 135.336695 
L 859.422036 119.318643 
L 862.072132 109.396408 
L 864.722228 100.248231 
L 866.047276 96.086126 
L 867.372324 92.29409 
L 868.697372 88.958246 
L 870.02242 86.170698 
L 871.347468 84.023189 
L 872.672516 82.599837 
L 873.997564 81.969524 
L 875.322612 82.178598 
L 876.64766 83.244617 
L 877.972708 85.1518 
L 879.297756 87.848759 
L 880.622804 91.248895 
L 881.947852 95.233623 
L 884.597948 104.360588 
L 888.573092 118.460218 
L 889.89814 122.660529 
L 891.223188 126.427851 
L 892.548236 129.707685 
L 893.873284 132.488435 
L 895.198332 134.801572 
L 896.52338 136.718641 
L 899.173476 139.813627 
L 901.823572 142.871417 
L 903.14862 144.762256 
L 904.473668 147.076502 
L 905.798716 149.92343 
L 907.123764 153.382606 
L 908.448812 157.500159 
L 909.77386 162.287655 
L 911.098908 167.723468 
L 912.423956 173.756332 
L 915.074052 187.292819 
L 919.049196 209.748364 
L 923.02434 232.370572 
L 925.674436 246.563548 
L 928.324532 259.724083 
L 930.974628 271.828276 
L 933.624724 282.987878 
L 936.274819 293.35213 
L 938.924915 303.024532 
L 941.575011 312.018832 
L 944.225107 320.266135 
L 946.875203 327.66606 
L 949.525299 334.15638 
L 952.175395 339.767508 
L 954.825491 344.636289 
L 957.475587 348.974074 
L 961.450731 354.964605 
L 969.401019 366.428015 
L 972.051115 369.990491 
L 974.701211 373.243147 
L 977.351307 376.081394 
L 980.001403 378.437192 
L 982.651499 380.287719 
L 985.301595 381.655441 
L 987.951691 382.603293 
L 990.601787 383.226992 
L 994.576931 383.815298 
L 999.877123 384.581024 
L 1002.527219 385.153955 
L 1006.502363 386.316455 
L 1017.102747 389.854824 
L 1019.752843 390.477104 
L 1022.402939 390.932737 
L 1026.378083 391.327677 
L 1030.353227 391.435421 
L 1034.328371 391.309724 
L 1038.303515 390.983222 
L 1044.928755 390.14529 
L 1050.228947 389.548117 
L 1054.204091 389.385559 
L 1054.204091 389.385559 
" clip-path="url(#p972e1ed03e)" style="fill: none; stroke: #1f77b4; stroke-width: 1.5; stroke-linecap: square"/>
   </g>
   <g id="line2d_44">
    <path d="M 884.656417 391.76 
L 884.656417 66.48 
" clip-path="url(#p972e1ed03e)" style="fill: none; stroke: #ff0000; stroke-width: 1.5; stroke-linecap: square"/>
   </g>
   <g id="line2d_45">
    <path d="M 883.535175 391.76 
L 883.535175 66.48 
" clip-path="url(#p972e1ed03e)" style="fill: none; stroke-dasharray: 1.85,0.8; stroke-dashoffset: 0; stroke: #000000; stroke-width: 0.5"/>
   </g>
   <g id="patch_45">
    <path d="M 739.29 391.76 
L 739.29 66.48 
" style="fill: none; stroke: #000000; stroke-width: 0.8; stroke-linejoin: miter; stroke-linecap: square"/>
   </g>
   <g id="patch_46">
    <path d="M 739.29 391.76 
L 1069.2 391.76 
" style="fill: none; stroke: #000000; stroke-width: 0.8; stroke-linejoin: miter; stroke-linecap: square"/>
   </g>
   <g id="text_10">
    <!-- GRÜNE -->
    <g transform="translate(882.755625 60.48) scale(0.12 -0.12)">
     <defs>
      <path id="DejaVuSans-47" d="M 3809 666 
L 3809 1919 
L 2778 1919 
L 2778 2438 
L 4434 2438 
L 4434 434 
Q 4069 175 3628 42 
Q 3188 -91 2688 -91 
Q 1594 -91 976 548 
Q 359 1188 359 2328 
Q 359 3472 976 4111 
Q 1594 4750 2688 4750 
Q 3144 4750 3555 4637 
Q 3966 4525 4313 4306 
L 4313 3634 
Q 3963 3931 3569 4081 
Q 3175 4231 2741 4231 
Q 1884 4231 1454 3753 
Q 1025 3275 1025 2328 
Q 1025 1384 1454 906 
Q 1884 428 2741 428 
Q 3075 428 3337 486 
Q 3600 544 3809 666 
z
" transform="scale(0.015625)"/>
      <path id="DejaVuSans-52" d="M 2841 2188 
Q 3044 2119 3236 1894 
Q 3428 1669 3622 1275 
L 4263 0 
L 3584 0 
L 2988 1197 
Q 2756 1666 2539 1819 
Q 2322 1972 1947 1972 
L 1259 1972 
L 1259 0 
L 628 0 
L 628 4666 
L 2053 4666 
Q 2853 4666 3247 4331 
Q 3641 3997 3641 3322 
Q 3641 2881 3436 2590 
Q 3231 2300 2841 2188 
z
M 1259 4147 
L 1259 2491 
L 2053 2491 
Q 2509 2491 2742 2702 
Q 2975 2913 2975 3322 
Q 2975 3731 2742 3939 
Q 2509 4147 2053 4147 
L 1259 4147 
z
" transform="scale(0.015625)"/>
      <path id="DejaVuSans-dc" d="M 556 4666 
L 1191 4666 
L 1191 1831 
Q 1191 1081 1462 751 
Q 1734 422 2344 422 
Q 2950 422 3222 751 
Q 3494 1081 3494 1831 
L 3494 4666 
L 4128 4666 
L 4128 1753 
Q 4128 841 3676 375 
Q 3225 -91 2344 -91 
Q 1459 -91 1007 375 
Q 556 841 556 1753 
L 556 4666 
z
M 2638 5830 
L 3272 5830 
L 3272 5196 
L 2638 5196 
L 2638 5830 
z
M 1416 5830 
L 2050 5830 
L 2050 5196 
L 1416 5196 
L 1416 5830 
z
" transform="scale(0.015625)"/>
      <path id="DejaVuSans-4e" d="M 628 4666 
L 1478 4666 
L 3547 763 
L 3547 4666 
L 4159 4666 
L 4159 0 
L 3309 0 
L 1241 3903 
L 1241 0 
L 628 0 
L 628 4666 
z
" transform="scale(0.015625)"/>
      <path id="DejaVuSans-45" d="M 628 4666 
L 3578 4666 
L 3578 4134 
L 1259 4134 
L 1259 2753 
L 3481 2753 
L 3481 2222 
L 1259 2222 
L 1259 531 
L 3634 531 
L 3634 0 
L 628 0 
L 628 4666 
z
" transform="scale(0.015625)"/>
     </defs>
     <use xlink:href="#DejaVuSans-47"/>
     <use xlink:href="#DejaVuSans-52" transform="translate(77.490234 0)"/>
     <use xlink:href="#DejaVuSans-dc" transform="translate(146.972656 0)"/>
     <use xlink:href="#DejaVuSans-4e" transform="translate(220.166016 0)"/>
     <use xlink:href="#DejaVuSans-45" transform="translate(294.970703 0)"/>
    </g>
   </g>
   <g id="legend_1">
    <g id="patch_47">
     <path d="M 883.914062 118.514375 
L 1062.2 118.514375 
Q 1064.2 118.514375 1064.2 116.514375 
L 1064.2 73.48 
Q 1064.2 71.48 1062.2 71.48 
L 883.914062 71.48 
Q 881.914062 71.48 881.914062 73.48 
L 881.914062 116.514375 
Q 881.914062 118.514375 883.914062 118.514375 
z
" style="fill: #ffffff; opacity: 0.8; stroke: #cccccc; stroke-linejoin: miter"/>
    </g>
    <g id="line2d_46">
     <path d="M 885.914062 79.578438 
L 895.914062 79.578438 
L 905.914062 79.578438 
" style="fill: none; stroke: #ff0000; stroke-width: 1.5; stroke-linecap: square"/>
    </g>
    <g id="text_11">
     <!-- mean deviation -->
     <g transform="translate(913.914062 83.078438) scale(0.1 -0.1)">
      <defs>
       <path id="DejaVuSans-6d" d="M 3328 2828 
Q 3544 3216 3844 3400 
Q 4144 3584 4550 3584 
Q 5097 3584 5394 3201 
Q 5691 2819 5691 2113 
L 5691 0 
L 5113 0 
L 5113 2094 
Q 5113 2597 4934 2840 
Q 4756 3084 4391 3084 
Q 3944 3084 3684 2787 
Q 3425 2491 3425 1978 
L 3425 0 
L 2847 0 
L 2847 2094 
Q 2847 2600 2669 2842 
Q 2491 3084 2119 3084 
Q 1678 3084 1418 2786 
Q 1159 2488 1159 1978 
L 1159 0 
L 581 0 
L 581 3500 
L 1159 3500 
L 1159 2956 
Q 1356 3278 1631 3431 
Q 1906 3584 2284 3584 
Q 2666 3584 2933 3390 
Q 3200 3197 3328 2828 
z
" transform="scale(0.015625)"/>
       <path id="DejaVuSans-65" d="M 3597 1894 
L 3597 1613 
L 953 1613 
Q 991 1019 1311 708 
Q 1631 397 2203 397 
Q 2534 397 2845 478 
Q 3156 559 3463 722 
L 3463 178 
Q 3153 47 2828 -22 
Q 2503 -91 2169 -91 
Q 1331 -91 842 396 
Q 353 884 353 1716 
Q 353 2575 817 3079 
Q 1281 3584 2069 3584 
Q 2775 3584 3186 3129 
Q 3597 2675 3597 1894 
z
M 3022 2063 
Q 3016 2534 2758 2815 
Q 2500 3097 2075 3097 
Q 1594 3097 1305 2825 
Q 1016 2553 972 2059 
L 3022 2063 
z
" transform="scale(0.015625)"/>
       <path id="DejaVuSans-61" d="M 2194 1759 
Q 1497 1759 1228 1600 
Q 959 1441 959 1056 
Q 959 750 1161 570 
Q 1363 391 1709 391 
Q 2188 391 2477 730 
Q 2766 1069 2766 1631 
L 2766 1759 
L 2194 1759 
z
M 3341 1997 
L 3341 0 
L 2766 0 
L 2766 531 
Q 2569 213 2275 61 
Q 1981 -91 1556 -91 
Q 1019 -91 701 211 
Q 384 513 384 1019 
Q 384 1609 779 1909 
Q 1175 2209 1959 2209 
L 2766 2209 
L 2766 2266 
Q 2766 2663 2505 2880 
Q 2244 3097 1772 3097 
Q 1472 3097 1187 3025 
Q 903 2953 641 2809 
L 641 3341 
Q 956 3463 1253 3523 
Q 1550 3584 1831 3584 
Q 2591 3584 2966 3190 
Q 3341 2797 3341 1997 
z
" transform="scale(0.015625)"/>
       <path id="DejaVuSans-20" transform="scale(0.015625)"/>
       <path id="DejaVuSans-64" d="M 2906 2969 
L 2906 4863 
L 3481 4863 
L 3481 0 
L 2906 0 
L 2906 525 
Q 2725 213 2448 61 
Q 2172 -91 1784 -91 
Q 1150 -91 751 415 
Q 353 922 353 1747 
Q 353 2572 751 3078 
Q 1150 3584 1784 3584 
Q 2172 3584 2448 3432 
Q 2725 3281 2906 2969 
z
M 947 1747 
Q 947 1113 1208 752 
Q 1469 391 1925 391 
Q 2381 391 2643 752 
Q 2906 1113 2906 1747 
Q 2906 2381 2643 2742 
Q 2381 3103 1925 3103 
Q 1469 3103 1208 2742 
Q 947 2381 947 1747 
z
" transform="scale(0.015625)"/>
       <path id="DejaVuSans-76" d="M 191 3500 
L 800 3500 
L 1894 563 
L 2988 3500 
L 3597 3500 
L 2284 0 
L 1503 0 
L 191 3500 
z
" transform="scale(0.015625)"/>
       <path id="DejaVuSans-69" d="M 603 3500 
L 1178 3500 
L 1178 0 
L 603 0 
L 603 3500 
z
M 603 4863 
L 1178 4863 
L 1178 4134 
L 603 4134 
L 603 4863 
z
" transform="scale(0.015625)"/>
      </defs>
      <use xlink:href="#DejaVuSans-6d"/>
      <use xlink:href="#DejaVuSans-65" transform="translate(97.412109 0)"/>
      <use xlink:href="#DejaVuSans-61" transform="translate(158.935547 0)"/>
      <use xlink:href="#DejaVuSans-6e" transform="translate(220.214844 0)"/>
      <use xlink:href="#DejaVuSans-20" transform="translate(283.59375 0)"/>
      <use xlink:href="#DejaVuSans-64" transform="translate(315.380859 0)"/>
      <use xlink:href="#DejaVuSans-65" transform="translate(378.857422 0)"/>
      <use xlink:href="#DejaVuSans-76" transform="translate(440.380859 0)"/>
      <use xlink:href="#DejaVuSans-69" transform="translate(499.560547 0)"/>
      <use xlink:href="#DejaVuSans-61" transform="translate(527.34375 0)"/>
      <use xlink:href="#DejaVuSans-74" transform="translate(588.623047 0)"/>
      <use xlink:href="#DejaVuSans-69" transform="translate(627.832031 0)"/>
      <use xlink:href="#DejaVuSans-6f" transform="translate(655.615234 0)"/>
      <use xlink:href="#DejaVuSans-6e" transform="translate(716.796875 0)"/>
     </g>
    </g>
    <g id="line2d_47">
     <path d="M 885.914062 94.256563 
L 895.914062 94.256563 
L 905.914062 94.256563 
" style="fill: none; stroke-dasharray: 1.85,0.8; stroke-dashoffset: 0; stroke: #000000; stroke-width: 0.5"/>
    </g>
    <g id="text_12">
     <!-- 30 day average -->
     <g transform="translate(913.914062 97.756563) scale(0.1 -0.1)">
      <defs>
       <path id="DejaVuSans-33" d="M 2597 2516 
Q 3050 2419 3304 2112 
Q 3559 1806 3559 1356 
Q 3559 666 3084 287 
Q 2609 -91 1734 -91 
Q 1441 -91 1130 -33 
Q 819 25 488 141 
L 488 750 
Q 750 597 1062 519 
Q 1375 441 1716 441 
Q 2309 441 2620 675 
Q 2931 909 2931 1356 
Q 2931 1769 2642 2001 
Q 2353 2234 1838 2234 
L 1294 2234 
L 1294 2753 
L 1863 2753 
Q 2328 2753 2575 2939 
Q 2822 3125 2822 3475 
Q 2822 3834 2567 4026 
Q 2313 4219 1838 4219 
Q 1578 4219 1281 4162 
Q 984 4106 628 3988 
L 628 4550 
Q 988 4650 1302 4700 
Q 1616 4750 1894 4750 
Q 2613 4750 3031 4423 
Q 3450 4097 3450 3541 
Q 3450 3153 3228 2886 
Q 3006 2619 2597 2516 
z
" transform="scale(0.015625)"/>
       <path id="DejaVuSans-79" d="M 2059 -325 
Q 1816 -950 1584 -1140 
Q 1353 -1331 966 -1331 
L 506 -1331 
L 506 -850 
L 844 -850 
Q 1081 -850 1212 -737 
Q 1344 -625 1503 -206 
L 1606 56 
L 191 3500 
L 800 3500 
L 1894 763 
L 2988 3500 
L 3597 3500 
L 2059 -325 
z
" transform="scale(0.015625)"/>
       <path id="DejaVuSans-72" d="M 2631 2963 
Q 2534 3019 2420 3045 
Q 2306 3072 2169 3072 
Q 1681 3072 1420 2755 
Q 1159 2438 1159 1844 
L 1159 0 
L 581 0 
L 581 3500 
L 1159 3500 
L 1159 2956 
Q 1341 3275 1631 3429 
Q 1922 3584 2338 3584 
Q 2397 3584 2469 3576 
Q 2541 3569 2628 3553 
L 2631 2963 
z
" transform="scale(0.015625)"/>
       <path id="DejaVuSans-67" d="M 2906 1791 
Q 2906 2416 2648 2759 
Q 2391 3103 1925 3103 
Q 1463 3103 1205 2759 
Q 947 2416 947 1791 
Q 947 1169 1205 825 
Q 1463 481 1925 481 
Q 2391 481 2648 825 
Q 2906 1169 2906 1791 
z
M 3481 434 
Q 3481 -459 3084 -895 
Q 2688 -1331 1869 -1331 
Q 1566 -1331 1297 -1286 
Q 1028 -1241 775 -1147 
L 775 -588 
Q 1028 -725 1275 -790 
Q 1522 -856 1778 -856 
Q 2344 -856 2625 -561 
Q 2906 -266 2906 331 
L 2906 616 
Q 2728 306 2450 153 
Q 2172 0 1784 0 
Q 1141 0 747 490 
Q 353 981 353 1791 
Q 353 2603 747 3093 
Q 1141 3584 1784 3584 
Q 2172 3584 2450 3431 
Q 2728 3278 2906 2969 
L 2906 3500 
L 3481 3500 
L 3481 434 
z
" transform="scale(0.015625)"/>
      </defs>
      <use xlink:href="#DejaVuSans-33"/>
      <use xlink:href="#DejaVuSans-30" transform="translate(63.623047 0)"/>
      <use xlink:href="#DejaVuSans-20" transform="translate(127.246094 0)"/>
      <use xlink:href="#DejaVuSans-64" transform="translate(159.033203 0)"/>
      <use xlink:href="#DejaVuSans-61" transform="translate(222.509766 0)"/>
      <use xlink:href="#DejaVuSans-79" transform="translate(283.789062 0)"/>
      <use xlink:href="#DejaVuSans-20" transform="translate(342.96875 0)"/>
      <use xlink:href="#DejaVuSans-61" transform="translate(374.755859 0)"/>
      <use xlink:href="#DejaVuSans-76" transform="translate(436.035156 0)"/>
      <use xlink:href="#DejaVuSans-65" transform="translate(495.214844 0)"/>
      <use xlink:href="#DejaVuSans-72" transform="translate(556.738281 0)"/>
      <use xlink:href="#DejaVuSans-61" transform="translate(597.851562 0)"/>
      <use xlink:href="#DejaVuSans-67" transform="translate(659.130859 0)"/>
      <use xlink:href="#DejaVuSans-65" transform="translate(722.607422 0)"/>
     </g>
    </g>
    <g id="patch_48">
     <path d="M 885.914062 112.434688 
L 905.914062 112.434688 
L 905.914062 105.434688 
L 885.914062 105.434688 
z
" style="fill: #1f77b4; fill-opacity: 0.2; stroke: #ffffff; stroke-width: 0.5; stroke-linejoin: miter"/>
    </g>
    <g id="text_13">
     <!-- deviations from 30D-average -->
     <g transform="translate(913.914062 112.434688) scale(0.1 -0.1)">
      <defs>
       <path id="DejaVuSans-73" d="M 2834 3397 
L 2834 2853 
Q 2591 2978 2328 3040 
Q 2066 3103 1784 3103 
Q 1356 3103 1142 2972 
Q 928 2841 928 2578 
Q 928 2378 1081 2264 
Q 1234 2150 1697 2047 
L 1894 2003 
Q 2506 1872 2764 1633 
Q 3022 1394 3022 966 
Q 3022 478 2636 193 
Q 2250 -91 1575 -91 
Q 1294 -91 989 -36 
Q 684 19 347 128 
L 347 722 
Q 666 556 975 473 
Q 1284 391 1588 391 
Q 1994 391 2212 530 
Q 2431 669 2431 922 
Q 2431 1156 2273 1281 
Q 2116 1406 1581 1522 
L 1381 1569 
Q 847 1681 609 1914 
Q 372 2147 372 2553 
Q 372 3047 722 3315 
Q 1072 3584 1716 3584 
Q 2034 3584 2315 3537 
Q 2597 3491 2834 3397 
z
" transform="scale(0.015625)"/>
       <path id="DejaVuSans-66" d="M 2375 4863 
L 2375 4384 
L 1825 4384 
Q 1516 4384 1395 4259 
Q 1275 4134 1275 3809 
L 1275 3500 
L 2222 3500 
L 2222 3053 
L 1275 3053 
L 1275 0 
L 697 0 
L 697 3053 
L 147 3053 
L 147 3500 
L 697 3500 
L 697 3744 
Q 697 4328 969 4595 
Q 1241 4863 1831 4863 
L 2375 4863 
z
" transform="scale(0.015625)"/>
       <path id="DejaVuSans-2d" d="M 313 2009 
L 1997 2009 
L 1997 1497 
L 313 1497 
L 313 2009 
z
" transform="scale(0.015625)"/>
      </defs>
      <use xlink:href="#DejaVuSans-64"/>
      <use xlink:href="#DejaVuSans-65" transform="translate(63.476562 0)"/>
      <use xlink:href="#DejaVuSans-76" transform="translate(125 0)"/>
      <use xlink:href="#DejaVuSans-69" transform="translate(184.179688 0)"/>
      <use xlink:href="#DejaVuSans-61" transform="translate(211.962891 0)"/>
      <use xlink:href="#DejaVuSans-74" transform="translate(273.242188 0)"/>
      <use xlink:href="#DejaVuSans-69" transform="translate(312.451172 0)"/>
      <use xlink:href="#DejaVuSans-6f" transform="translate(340.234375 0)"/>
      <use xlink:href="#DejaVuSans-6e" transform="translate(401.416016 0)"/>
      <use xlink:href="#DejaVuSans-73" transform="translate(464.794922 0)"/>
      <use xlink:href="#DejaVuSans-20" transform="translate(516.894531 0)"/>
      <use xlink:href="#DejaVuSans-66" transform="translate(548.681641 0)"/>
      <use xlink:href="#DejaVuSans-72" transform="translate(583.886719 0)"/>
      <use xlink:href="#DejaVuSans-6f" transform="translate(622.75 0)"/>
      <use xlink:href="#DejaVuSans-6d" transform="translate(683.931641 0)"/>
      <use xlink:href="#DejaVuSans-20" transform="translate(781.34375 0)"/>
      <use xlink:href="#DejaVuSans-33" transform="translate(813.130859 0)"/>
      <use xlink:href="#DejaVuSans-30" transform="translate(876.753906 0)"/>
      <use xlink:href="#DejaVuSans-44" transform="translate(940.376953 0)"/>
      <use xlink:href="#DejaVuSans-2d" transform="translate(1017.378906 0)"/>
      <use xlink:href="#DejaVuSans-61" transform="translate(1053.462891 0)"/>
      <use xlink:href="#DejaVuSans-76" transform="translate(1114.742188 0)"/>
      <use xlink:href="#DejaVuSans-65" transform="translate(1173.921875 0)"/>
      <use xlink:href="#DejaVuSans-72" transform="translate(1235.445312 0)"/>
      <use xlink:href="#DejaVuSans-61" transform="translate(1276.558594 0)"/>
      <use xlink:href="#DejaVuSans-67" transform="translate(1337.837891 0)"/>
      <use xlink:href="#DejaVuSans-65" transform="translate(1401.314453 0)"/>
     </g>
    </g>
   </g>
  </g>
  <g id="axes_4">
   <g id="patch_49">
    <path d="M 50.87 750.04 
L 380.78 750.04 
L 380.78 424.76 
L 50.87 424.76 
z
" style="fill: #ffffff"/>
   </g>
   <g id="patch_50">
    <path d="M 116.75053 750.04 
L 126.774141 750.04 
L 126.774141 735.751371 
L 116.75053 735.751371 
z
" clip-path="url(#pab3ee3095c)" style="fill: #1f77b4; fill-opacity: 0.2; stroke: #ffffff; stroke-width: 0.5; stroke-linejoin: miter"/>
   </g>
   <g id="patch_51">
    <path d="M 126.774141 750.04 
L 136.797751 750.04 
L 136.797751 704.316386 
L 126.774141 704.316386 
z
" clip-path="url(#pab3ee3095c)" style="fill: #1f77b4; fill-opacity: 0.2; stroke: #ffffff; stroke-width: 0.5; stroke-linejoin: miter"/>
   </g>
   <g id="patch_52">
    <path d="M 136.797751 750.04 
L 146.821362 750.04 
L 146.821362 690.027757 
L 136.797751 690.027757 
z
" clip-path="url(#pab3ee3095c)" style="fill: #1f77b4; fill-opacity: 0.2; stroke: #ffffff; stroke-width: 0.5; stroke-linejoin: miter"/>
   </g>
   <g id="patch_53">
    <path d="M 146.821362 750.04 
L 156.844972 750.04 
L 156.844972 644.304143 
L 146.821362 644.304143 
z
" clip-path="url(#pab3ee3095c)" style="fill: #1f77b4; fill-opacity: 0.2; stroke: #ffffff; stroke-width: 0.5; stroke-linejoin: miter"/>
   </g>
   <g id="patch_54">
    <path d="M 156.844972 750.04 
L 166.868583 750.04 
L 166.868583 598.580529 
L 156.844972 598.580529 
z
" clip-path="url(#pab3ee3095c)" style="fill: #1f77b4; fill-opacity: 0.2; stroke: #ffffff; stroke-width: 0.5; stroke-linejoin: miter"/>
   </g>
   <g id="patch_55">
    <path d="M 166.868583 750.04 
L 176.892193 750.04 
L 176.892193 521.42193 
L 166.868583 521.42193 
z
" clip-path="url(#pab3ee3095c)" style="fill: #1f77b4; fill-opacity: 0.2; stroke: #ffffff; stroke-width: 0.5; stroke-linejoin: miter"/>
   </g>
   <g id="patch_56">
    <path d="M 176.892193 750.04 
L 186.915804 750.04 
L 186.915804 515.706478 
L 176.892193 515.706478 
z
" clip-path="url(#pab3ee3095c)" style="fill: #1f77b4; fill-opacity: 0.2; stroke: #ffffff; stroke-width: 0.5; stroke-linejoin: miter"/>
   </g>
   <g id="patch_57">
    <path d="M 186.915804 750.04 
L 196.939414 750.04 
L 196.939414 549.999189 
L 186.915804 549.999189 
z
" clip-path="url(#pab3ee3095c)" style="fill: #1f77b4; fill-opacity: 0.2; stroke: #ffffff; stroke-width: 0.5; stroke-linejoin: miter"/>
   </g>
   <g id="patch_58">
    <path d="M 196.939414 750.04 
L 206.963025 750.04 
L 206.963025 650.019594 
L 196.939414 650.019594 
z
" clip-path="url(#pab3ee3095c)" style="fill: #1f77b4; fill-opacity: 0.2; stroke: #ffffff; stroke-width: 0.5; stroke-linejoin: miter"/>
   </g>
   <g id="patch_59">
    <path d="M 206.963025 750.04 
L 216.986635 750.04 
L 216.986635 670.023676 
L 206.963025 670.023676 
z
" clip-path="url(#pab3ee3095c)" style="fill: #1f77b4; fill-opacity: 0.2; stroke: #ffffff; stroke-width: 0.5; stroke-linejoin: miter"/>
   </g>
   <g id="patch_60">
    <path d="M 216.986635 750.04 
L 227.010246 750.04 
L 227.010246 735.751371 
L 216.986635 735.751371 
z
" clip-path="url(#pab3ee3095c)" style="fill: #1f77b4; fill-opacity: 0.2; stroke: #ffffff; stroke-width: 0.5; stroke-linejoin: miter"/>
   </g>
   <g id="patch_61">
    <path d="M 227.010246 750.04 
L 237.033856 750.04 
L 237.033856 738.609097 
L 227.010246 738.609097 
z
" clip-path="url(#pab3ee3095c)" style="fill: #1f77b4; fill-opacity: 0.2; stroke: #ffffff; stroke-width: 0.5; stroke-linejoin: miter"/>
   </g>
   <g id="matplotlib.axis_7">
    <g id="xtick_19">
     <g id="line2d_48">
      <g>
       <use xlink:href="#m7ff4380ec3" x="83.332026" y="750.04" style="stroke: #000000; stroke-width: 0.8"/>
      </g>
     </g>
     <g id="text_14">
      <!-- −4 -->
      <g transform="translate(75.960932 764.638438) scale(0.1 -0.1)">
       <defs>
        <path id="DejaVuSans-2212" d="M 678 2272 
L 4684 2272 
L 4684 1741 
L 678 1741 
L 678 2272 
z
" transform="scale(0.015625)"/>
       </defs>
       <use xlink:href="#DejaVuSans-2212"/>
       <use xlink:href="#DejaVuSans-34" transform="translate(83.789062 0)"/>
      </g>
     </g>
    </g>
    <g id="xtick_20">
     <g id="line2d_49">
      <g>
       <use xlink:href="#m7ff4380ec3" x="139.223601" y="750.04" style="stroke: #000000; stroke-width: 0.8"/>
      </g>
     </g>
     <g id="text_15">
      <!-- −2 -->
      <g transform="translate(131.852507 764.638438) scale(0.1 -0.1)">
       <use xlink:href="#DejaVuSans-2212"/>
       <use xlink:href="#DejaVuSans-32" transform="translate(83.789062 0)"/>
      </g>
     </g>
    </g>
    <g id="xtick_21">
     <g id="line2d_50">
      <g>
       <use xlink:href="#m7ff4380ec3" x="195.115175" y="750.04" style="stroke: #000000; stroke-width: 0.8"/>
      </g>
     </g>
     <g id="text_16">
      <!-- 0 -->
      <g transform="translate(191.933925 764.638438) scale(0.1 -0.1)">
       <use xlink:href="#DejaVuSans-30"/>
      </g>
     </g>
    </g>
    <g id="xtick_22">
     <g id="line2d_51">
      <g>
       <use xlink:href="#m7ff4380ec3" x="251.00675" y="750.04" style="stroke: #000000; stroke-width: 0.8"/>
      </g>
     </g>
     <g id="text_17">
      <!-- 2 -->
      <g transform="translate(247.8255 764.638438) scale(0.1 -0.1)">
       <use xlink:href="#DejaVuSans-32"/>
      </g>
     </g>
    </g>
    <g id="xtick_23">
     <g id="line2d_52">
      <g>
       <use xlink:href="#m7ff4380ec3" x="306.898325" y="750.04" style="stroke: #000000; stroke-width: 0.8"/>
      </g>
     </g>
     <g id="text_18">
      <!-- 4 -->
      <g transform="translate(303.717075 764.638438) scale(0.1 -0.1)">
       <use xlink:href="#DejaVuSans-34"/>
      </g>
     </g>
    </g>
    <g id="xtick_24">
     <g id="line2d_53">
      <g>
       <use xlink:href="#m7ff4380ec3" x="362.789899" y="750.04" style="stroke: #000000; stroke-width: 0.8"/>
      </g>
     </g>
     <g id="text_19">
      <!-- 6 -->
      <g transform="translate(359.608649 764.638438) scale(0.1 -0.1)">
       <use xlink:href="#DejaVuSans-36"/>
      </g>
     </g>
    </g>
    <g id="text_20">
     <!-- Deviation of the aggregated mean -->
     <g transform="translate(129.466406 778.316562) scale(0.1 -0.1)">
      <defs>
       <path id="DejaVuSans-68" d="M 3513 2113 
L 3513 0 
L 2938 0 
L 2938 2094 
Q 2938 2591 2744 2837 
Q 2550 3084 2163 3084 
Q 1697 3084 1428 2787 
Q 1159 2491 1159 1978 
L 1159 0 
L 581 0 
L 581 4863 
L 1159 4863 
L 1159 2956 
Q 1366 3272 1645 3428 
Q 1925 3584 2291 3584 
Q 2894 3584 3203 3211 
Q 3513 2838 3513 2113 
z
" transform="scale(0.015625)"/>
      </defs>
      <use xlink:href="#DejaVuSans-44"/>
      <use xlink:href="#DejaVuSans-65" transform="translate(77.001953 0)"/>
      <use xlink:href="#DejaVuSans-76" transform="translate(138.525391 0)"/>
      <use xlink:href="#DejaVuSans-69" transform="translate(197.705078 0)"/>
      <use xlink:href="#DejaVuSans-61" transform="translate(225.488281 0)"/>
      <use xlink:href="#DejaVuSans-74" transform="translate(286.767578 0)"/>
      <use xlink:href="#DejaVuSans-69" transform="translate(325.976562 0)"/>
      <use xlink:href="#DejaVuSans-6f" transform="translate(353.759766 0)"/>
      <use xlink:href="#DejaVuSans-6e" transform="translate(414.941406 0)"/>
      <use xlink:href="#DejaVuSans-20" transform="translate(478.320312 0)"/>
      <use xlink:href="#DejaVuSans-6f" transform="translate(510.107422 0)"/>
      <use xlink:href="#DejaVuSans-66" transform="translate(571.289062 0)"/>
      <use xlink:href="#DejaVuSans-20" transform="translate(606.494141 0)"/>
      <use xlink:href="#DejaVuSans-74" transform="translate(638.28125 0)"/>
      <use xlink:href="#DejaVuSans-68" transform="translate(677.490234 0)"/>
      <use xlink:href="#DejaVuSans-65" transform="translate(740.869141 0)"/>
      <use xlink:href="#DejaVuSans-20" transform="translate(802.392578 0)"/>
      <use xlink:href="#DejaVuSans-61" transform="translate(834.179688 0)"/>
      <use xlink:href="#DejaVuSans-67" transform="translate(895.458984 0)"/>
      <use xlink:href="#DejaVuSans-67" transform="translate(958.935547 0)"/>
      <use xlink:href="#DejaVuSans-72" transform="translate(1022.412109 0)"/>
      <use xlink:href="#DejaVuSans-65" transform="translate(1061.275391 0)"/>
      <use xlink:href="#DejaVuSans-67" transform="translate(1122.798828 0)"/>
      <use xlink:href="#DejaVuSans-61" transform="translate(1186.275391 0)"/>
      <use xlink:href="#DejaVuSans-74" transform="translate(1247.554688 0)"/>
      <use xlink:href="#DejaVuSans-65" transform="translate(1286.763672 0)"/>
      <use xlink:href="#DejaVuSans-64" transform="translate(1348.287109 0)"/>
      <use xlink:href="#DejaVuSans-20" transform="translate(1411.763672 0)"/>
      <use xlink:href="#DejaVuSans-6d" transform="translate(1443.550781 0)"/>
      <use xlink:href="#DejaVuSans-65" transform="translate(1540.962891 0)"/>
      <use xlink:href="#DejaVuSans-61" transform="translate(1602.486328 0)"/>
      <use xlink:href="#DejaVuSans-6e" transform="translate(1663.765625 0)"/>
     </g>
    </g>
   </g>
   <g id="matplotlib.axis_8">
    <g id="ytick_19">
     <g id="line2d_54">
      <g>
       <use xlink:href="#m7ba260b7e0" x="50.87" y="750.04" style="stroke: #000000; stroke-width: 0.8"/>
      </g>
     </g>
     <g id="text_21">
      <!-- 0 -->
      <g transform="translate(37.5075 753.839219) scale(0.1 -0.1)">
       <use xlink:href="#DejaVuSans-30"/>
      </g>
     </g>
    </g>
    <g id="ytick_20">
     <g id="line2d_55">
      <g>
       <use xlink:href="#m7ba260b7e0" x="50.87" y="692.885483" style="stroke: #000000; stroke-width: 0.8"/>
      </g>
     </g>
     <g id="text_22">
      <!-- 20 -->
      <g transform="translate(31.145 696.684701) scale(0.1 -0.1)">
       <use xlink:href="#DejaVuSans-32"/>
       <use xlink:href="#DejaVuSans-30" transform="translate(63.623047 0)"/>
      </g>
     </g>
    </g>
    <g id="ytick_21">
     <g id="line2d_56">
      <g>
       <use xlink:href="#m7ba260b7e0" x="50.87" y="635.730965" style="stroke: #000000; stroke-width: 0.8"/>
      </g>
     </g>
     <g id="text_23">
      <!-- 40 -->
      <g transform="translate(31.145 639.530184) scale(0.1 -0.1)">
       <use xlink:href="#DejaVuSans-34"/>
       <use xlink:href="#DejaVuSans-30" transform="translate(63.623047 0)"/>
      </g>
     </g>
    </g>
    <g id="ytick_22">
     <g id="line2d_57">
      <g>
       <use xlink:href="#m7ba260b7e0" x="50.87" y="578.576448" style="stroke: #000000; stroke-width: 0.8"/>
      </g>
     </g>
     <g id="text_24">
      <!-- 60 -->
      <g transform="translate(31.145 582.375666) scale(0.1 -0.1)">
       <use xlink:href="#DejaVuSans-36"/>
       <use xlink:href="#DejaVuSans-30" transform="translate(63.623047 0)"/>
      </g>
     </g>
    </g>
    <g id="ytick_23">
     <g id="line2d_58">
      <g>
       <use xlink:href="#m7ba260b7e0" x="50.87" y="521.42193" style="stroke: #000000; stroke-width: 0.8"/>
      </g>
     </g>
     <g id="text_25">
      <!-- 80 -->
      <g transform="translate(31.145 525.221149) scale(0.1 -0.1)">
       <use xlink:href="#DejaVuSans-38"/>
       <use xlink:href="#DejaVuSans-30" transform="translate(63.623047 0)"/>
      </g>
     </g>
    </g>
    <g id="ytick_24">
     <g id="line2d_59">
      <g>
       <use xlink:href="#m7ba260b7e0" x="50.87" y="464.267413" style="stroke: #000000; stroke-width: 0.8"/>
      </g>
     </g>
     <g id="text_26">
      <!-- 100 -->
      <g transform="translate(24.7825 468.066631) scale(0.1 -0.1)">
       <use xlink:href="#DejaVuSans-31"/>
       <use xlink:href="#DejaVuSans-30" transform="translate(63.623047 0)"/>
       <use xlink:href="#DejaVuSans-30" transform="translate(127.246094 0)"/>
      </g>
     </g>
    </g>
    <g id="text_27">
     <!-- Count -->
     <g transform="translate(18.702812 602.248438) rotate(-90) scale(0.1 -0.1)">
      <use xlink:href="#DejaVuSans-43"/>
      <use xlink:href="#DejaVuSans-6f" transform="translate(69.824219 0)"/>
      <use xlink:href="#DejaVuSans-75" transform="translate(131.005859 0)"/>
      <use xlink:href="#DejaVuSans-6e" transform="translate(194.384766 0)"/>
      <use xlink:href="#DejaVuSans-74" transform="translate(257.763672 0)"/>
     </g>
    </g>
   </g>
   <g id="line2d_60">
    <path d="M 116.75053 741.333043 
L 118.563847 738.629254 
L 120.377163 735.423999 
L 122.19048 731.687672 
L 124.003796 727.4289 
L 126.421551 721.067238 
L 135.488134 696.1909 
L 142.7414 677.958745 
L 145.159155 670.953761 
L 147.57691 663.139173 
L 149.994666 654.443111 
L 152.412421 644.740063 
L 154.225737 636.660136 
L 156.039054 627.750148 
L 157.85237 617.901987 
L 160.270126 603.289563 
L 163.896759 579.256775 
L 166.314514 563.614576 
L 168.12783 553.249033 
L 169.336708 547.32839 
L 170.545586 542.330552 
L 171.754463 538.292896 
L 172.963341 535.185675 
L 174.172219 532.922254 
L 175.381096 531.376729 
L 176.589974 530.405539 
L 177.798852 529.86963 
L 179.007729 529.654428 
L 180.216607 529.685679 
L 181.425485 529.939945 
L 182.634362 530.449004 
L 183.84324 531.29767 
L 185.052117 532.614917 
L 186.260995 534.558762 
L 187.469873 537.296134 
L 188.67875 540.979846 
L 189.887628 545.725506 
L 191.096506 551.591522 
L 192.305383 558.565217 
L 194.1187 570.887196 
L 196.536455 589.788975 
L 200.767527 623.910726 
L 202.580843 636.933067 
L 204.39416 648.399457 
L 206.207476 658.329524 
L 208.020793 667.001414 
L 210.438548 677.331754 
L 217.087375 704.093744 
L 219.505131 713.224038 
L 221.318447 719.326815 
L 223.131763 724.571962 
L 224.94508 728.911642 
L 226.758396 732.436389 
L 228.571713 735.322182 
L 230.385029 737.758555 
L 232.802785 740.550999 
L 235.22054 742.963899 
L 237.033856 744.537228 
L 237.033856 744.537228 
" clip-path="url(#pab3ee3095c)" style="fill: none; stroke: #1f77b4; stroke-width: 1.5; stroke-linecap: square"/>
   </g>
   <g id="line2d_61">
    <path d="M 176.632988 750.04 
L 176.632988 424.76 
" clip-path="url(#pab3ee3095c)" style="fill: none; stroke: #ff0000; stroke-width: 1.5; stroke-linecap: square"/>
   </g>
   <g id="line2d_62">
    <path d="M 195.115175 750.04 
L 195.115175 424.76 
" clip-path="url(#pab3ee3095c)" style="fill: none; stroke-dasharray: 1.85,0.8; stroke-dashoffset: 0; stroke: #000000; stroke-width: 0.5"/>
   </g>
   <g id="patch_62">
    <path d="M 50.87 750.04 
L 50.87 424.76 
" style="fill: none; stroke: #000000; stroke-width: 0.8; stroke-linejoin: miter; stroke-linecap: square"/>
   </g>
   <g id="patch_63">
    <path d="M 50.87 750.04 
L 380.78 750.04 
" style="fill: none; stroke: #000000; stroke-width: 0.8; stroke-linejoin: miter; stroke-linecap: square"/>
   </g>
   <g id="text_28">
    <!-- FDP -->
    <g transform="translate(204.13625 418.76) scale(0.12 -0.12)">
     <defs>
      <path id="DejaVuSans-46" d="M 628 4666 
L 3309 4666 
L 3309 4134 
L 1259 4134 
L 1259 2759 
L 3109 2759 
L 3109 2228 
L 1259 2228 
L 1259 0 
L 628 0 
L 628 4666 
z
" transform="scale(0.015625)"/>
     </defs>
     <use xlink:href="#DejaVuSans-46"/>
     <use xlink:href="#DejaVuSans-44" transform="translate(57.519531 0)"/>
     <use xlink:href="#DejaVuSans-50" transform="translate(134.521484 0)"/>
    </g>
   </g>
  </g>
  <g id="axes_5">
   <g id="patch_64">
    <path d="M 395.08 750.04 
L 724.99 750.04 
L 724.99 424.76 
L 395.08 424.76 
z
" style="fill: #ffffff"/>
   </g>
   <g id="patch_65">
    <path d="M 464.11813 750.04 
L 477.187977 750.04 
L 477.187977 724.320467 
L 464.11813 724.320467 
z
" clip-path="url(#p13172cabce)" style="fill: #1f77b4; fill-opacity: 0.2; stroke: #ffffff; stroke-width: 0.5; stroke-linejoin: miter"/>
   </g>
   <g id="patch_66">
    <path d="M 477.187977 750.04 
L 490.257824 750.04 
L 490.257824 707.174112 
L 477.187977 707.174112 
z
" clip-path="url(#p13172cabce)" style="fill: #1f77b4; fill-opacity: 0.2; stroke: #ffffff; stroke-width: 0.5; stroke-linejoin: miter"/>
   </g>
   <g id="patch_67">
    <path d="M 490.257824 750.04 
L 503.32767 750.04 
L 503.32767 661.450498 
L 490.257824 661.450498 
z
" clip-path="url(#p13172cabce)" style="fill: #1f77b4; fill-opacity: 0.2; stroke: #ffffff; stroke-width: 0.5; stroke-linejoin: miter"/>
   </g>
   <g id="patch_68">
    <path d="M 503.32767 750.04 
L 516.397517 750.04 
L 516.397517 521.42193 
L 503.32767 521.42193 
z
" clip-path="url(#p13172cabce)" style="fill: #1f77b4; fill-opacity: 0.2; stroke: #ffffff; stroke-width: 0.5; stroke-linejoin: miter"/>
   </g>
   <g id="patch_69">
    <path d="M 516.397517 750.04 
L 529.467364 750.04 
L 529.467364 492.844671 
L 516.397517 492.844671 
z
" clip-path="url(#p13172cabce)" style="fill: #1f77b4; fill-opacity: 0.2; stroke: #ffffff; stroke-width: 0.5; stroke-linejoin: miter"/>
   </g>
   <g id="patch_70">
    <path d="M 529.467364 750.04 
L 542.537211 750.04 
L 542.537211 501.417849 
L 529.467364 501.417849 
z
" clip-path="url(#p13172cabce)" style="fill: #1f77b4; fill-opacity: 0.2; stroke: #ffffff; stroke-width: 0.5; stroke-linejoin: miter"/>
   </g>
   <g id="patch_71">
    <path d="M 542.537211 750.04 
L 555.607057 750.04 
L 555.607057 495.702397 
L 542.537211 495.702397 
z
" clip-path="url(#p13172cabce)" style="fill: #1f77b4; fill-opacity: 0.2; stroke: #ffffff; stroke-width: 0.5; stroke-linejoin: miter"/>
   </g>
   <g id="patch_72">
    <path d="M 555.607057 750.04 
L 568.676904 750.04 
L 568.676904 675.739127 
L 555.607057 675.739127 
z
" clip-path="url(#p13172cabce)" style="fill: #1f77b4; fill-opacity: 0.2; stroke: #ffffff; stroke-width: 0.5; stroke-linejoin: miter"/>
   </g>
   <g id="patch_73">
    <path d="M 568.676904 750.04 
L 581.746751 750.04 
L 581.746751 724.320467 
L 568.676904 724.320467 
z
" clip-path="url(#p13172cabce)" style="fill: #1f77b4; fill-opacity: 0.2; stroke: #ffffff; stroke-width: 0.5; stroke-linejoin: miter"/>
   </g>
   <g id="patch_74">
    <path d="M 581.746751 750.04 
L 594.816598 750.04 
L 594.816598 738.609097 
L 581.746751 738.609097 
z
" clip-path="url(#p13172cabce)" style="fill: #1f77b4; fill-opacity: 0.2; stroke: #ffffff; stroke-width: 0.5; stroke-linejoin: miter"/>
   </g>
   <g id="patch_75">
    <path d="M 594.816598 750.04 
L 607.886444 750.04 
L 607.886444 747.182274 
L 594.816598 747.182274 
z
" clip-path="url(#p13172cabce)" style="fill: #1f77b4; fill-opacity: 0.2; stroke: #ffffff; stroke-width: 0.5; stroke-linejoin: miter"/>
   </g>
   <g id="patch_76">
    <path d="M 607.886444 750.04 
L 620.956291 750.04 
L 620.956291 744.324548 
L 607.886444 744.324548 
z
" clip-path="url(#p13172cabce)" style="fill: #1f77b4; fill-opacity: 0.2; stroke: #ffffff; stroke-width: 0.5; stroke-linejoin: miter"/>
   </g>
   <g id="matplotlib.axis_9">
    <g id="xtick_25">
     <g id="line2d_63">
      <g>
       <use xlink:href="#m7ff4380ec3" x="427.542026" y="750.04" style="stroke: #000000; stroke-width: 0.8"/>
      </g>
     </g>
     <g id="text_29">
      <!-- −4 -->
      <g transform="translate(420.170932 764.638438) scale(0.1 -0.1)">
       <use xlink:href="#DejaVuSans-2212"/>
       <use xlink:href="#DejaVuSans-34" transform="translate(83.789062 0)"/>
      </g>
     </g>
    </g>
    <g id="xtick_26">
     <g id="line2d_64">
      <g>
       <use xlink:href="#m7ff4380ec3" x="483.433601" y="750.04" style="stroke: #000000; stroke-width: 0.8"/>
      </g>
     </g>
     <g id="text_30">
      <!-- −2 -->
      <g transform="translate(476.062507 764.638438) scale(0.1 -0.1)">
       <use xlink:href="#DejaVuSans-2212"/>
       <use xlink:href="#DejaVuSans-32" transform="translate(83.789062 0)"/>
      </g>
     </g>
    </g>
    <g id="xtick_27">
     <g id="line2d_65">
      <g>
       <use xlink:href="#m7ff4380ec3" x="539.325175" y="750.04" style="stroke: #000000; stroke-width: 0.8"/>
      </g>
     </g>
     <g id="text_31">
      <!-- 0 -->
      <g transform="translate(536.143925 764.638438) scale(0.1 -0.1)">
       <use xlink:href="#DejaVuSans-30"/>
      </g>
     </g>
    </g>
    <g id="xtick_28">
     <g id="line2d_66">
      <g>
       <use xlink:href="#m7ff4380ec3" x="595.21675" y="750.04" style="stroke: #000000; stroke-width: 0.8"/>
      </g>
     </g>
     <g id="text_32">
      <!-- 2 -->
      <g transform="translate(592.0355 764.638438) scale(0.1 -0.1)">
       <use xlink:href="#DejaVuSans-32"/>
      </g>
     </g>
    </g>
    <g id="xtick_29">
     <g id="line2d_67">
      <g>
       <use xlink:href="#m7ff4380ec3" x="651.108325" y="750.04" style="stroke: #000000; stroke-width: 0.8"/>
      </g>
     </g>
     <g id="text_33">
      <!-- 4 -->
      <g transform="translate(647.927075 764.638438) scale(0.1 -0.1)">
       <use xlink:href="#DejaVuSans-34"/>
      </g>
     </g>
    </g>
    <g id="xtick_30">
     <g id="line2d_68">
      <g>
       <use xlink:href="#m7ff4380ec3" x="706.999899" y="750.04" style="stroke: #000000; stroke-width: 0.8"/>
      </g>
     </g>
     <g id="text_34">
      <!-- 6 -->
      <g transform="translate(703.818649 764.638438) scale(0.1 -0.1)">
       <use xlink:href="#DejaVuSans-36"/>
      </g>
     </g>
    </g>
    <g id="text_35">
     <!-- Deviation of the aggregated mean -->
     <g transform="translate(473.676406 778.316562) scale(0.1 -0.1)">
      <use xlink:href="#DejaVuSans-44"/>
      <use xlink:href="#DejaVuSans-65" transform="translate(77.001953 0)"/>
      <use xlink:href="#DejaVuSans-76" transform="translate(138.525391 0)"/>
      <use xlink:href="#DejaVuSans-69" transform="translate(197.705078 0)"/>
      <use xlink:href="#DejaVuSans-61" transform="translate(225.488281 0)"/>
      <use xlink:href="#DejaVuSans-74" transform="translate(286.767578 0)"/>
      <use xlink:href="#DejaVuSans-69" transform="translate(325.976562 0)"/>
      <use xlink:href="#DejaVuSans-6f" transform="translate(353.759766 0)"/>
      <use xlink:href="#DejaVuSans-6e" transform="translate(414.941406 0)"/>
      <use xlink:href="#DejaVuSans-20" transform="translate(478.320312 0)"/>
      <use xlink:href="#DejaVuSans-6f" transform="translate(510.107422 0)"/>
      <use xlink:href="#DejaVuSans-66" transform="translate(571.289062 0)"/>
      <use xlink:href="#DejaVuSans-20" transform="translate(606.494141 0)"/>
      <use xlink:href="#DejaVuSans-74" transform="translate(638.28125 0)"/>
      <use xlink:href="#DejaVuSans-68" transform="translate(677.490234 0)"/>
      <use xlink:href="#DejaVuSans-65" transform="translate(740.869141 0)"/>
      <use xlink:href="#DejaVuSans-20" transform="translate(802.392578 0)"/>
      <use xlink:href="#DejaVuSans-61" transform="translate(834.179688 0)"/>
      <use xlink:href="#DejaVuSans-67" transform="translate(895.458984 0)"/>
      <use xlink:href="#DejaVuSans-67" transform="translate(958.935547 0)"/>
      <use xlink:href="#DejaVuSans-72" transform="translate(1022.412109 0)"/>
      <use xlink:href="#DejaVuSans-65" transform="translate(1061.275391 0)"/>
      <use xlink:href="#DejaVuSans-67" transform="translate(1122.798828 0)"/>
      <use xlink:href="#DejaVuSans-61" transform="translate(1186.275391 0)"/>
      <use xlink:href="#DejaVuSans-74" transform="translate(1247.554688 0)"/>
      <use xlink:href="#DejaVuSans-65" transform="translate(1286.763672 0)"/>
      <use xlink:href="#DejaVuSans-64" transform="translate(1348.287109 0)"/>
      <use xlink:href="#DejaVuSans-20" transform="translate(1411.763672 0)"/>
      <use xlink:href="#DejaVuSans-6d" transform="translate(1443.550781 0)"/>
      <use xlink:href="#DejaVuSans-65" transform="translate(1540.962891 0)"/>
      <use xlink:href="#DejaVuSans-61" transform="translate(1602.486328 0)"/>
      <use xlink:href="#DejaVuSans-6e" transform="translate(1663.765625 0)"/>
     </g>
    </g>
   </g>
   <g id="matplotlib.axis_10">
    <g id="ytick_25">
     <g id="line2d_69">
      <g>
       <use xlink:href="#m7ba260b7e0" x="395.08" y="750.04" style="stroke: #000000; stroke-width: 0.8"/>
      </g>
     </g>
    </g>
    <g id="ytick_26">
     <g id="line2d_70">
      <g>
       <use xlink:href="#m7ba260b7e0" x="395.08" y="692.885483" style="stroke: #000000; stroke-width: 0.8"/>
      </g>
     </g>
    </g>
    <g id="ytick_27">
     <g id="line2d_71">
      <g>
       <use xlink:href="#m7ba260b7e0" x="395.08" y="635.730965" style="stroke: #000000; stroke-width: 0.8"/>
      </g>
     </g>
    </g>
    <g id="ytick_28">
     <g id="line2d_72">
      <g>
       <use xlink:href="#m7ba260b7e0" x="395.08" y="578.576448" style="stroke: #000000; stroke-width: 0.8"/>
      </g>
     </g>
    </g>
    <g id="ytick_29">
     <g id="line2d_73">
      <g>
       <use xlink:href="#m7ba260b7e0" x="395.08" y="521.42193" style="stroke: #000000; stroke-width: 0.8"/>
      </g>
     </g>
    </g>
    <g id="ytick_30">
     <g id="line2d_74">
      <g>
       <use xlink:href="#m7ba260b7e0" x="395.08" y="464.267413" style="stroke: #000000; stroke-width: 0.8"/>
      </g>
     </g>
    </g>
   </g>
   <g id="line2d_75">
    <path d="M 464.11813 737.320203 
L 468.058787 731.646533 
L 470.423182 728.683823 
L 475.151971 723.091827 
L 476.728234 720.745634 
L 478.304496 717.839001 
L 479.880759 714.228805 
L 481.457022 709.848795 
L 483.033285 704.724264 
L 485.39768 695.905531 
L 489.338337 679.738423 
L 495.643389 653.241641 
L 497.219652 645.618785 
L 498.795914 636.915052 
L 500.372177 626.801151 
L 501.94844 615.093986 
L 503.524703 601.83405 
L 505.889098 579.762103 
L 509.829755 542.487568 
L 511.406018 529.553075 
L 512.982281 518.626803 
L 514.558544 509.998877 
L 515.346675 506.57166 
L 516.134807 503.721997 
L 516.922938 501.425846 
L 517.71107 499.650342 
L 518.499201 498.355519 
L 519.287332 497.495706 
L 520.075464 497.020562 
L 520.863595 496.875745 
L 521.651727 497.003325 
L 522.439858 497.34211 
L 524.016121 498.395058 
L 525.592384 499.504729 
L 526.380516 499.9181 
L 527.168647 500.15895 
L 527.956779 500.179014 
L 528.74491 499.941948 
L 529.533041 499.425996 
L 530.321173 498.626024 
L 531.109304 497.554643 
L 532.685567 494.735896 
L 536.626225 486.762815 
L 537.414356 485.644546 
L 538.202488 484.865096 
L 538.990619 484.487085 
L 539.778751 484.562665 
L 540.566882 485.133212 
L 541.355013 486.22978 
L 542.143145 487.874092 
L 542.931276 490.079851 
L 543.719408 492.854102 
L 544.507539 496.198439 
L 546.083802 504.581334 
L 547.660065 515.154972 
L 549.236328 527.771711 
L 550.812591 542.188697 
L 553.176985 566.376464 
L 559.482037 633.385894 
L 561.0583 647.943151 
L 562.634563 660.988009 
L 564.210826 672.460634 
L 565.787089 682.421688 
L 567.363352 691.009413 
L 568.939615 698.396683 
L 570.515878 704.757916 
L 572.09214 710.250124 
L 573.668403 715.006863 
L 575.244666 719.140298 
L 576.820929 722.745887 
L 578.397192 725.905778 
L 579.973455 728.689693 
L 581.549718 731.154315 
L 583.914112 734.344433 
L 586.278507 737.012555 
L 588.642901 739.227392 
L 591.007296 741.046349 
L 593.37169 742.520118 
L 595.736084 743.688289 
L 598.100479 744.581454 
L 600.464873 745.232458 
L 603.617399 745.803255 
L 607.558056 746.226196 
L 616.227502 746.82532 
L 620.16816 747.199402 
L 620.956291 747.306038 
L 620.956291 747.306038 
" clip-path="url(#p13172cabce)" style="fill: none; stroke: #1f77b4; stroke-width: 1.5; stroke-linecap: square"/>
   </g>
   <g id="line2d_76">
    <path d="M 528.793159 750.04 
L 528.793159 424.76 
" clip-path="url(#p13172cabce)" style="fill: none; stroke: #ff0000; stroke-width: 1.5; stroke-linecap: square"/>
   </g>
   <g id="line2d_77">
    <path d="M 539.325175 750.04 
L 539.325175 424.76 
" clip-path="url(#p13172cabce)" style="fill: none; stroke-dasharray: 1.85,0.8; stroke-dashoffset: 0; stroke: #000000; stroke-width: 0.5"/>
   </g>
   <g id="patch_77">
    <path d="M 395.08 750.04 
L 395.08 424.76 
" style="fill: none; stroke: #000000; stroke-width: 0.8; stroke-linejoin: miter; stroke-linecap: square"/>
   </g>
   <g id="patch_78">
    <path d="M 395.08 750.04 
L 724.99 750.04 
" style="fill: none; stroke: #000000; stroke-width: 0.8; stroke-linejoin: miter; stroke-linecap: square"/>
   </g>
   <g id="text_36">
    <!-- LINKE -->
    <g transform="translate(542.707187 418.76) scale(0.12 -0.12)">
     <defs>
      <path id="DejaVuSans-4c" d="M 628 4666 
L 1259 4666 
L 1259 531 
L 3531 531 
L 3531 0 
L 628 0 
L 628 4666 
z
" transform="scale(0.015625)"/>
      <path id="DejaVuSans-49" d="M 628 4666 
L 1259 4666 
L 1259 0 
L 628 0 
L 628 4666 
z
" transform="scale(0.015625)"/>
      <path id="DejaVuSans-4b" d="M 628 4666 
L 1259 4666 
L 1259 2694 
L 3353 4666 
L 4166 4666 
L 1850 2491 
L 4331 0 
L 3500 0 
L 1259 2247 
L 1259 0 
L 628 0 
L 628 4666 
z
" transform="scale(0.015625)"/>
     </defs>
     <use xlink:href="#DejaVuSans-4c"/>
     <use xlink:href="#DejaVuSans-49" transform="translate(55.712891 0)"/>
     <use xlink:href="#DejaVuSans-4e" transform="translate(85.205078 0)"/>
     <use xlink:href="#DejaVuSans-4b" transform="translate(160.009766 0)"/>
     <use xlink:href="#DejaVuSans-45" transform="translate(225.585938 0)"/>
    </g>
   </g>
  </g>
  <g id="axes_6">
   <g id="patch_79">
    <path d="M 739.29 750.04 
L 1069.2 750.04 
L 1069.2 424.76 
L 739.29 424.76 
z
" style="fill: #ffffff"/>
   </g>
   <g id="patch_80">
    <path d="M 825.023683 750.04 
L 834.460238 750.04 
L 834.460238 741.466822 
L 825.023683 741.466822 
z
" clip-path="url(#pcb0f5d5988)" style="fill: #1f77b4; fill-opacity: 0.2; stroke: #ffffff; stroke-width: 0.5; stroke-linejoin: miter"/>
   </g>
   <g id="patch_81">
    <path d="M 834.460238 750.04 
L 843.896793 750.04 
L 843.896793 738.609097 
L 834.460238 738.609097 
z
" clip-path="url(#pcb0f5d5988)" style="fill: #1f77b4; fill-opacity: 0.2; stroke: #ffffff; stroke-width: 0.5; stroke-linejoin: miter"/>
   </g>
   <g id="patch_82">
    <path d="M 843.896793 750.04 
L 853.333348 750.04 
L 853.333348 690.027757 
L 843.896793 690.027757 
z
" clip-path="url(#pcb0f5d5988)" style="fill: #1f77b4; fill-opacity: 0.2; stroke: #ffffff; stroke-width: 0.5; stroke-linejoin: miter"/>
   </g>
   <g id="patch_83">
    <path d="M 853.333348 750.04 
L 862.769903 750.04 
L 862.769903 664.308224 
L 853.333348 664.308224 
z
" clip-path="url(#pcb0f5d5988)" style="fill: #1f77b4; fill-opacity: 0.2; stroke: #ffffff; stroke-width: 0.5; stroke-linejoin: miter"/>
   </g>
   <g id="patch_84">
    <path d="M 862.769903 750.04 
L 872.206458 750.04 
L 872.206458 661.450498 
L 862.769903 661.450498 
z
" clip-path="url(#pcb0f5d5988)" style="fill: #1f77b4; fill-opacity: 0.2; stroke: #ffffff; stroke-width: 0.5; stroke-linejoin: miter"/>
   </g>
   <g id="patch_85">
    <path d="M 872.206458 750.04 
L 881.643013 750.04 
L 881.643013 618.58461 
L 872.206458 618.58461 
z
" clip-path="url(#pcb0f5d5988)" style="fill: #1f77b4; fill-opacity: 0.2; stroke: #ffffff; stroke-width: 0.5; stroke-linejoin: miter"/>
   </g>
   <g id="patch_86">
    <path d="M 881.643013 750.04 
L 891.079568 750.04 
L 891.079568 630.015513 
L 881.643013 630.015513 
z
" clip-path="url(#pcb0f5d5988)" style="fill: #1f77b4; fill-opacity: 0.2; stroke: #ffffff; stroke-width: 0.5; stroke-linejoin: miter"/>
   </g>
   <g id="patch_87">
    <path d="M 891.079568 750.04 
L 900.516123 750.04 
L 900.516123 672.881401 
L 891.079568 672.881401 
z
" clip-path="url(#pcb0f5d5988)" style="fill: #1f77b4; fill-opacity: 0.2; stroke: #ffffff; stroke-width: 0.5; stroke-linejoin: miter"/>
   </g>
   <g id="patch_88">
    <path d="M 900.516123 750.04 
L 909.952678 750.04 
L 909.952678 670.023676 
L 900.516123 670.023676 
z
" clip-path="url(#pcb0f5d5988)" style="fill: #1f77b4; fill-opacity: 0.2; stroke: #ffffff; stroke-width: 0.5; stroke-linejoin: miter"/>
   </g>
   <g id="patch_89">
    <path d="M 909.952678 750.04 
L 919.389232 750.04 
L 919.389232 732.893645 
L 909.952678 732.893645 
z
" clip-path="url(#pcb0f5d5988)" style="fill: #1f77b4; fill-opacity: 0.2; stroke: #ffffff; stroke-width: 0.5; stroke-linejoin: miter"/>
   </g>
   <g id="patch_90">
    <path d="M 919.389232 750.04 
L 928.825787 750.04 
L 928.825787 735.751371 
L 919.389232 735.751371 
z
" clip-path="url(#pcb0f5d5988)" style="fill: #1f77b4; fill-opacity: 0.2; stroke: #ffffff; stroke-width: 0.5; stroke-linejoin: miter"/>
   </g>
   <g id="patch_91">
    <path d="M 928.825787 750.04 
L 938.262342 750.04 
L 938.262342 744.324548 
L 928.825787 744.324548 
z
" clip-path="url(#pcb0f5d5988)" style="fill: #1f77b4; fill-opacity: 0.2; stroke: #ffffff; stroke-width: 0.5; stroke-linejoin: miter"/>
   </g>
   <g id="matplotlib.axis_11">
    <g id="xtick_31">
     <g id="line2d_78">
      <g>
       <use xlink:href="#m7ff4380ec3" x="771.752026" y="750.04" style="stroke: #000000; stroke-width: 0.8"/>
      </g>
     </g>
     <g id="text_37">
      <!-- −4 -->
      <g transform="translate(764.380932 764.638438) scale(0.1 -0.1)">
       <use xlink:href="#DejaVuSans-2212"/>
       <use xlink:href="#DejaVuSans-34" transform="translate(83.789062 0)"/>
      </g>
     </g>
    </g>
    <g id="xtick_32">
     <g id="line2d_79">
      <g>
       <use xlink:href="#m7ff4380ec3" x="827.643601" y="750.04" style="stroke: #000000; stroke-width: 0.8"/>
      </g>
     </g>
     <g id="text_38">
      <!-- −2 -->
      <g transform="translate(820.272507 764.638438) scale(0.1 -0.1)">
       <use xlink:href="#DejaVuSans-2212"/>
       <use xlink:href="#DejaVuSans-32" transform="translate(83.789062 0)"/>
      </g>
     </g>
    </g>
    <g id="xtick_33">
     <g id="line2d_80">
      <g>
       <use xlink:href="#m7ff4380ec3" x="883.535175" y="750.04" style="stroke: #000000; stroke-width: 0.8"/>
      </g>
     </g>
     <g id="text_39">
      <!-- 0 -->
      <g transform="translate(880.353925 764.638438) scale(0.1 -0.1)">
       <use xlink:href="#DejaVuSans-30"/>
      </g>
     </g>
    </g>
    <g id="xtick_34">
     <g id="line2d_81">
      <g>
       <use xlink:href="#m7ff4380ec3" x="939.42675" y="750.04" style="stroke: #000000; stroke-width: 0.8"/>
      </g>
     </g>
     <g id="text_40">
      <!-- 2 -->
      <g transform="translate(936.2455 764.638438) scale(0.1 -0.1)">
       <use xlink:href="#DejaVuSans-32"/>
      </g>
     </g>
    </g>
    <g id="xtick_35">
     <g id="line2d_82">
      <g>
       <use xlink:href="#m7ff4380ec3" x="995.318325" y="750.04" style="stroke: #000000; stroke-width: 0.8"/>
      </g>
     </g>
     <g id="text_41">
      <!-- 4 -->
      <g transform="translate(992.137075 764.638438) scale(0.1 -0.1)">
       <use xlink:href="#DejaVuSans-34"/>
      </g>
     </g>
    </g>
    <g id="xtick_36">
     <g id="line2d_83">
      <g>
       <use xlink:href="#m7ff4380ec3" x="1051.209899" y="750.04" style="stroke: #000000; stroke-width: 0.8"/>
      </g>
     </g>
     <g id="text_42">
      <!-- 6 -->
      <g transform="translate(1048.028649 764.638438) scale(0.1 -0.1)">
       <use xlink:href="#DejaVuSans-36"/>
      </g>
     </g>
    </g>
    <g id="text_43">
     <!-- Deviation of the aggregated mean -->
     <g transform="translate(817.886406 778.316562) scale(0.1 -0.1)">
      <use xlink:href="#DejaVuSans-44"/>
      <use xlink:href="#DejaVuSans-65" transform="translate(77.001953 0)"/>
      <use xlink:href="#DejaVuSans-76" transform="translate(138.525391 0)"/>
      <use xlink:href="#DejaVuSans-69" transform="translate(197.705078 0)"/>
      <use xlink:href="#DejaVuSans-61" transform="translate(225.488281 0)"/>
      <use xlink:href="#DejaVuSans-74" transform="translate(286.767578 0)"/>
      <use xlink:href="#DejaVuSans-69" transform="translate(325.976562 0)"/>
      <use xlink:href="#DejaVuSans-6f" transform="translate(353.759766 0)"/>
      <use xlink:href="#DejaVuSans-6e" transform="translate(414.941406 0)"/>
      <use xlink:href="#DejaVuSans-20" transform="translate(478.320312 0)"/>
      <use xlink:href="#DejaVuSans-6f" transform="translate(510.107422 0)"/>
      <use xlink:href="#DejaVuSans-66" transform="translate(571.289062 0)"/>
      <use xlink:href="#DejaVuSans-20" transform="translate(606.494141 0)"/>
      <use xlink:href="#DejaVuSans-74" transform="translate(638.28125 0)"/>
      <use xlink:href="#DejaVuSans-68" transform="translate(677.490234 0)"/>
      <use xlink:href="#DejaVuSans-65" transform="translate(740.869141 0)"/>
      <use xlink:href="#DejaVuSans-20" transform="translate(802.392578 0)"/>
      <use xlink:href="#DejaVuSans-61" transform="translate(834.179688 0)"/>
      <use xlink:href="#DejaVuSans-67" transform="translate(895.458984 0)"/>
      <use xlink:href="#DejaVuSans-67" transform="translate(958.935547 0)"/>
      <use xlink:href="#DejaVuSans-72" transform="translate(1022.412109 0)"/>
      <use xlink:href="#DejaVuSans-65" transform="translate(1061.275391 0)"/>
      <use xlink:href="#DejaVuSans-67" transform="translate(1122.798828 0)"/>
      <use xlink:href="#DejaVuSans-61" transform="translate(1186.275391 0)"/>
      <use xlink:href="#DejaVuSans-74" transform="translate(1247.554688 0)"/>
      <use xlink:href="#DejaVuSans-65" transform="translate(1286.763672 0)"/>
      <use xlink:href="#DejaVuSans-64" transform="translate(1348.287109 0)"/>
      <use xlink:href="#DejaVuSans-20" transform="translate(1411.763672 0)"/>
      <use xlink:href="#DejaVuSans-6d" transform="translate(1443.550781 0)"/>
      <use xlink:href="#DejaVuSans-65" transform="translate(1540.962891 0)"/>
      <use xlink:href="#DejaVuSans-61" transform="translate(1602.486328 0)"/>
      <use xlink:href="#DejaVuSans-6e" transform="translate(1663.765625 0)"/>
     </g>
    </g>
   </g>
   <g id="matplotlib.axis_12">
    <g id="ytick_31">
     <g id="line2d_84">
      <g>
       <use xlink:href="#m7ba260b7e0" x="739.29" y="750.04" style="stroke: #000000; stroke-width: 0.8"/>
      </g>
     </g>
    </g>
    <g id="ytick_32">
     <g id="line2d_85">
      <g>
       <use xlink:href="#m7ba260b7e0" x="739.29" y="692.885483" style="stroke: #000000; stroke-width: 0.8"/>
      </g>
     </g>
    </g>
    <g id="ytick_33">
     <g id="line2d_86">
      <g>
       <use xlink:href="#m7ba260b7e0" x="739.29" y="635.730965" style="stroke: #000000; stroke-width: 0.8"/>
      </g>
     </g>
    </g>
    <g id="ytick_34">
     <g id="line2d_87">
      <g>
       <use xlink:href="#m7ba260b7e0" x="739.29" y="578.576448" style="stroke: #000000; stroke-width: 0.8"/>
      </g>
     </g>
    </g>
    <g id="ytick_35">
     <g id="line2d_88">
      <g>
       <use xlink:href="#m7ba260b7e0" x="739.29" y="521.42193" style="stroke: #000000; stroke-width: 0.8"/>
      </g>
     </g>
    </g>
    <g id="ytick_36">
     <g id="line2d_89">
      <g>
       <use xlink:href="#m7ba260b7e0" x="739.29" y="464.267413" style="stroke: #000000; stroke-width: 0.8"/>
      </g>
     </g>
    </g>
   </g>
   <g id="line2d_90">
    <path d="M 825.023683 745.117807 
L 829.575991 742.53668 
L 831.852145 741.020487 
L 833.559261 739.599908 
L 834.697338 738.427904 
L 835.835415 737.009589 
L 836.973491 735.286429 
L 838.111568 733.204259 
L 839.249645 730.719306 
L 840.387722 727.804114 
L 842.094838 722.617883 
L 843.801953 716.539781 
L 846.078107 707.42396 
L 850.630415 688.654406 
L 852.337531 682.43587 
L 854.044646 677.00787 
L 855.751762 672.426386 
L 857.458877 668.622794 
L 859.165993 665.419505 
L 865.425416 654.552199 
L 867.132531 650.903238 
L 873.391955 636.820649 
L 874.530032 634.957908 
L 875.668109 633.526791 
L 876.806186 632.565428 
L 877.944263 632.081047 
L 879.08234 632.053593 
L 880.220417 632.443091 
L 881.358494 633.199105 
L 882.496571 634.270343 
L 883.634647 635.612518 
L 885.341763 638.066116 
L 887.048878 641.00028 
L 888.755994 644.393947 
L 890.463109 648.220339 
L 892.739263 653.862961 
L 899.567725 671.272072 
L 904.120033 682.24903 
L 905.827149 686.916465 
L 907.534264 692.137324 
L 909.810418 699.906952 
L 914.931764 717.983333 
L 916.63888 723.137637 
L 918.345995 727.55184 
L 920.053111 731.221692 
L 921.760226 734.23126 
L 923.467342 736.702202 
L 925.174457 738.748597 
L 926.881573 740.451757 
L 928.588688 741.85833 
L 930.295803 742.99528 
L 932.002919 743.890274 
L 934.279073 744.784377 
L 937.693304 745.792657 
L 938.262342 745.95253 
L 938.262342 745.95253 
" clip-path="url(#pcb0f5d5988)" style="fill: none; stroke: #1f77b4; stroke-width: 1.5; stroke-linecap: square"/>
   </g>
   <g id="line2d_91">
    <path d="M 879.25303 750.04 
L 879.25303 424.76 
" clip-path="url(#pcb0f5d5988)" style="fill: none; stroke: #ff0000; stroke-width: 1.5; stroke-linecap: square"/>
   </g>
   <g id="line2d_92">
    <path d="M 883.535175 750.04 
L 883.535175 424.76 
" clip-path="url(#pcb0f5d5988)" style="fill: none; stroke-dasharray: 1.85,0.8; stroke-dashoffset: 0; stroke: #000000; stroke-width: 0.5"/>
   </g>
   <g id="patch_92">
    <path d="M 739.29 750.04 
L 739.29 424.76 
" style="fill: none; stroke: #000000; stroke-width: 0.8; stroke-linejoin: miter; stroke-linecap: square"/>
   </g>
   <g id="patch_93">
    <path d="M 739.29 750.04 
L 1069.2 750.04 
" style="fill: none; stroke: #000000; stroke-width: 0.8; stroke-linejoin: miter; stroke-linecap: square"/>
   </g>
   <g id="text_44">
    <!-- AfD -->
    <g transform="translate(893.625938 418.76) scale(0.12 -0.12)">
     <defs>
      <path id="DejaVuSans-41" d="M 2188 4044 
L 1331 1722 
L 3047 1722 
L 2188 4044 
z
M 1831 4666 
L 2547 4666 
L 4325 0 
L 3669 0 
L 3244 1197 
L 1141 1197 
L 716 0 
L 50 0 
L 1831 4666 
z
" transform="scale(0.015625)"/>
     </defs>
     <use xlink:href="#DejaVuSans-41"/>
     <use xlink:href="#DejaVuSans-66" transform="translate(64.783203 0)"/>
     <use xlink:href="#DejaVuSans-44" transform="translate(99.988281 0)"/>
    </g>
   </g>
  </g>
 </g>
 <defs>
  <clipPath id="p394a37467b">
   <rect x="50.87" y="66.48" width="329.91" height="325.28"/>
  </clipPath>
  <clipPath id="pb8b43277aa">
   <rect x="395.08" y="66.48" width="329.91" height="325.28"/>
  </clipPath>
  <clipPath id="p972e1ed03e">
   <rect x="739.29" y="66.48" width="329.91" height="325.28"/>
  </clipPath>
  <clipPath id="pab3ee3095c">
   <rect x="50.87" y="424.76" width="329.91" height="325.28"/>
  </clipPath>
  <clipPath id="p13172cabce">
   <rect x="395.08" y="424.76" width="329.91" height="325.28"/>
  </clipPath>
  <clipPath id="pcb0f5d5988">
   <rect x="739.29" y="424.76" width="329.91" height="325.28"/>
  </clipPath>
 </defs>
</svg>
